{
.appVersion = "911";
copyright = "Copyright (c) 2011 by Vernon Adams. All rights reserved.";
customParameters = (
{
name = description;
value = "Copyright (c) 2011 by vernon adams. All rights reserved.";
},
{
name = license;
value = "SIL Open Font License, Version 1.1\012\012This Font Software is licensed under the SIL Open Font License, Version 1.1.\012\012This license is available with a FAQ at: http://scripts.sil.org/OFL";
},
{
name = licenseURL;
value = "http://scripts.sil.org/OFL";
},
{
name = vendorID;
value = newt;
}
);
date = "2016-07-26 07:59:01 +0000";
designer = "Vernon Adams";
familyName = Pacifico;
featurePrefixes = (
{
automatic = 1;
code = "languagesystem DFLT dflt;\012";
name = Languagesystems;
}
);
features = (
{
automatic = 1;
code = "feature sups;\012feature frac;\012feature ordn;\012feature fina;\012feature salt;\012feature ss01;\012";
name = aalt;
},
{
automatic = 1;
code = "sub one by onesuperior;\012sub two by twosuperior;\012sub three by threesuperior;\012sub four by foursuperior;\012";
name = sups;
},
{
automatic = 1;
code = "sub one slash four by onequarter;\012sub one slash two by onehalf;\012sub three slash four by threequarters;\012";
name = frac;
},
{
automatic = 1;
code = "sub [zero one two three four five six seven eight nine] [A a]' by ordfeminine;\012sub [zero one two three four five six seven eight nine] [O o]' by ordmasculine;\012";
name = ordn;
},
{
automatic = 1;
code = "sub eth by eth.fina;\012sub o by o.fina;\012sub p by p.fina;\012sub q by q.fina;\012sub r by r.fina;\012sub s by s.fina;\012sub schwa by schwa.fina;\012sub v by v.fina;\012sub w by w.fina;\012";
name = fina;
},
{
automatic = 1;
code = "sub lslash lslash by lslash_lslash;\012";
name = dlig;
},
{
automatic = 1;
code = "sub f i by fi;\012sub f l by fl;\012";
name = liga;
},
{
automatic = 1;

glyphs = (
{
color = 3;
glyphname = A;
lastChange = "2016-07-22 21:29:10 +0000";
layers = (
{
background = {
paths = (
{
closed = 1;
nodes = (
"438 -5 OFFCURVE",
"516 83 OFFCURVE",
"569 237 CURVE",
"672 606 LINE",
"598 628 LINE",
"522 247 OFFCURVE",
"457 116 OFFCURVE",
"338 116 CURVE SMOOTH",
"270 116 OFFCURVE",
"217 167 OFFCURVE",
"217 290 CURVE SMOOTH",
"217 514 OFFCURVE",
"346 728 OFFCURVE",
"618 728 CURVE SMOOTH",
"665 728 OFFCURVE",
"711 722 OFFCURVE",
"775 705 CURVE SMOOTH",
"866 681 OFFCURVE",
"893 791 OFFCURVE",
"833 814 CURVE SMOOTH",
"768 839 OFFCURVE",
"697 848 OFFCURVE",
"630 848 CURVE SMOOTH",
"255 848 OFFCURVE",
"65 576 OFFCURVE",
"65 280 CURVE SMOOTH",
"65 102 OFFCURVE",
"166 -5 OFFCURVE",
"312 -5 CURVE SMOOTH"
);
},
{
closed = 1;
nodes = (
"780 -4 OFFCURVE",
"848 40 OFFCURVE",
"905 120 CURVE SMOOTH",
"954 189 OFFCURVE",
"913 262 OFFCURVE",
"869 209 CURVE SMOOTH",
"813 142 OFFCURVE",
"779 114 OFFCURVE",
"736 114 CURVE SMOOTH",
"696 114 OFFCURVE",
"674 144 OFFCURVE",
"674 217 CURVE SMOOTH",
"674 305 OFFCURVE",
"714 496 OFFCURVE",
"743 610 CURVE SMOOTH",
"757 665 OFFCURVE",
"719 682 OFFCURVE",
"678 682 CURVE SMOOTH",
"638 682 OFFCURVE",
"606 669 OFFCURVE",
"598 628 CURVE",
"527 207 LINE",
"524 80 OFFCURVE",
"578 -6 OFFCURVE",
"697 -5 CURVE SMOOTH"
);
},
{
closed = 1;
nodes = (
"796 -4 OFFCURVE",
"867 40 OFFCURVE",
"924 120 CURVE SMOOTH",
"973 189 OFFCURVE",
"932 262 OFFCURVE",
"888 209 CURVE SMOOTH",
"832 142 OFFCURVE",
"795 114 OFFCURVE",
"746 114 CURVE SMOOTH",
"699 114 OFFCURVE",
"674 144 OFFCURVE",
"674 217 CURVE SMOOTH",
"674 305 OFFCURVE",
"713 496 OFFCURVE",
"743 610 CURVE SMOOTH",
"757 665 OFFCURVE",
"719 682 OFFCURVE",
"678 682 CURVE SMOOTH",
"638 682 OFFCURVE",
"606 669 OFFCURVE",
"598 628 CURVE",
"527 207 LINE",
"524 80 OFFCURVE",
"581 -6 OFFCURVE",
"707 -5 CURVE SMOOTH"
);
}
);
};
layerId = "ECEFE970-1BBB-4E0A-A452-CEB55884B4A3";
paths = (
{
closed = 1;
nodes = (
"438 -5 OFFCURVE",
"516 83 OFFCURVE",
"569 237 CURVE",
"672 606 LINE",
"598 628 LINE",
"522 247 OFFCURVE",
"457 116 OFFCURVE",
"338 116 CURVE SMOOTH",
"270 116 OFFCURVE",
"217 167 OFFCURVE",
"217 290 CURVE SMOOTH",
"217 514 OFFCURVE",
"346 728 OFFCURVE",
"618 728 CURVE SMOOTH",
"665 728 OFFCURVE",
"711 722 OFFCURVE",
"775 705 CURVE SMOOTH",
"866 680 OFFCURVE",
"893 791 OFFCURVE",
"833 814 CURVE SMOOTH",
"768 838 OFFCURVE",
"697 848 OFFCURVE",
"630 848 CURVE SMOOTH",
"255 848 OFFCURVE",
"65 576 OFFCURVE",
"65 280 CURVE SMOOTH",
"65 102 OFFCURVE",
"166 -5 OFFCURVE",
"312 -5 CURVE SMOOTH"
);
},
{
closed = 1;
nodes = (
"780 -4 OFFCURVE",
"848 40 OFFCURVE",
"905 120 CURVE SMOOTH",
"954 189 OFFCURVE",
"913 262 OFFCURVE",
"869 209 CURVE SMOOTH",
"813 142 OFFCURVE",
"779 114 OFFCURVE",
"736 114 CURVE SMOOTH",
"696 114 OFFCURVE",
"674 144 OFFCURVE",
"674 217 CURVE SMOOTH",
"674 305 OFFCURVE",
"714 496 OFFCURVE",
"743 610 CURVE SMOOTH",
"757 665 OFFCURVE",
"719 682 OFFCURVE",
"678 682 CURVE SMOOTH",
"638 682 OFFCURVE",
"606 669 OFFCURVE",
"598 628 CURVE",
"527 207 LINE",
"524 80 OFFCURVE",
"578 -6 OFFCURVE",
"697 -5 CURVE SMOOTH"
);
}
);
width = 790;
}
);
note = A;
unicode = 0041;
},
{
color = 3;
glyphname = AE;
lastChange = "2016-07-25 22:43:19 +0000";
layers = (
{
background = {
paths = (
{
closed = 1;
nodes = (
"438 -4 OFFCURVE",
"527 64 OFFCURVE",
"581 237 CURVE",
"679 626 LINE",
"556 431 LINE",
"498 220 OFFCURVE",
"434 117 OFFCURVE",
"338 117 CURVE SMOOTH",
"270 117 OFFCURVE",
"217 167 OFFCURVE",
"217 290 CURVE SMOOTH",
"217 514 OFFCURVE",
"337 698 OFFCURVE",
"568 726 CURVE SMOOTH",
"625 733 OFFCURVE",
"647 855 OFFCURVE",
"530 841 CURVE SMOOTH",
"246 807 OFFCURVE",
"65 576 OFFCURVE",
"65 280 CURVE SMOOTH",
"65 97 OFFCURVE",
"166 -4 OFFCURVE",
"315 -4 CURVE SMOOTH"
);
},
{
closed = 1;
nodes = (
"1059 712 OFFCURVE",
"1089 746 OFFCURVE",
"1089 787 CURVE SMOOTH",
"1089 824 OFFCURVE",
"1064 849 OFFCURVE",
"1005 849 CURVE SMOOTH",
"929 849 OFFCURVE",
"859 845 OFFCURVE",
"805 842 CURVE SMOOTH",
"718 837 OFFCURVE",
"657 801 OFFCURVE",
"627 691 CURVE SMOOTH",
"556 431 LINE",
"547 264 LINE",
"536 108 OFFCURVE",
"623 -5 OFFCURVE",
"853 -5 CURVE SMOOTH",
"899 -5 OFFCURVE",
"964 5 OFFCURVE",
"1024 22 CURVE SMOOTH",
"1132 53 OFFCURVE",
"1132 170 OFFCURVE",
"1032 149 CURVE SMOOTH",
"979 138 OFFCURVE",
"925 125 OFFCURVE",
"871 125 CURVE SMOOTH",
"693 125 OFFCURVE",
"672 223 OFFCURVE",
"702 355 CURVE",
"811 357 OFFCURVE",
"859 358 OFFCURVE",
"937 361 CURVE SMOOTH",
"1000 363 OFFCURVE",
"1023 390 OFFCURVE",
"1023 436 CURVE SMOOTH",
"1023 464 OFFCURVE",
"1008 490 OFFCURVE",
"959 490 CURVE SMOOTH",
"888 490 OFFCURVE",
"815 486 OFFCURVE",
"726 483 CURVE",
"742 556 OFFCURVE",
"764 643 OFFCURVE",
"784 703 CURVE",
"825 708 OFFCURVE",
"925 712 OFFCURVE",
"977 712 CURVE SMOOTH"
);
}
);
};
guideLines = (
{
angle = 254.6088;
position = "{603, 602}";
}
);
layerId = "ECEFE970-1BBB-4E0A-A452-CEB55884B4A3";
paths = (
{
closed = 1;
nodes = (
"438 -4 OFFCURVE",
"529 64 OFFCURVE",
"583 237 CURVE",
"679 626 LINE",
"556 431 LINE",
"498 220 OFFCURVE",
"434 117 OFFCURVE",
"336 117 CURVE SMOOTH",
"270 117 OFFCURVE",
"217 167 OFFCURVE",
"217 290 CURVE SMOOTH",
"217 514 OFFCURVE",
"337 698 OFFCURVE",
"568 726 CURVE SMOOTH",
"625 733 OFFCURVE",
"647 857 OFFCURVE",
"530 843 CURVE SMOOTH",
"246 809 OFFCURVE",
"65 576 OFFCURVE",
"65 280 CURVE SMOOTH",
"65 97 OFFCURVE",
"166 -4 OFFCURVE",
"315 -4 CURVE SMOOTH"
);
},
{
closed = 1;
nodes = (
"1059 720 OFFCURVE",
"1089 751 OFFCURVE",
"1089 787 CURVE SMOOTH",
"1089 824 OFFCURVE",
"1064 849 OFFCURVE",
"1005 849 CURVE SMOOTH",
"929 849 OFFCURVE",
"859 845 OFFCURVE",
"805 842 CURVE SMOOTH",
"718 837 OFFCURVE",
"657 801 OFFCURVE",
"627 691 CURVE SMOOTH",
"556 431 LINE",
"547 264 LINE",
"541 121 OFFCURVE",
"623 -5 OFFCURVE",
"848 -5 CURVE SMOOTH",
"939 -5 OFFCURVE",
"1022 20 OFFCURVE",
"1098 59 CURVE SMOOTH",
"1182 102 OFFCURVE",
"1179 199 OFFCURVE",
"1100 174 CURVE SMOOTH",
"1029 151 OFFCURVE",
"955 120 OFFCURVE",
"871 120 CURVE SMOOTH",
"704 120 OFFCURVE",
"668 212 OFFCURVE",
"702 361 CURVE",
"811 363 OFFCURVE",
"859 365 OFFCURVE",
"937 367 CURVE SMOOTH",
"1000 369 OFFCURVE",
"1023 396 OFFCURVE",
"1023 436 CURVE SMOOTH",
"1023 464 OFFCURVE",
"1008 490 OFFCURVE",
"959 490 CURVE SMOOTH",
"888 490 OFFCURVE",
"815 486 OFFCURVE",
"726 483 CURVE",
"742 556 OFFCURVE",
"764 651 OFFCURVE",
"784 713 CURVE",
"825 716 OFFCURVE",
"925 720 OFFCURVE",
"977 720 CURVE SMOOTH"
);
}
);
width = 1023;
}
);
leftMetricsKey = A;
note = AE;
unicode = 00C6;
},
{
color = 3;
glyphname = B;
lastChange = "2016-07-26 11:02:15 +0000";
layers = (
{
background = {
paths = (
{
closed = 1;
nodes = (
"2404 -6 OFFCURVE",
"2659 70 OFFCURVE",
"2659 251 CURVE SMOOTH",
"2659 328 OFFCURVE",
"2624 367 OFFCURVE",
"2517 420 CURVE",
"2516 389 LINE",
"2673 418 OFFCURVE",
"2767 504 OFFCURVE",
"2767 625 CURVE SMOOTH",
"2767 789 OFFCURVE",
"2582 845 OFFCURVE",
"2405 845 CURVE SMOOTH",
"2225 845 OFFCURVE",
"2019 765 OFFCURVE",
"1906 637 CURVE SMOOTH",
"1891 620 OFFCURVE",
"1881 604 OFFCURVE",
"1881 593 CURVE SMOOTH",
"1881 574 OFFCURVE",
"1905 562 OFFCURVE",
"1929 562 CURVE SMOOTH",
"1950 562 OFFCURVE",
"1972 571 OFFCURVE",
"1985 587 CURVE SMOOTH",
"2058 677 OFFCURVE",
"2200 761 OFFCURVE",
"2387 761 CURVE SMOOTH",
"2545 761 OFFCURVE",
"2636 694 OFFCURVE",
"2636 598 CURVE SMOOTH",
"2636 488 OFFCURVE",
"2525 449 OFFCURVE",
"2394 449 CURVE SMOOTH",
"2356 449 OFFCURVE",
"2313 427 OFFCURVE",
"2313 397 CURVE SMOOTH",
"2313 377 OFFCURVE",
"2336 369 OFFCURVE",
"2355 366 CURVE SMOOTH",
"2479 346 OFFCURVE",
"2526 286 OFFCURVE",
"2526 229 CURVE SMOOTH",
"2526 131 OFFCURVE",
"2415 78 OFFCURVE",
"2199 78 CURVE SMOOTH",
"2016 78 OFFCURVE",
"1951 114 OFFCURVE",
"1951 181 CURVE SMOOTH",
"1951 217 OFFCURVE",
"1978 248 OFFCURVE",
"2013 264 CURVE SMOOTH",
"2046 279 OFFCURVE",
"2036 340 OFFCURVE",
"1992 340 CURVE SMOOTH",
"1952 340 OFFCURVE",
"1869 276 OFFCURVE",
"1869 185 CURVE SMOOTH",
"1869 45 OFFCURVE",
"2010 -6 OFFCURVE",
"2187 -6 CURVE SMOOTH"
);
},
{
closed = 1;
nodes = (
"2150 -89 OFFCURVE",
"2193 -62 OFFCURVE",
"2193 -21 CURVE SMOOTH",
"2193 -14 OFFCURVE",
"2193 11 OFFCURVE",
"2193 38 CURVE SMOOTH",
"2193 171 OFFCURVE",
"2204 303 OFFCURVE",
"2227 433 CURVE SMOOTH",
"2239 500 OFFCURVE",
"2256 564 OFFCURVE",
"2276 629 CURVE SMOOTH",
"2282 648 OFFCURVE",
"2254 663 OFFCURVE",
"2231 663 CURVE SMOOTH",
"2194 663 OFFCURVE",
"2155 649 OFFCURVE",
"2143 614 CURVE SMOOTH",
"2121 550 OFFCURVE",
"2104 483 OFFCURVE",
"2094 414 CURVE",
"2079 337 OFFCURVE",
"2071 260 OFFCURVE",
"2066 182 CURVE SMOOTH",
"2062 122 OFFCURVE",
"2059 63 OFFCURVE",
"2059 5 CURVE SMOOTH",
"2059 -15 OFFCURVE",
"2060 -35 OFFCURVE",
"2060 -54 CURVE SMOOTH",
"2060 -84 OFFCURVE",
"2079 -89 OFFCURVE",
"2118 -89 CURVE SMOOTH"
);
},
{
closed = 1;
nodes = (
"1126 -4 LINE",
"1144 -5 OFFCURVE",
"1162 -8 OFFCURVE",
"1221 -8 CURVE SMOOTH",
"1510 -8 OFFCURVE",
"1659 93 OFFCURVE",
"1662 241 CURVE SMOOTH",
"1664 328 OFFCURVE",
"1606 385 OFFCURVE",
"1497 405 CURVE",
"1496 386 LINE",
"1684 414 OFFCURVE",
"1776 504 OFFCURVE",
"1777 625 CURVE SMOOTH",
"1778 772 OFFCURVE",
"1626 850 OFFCURVE",
"1414 850 CURVE SMOOTH",
"1249 850 OFFCURVE",
"1086 801 OFFCURVE",
"976 720 CURVE SMOOTH",
"889 656 OFFCURVE",
"931 559 OFFCURVE",
"1023 627 CURVE SMOOTH",
"1100 684 OFFCURVE",
"1237 741 OFFCURVE",
"1394 741 CURVE SMOOTH",
"1532 741 OFFCURVE",
"1622 694 OFFCURVE",
"1620 611 CURVE SMOOTH",
"1618 519 OFFCURVE",
"1521 465 OFFCURVE",
"1373 461 CURVE SMOOTH",
"1334 460 OFFCURVE",
"1315 429 OFFCURVE",
"1314 397 CURVE SMOOTH",
"1313 366 OFFCURVE",
"1323 353 OFFCURVE",
"1353 352 CURVE SMOOTH",
"1478 348 OFFCURVE",
"1507 296 OFFCURVE",
"1506 249 CURVE SMOOTH",
"1504 171 OFFCURVE",
"1437 101 OFFCURVE",
"1225 101 CURVE SMOOTH",
"1201 101 OFFCURVE",
"1153 106 OFFCURVE",
"1128 108 CURVE"
);
},
{
closed = 1;
nodes = (
"1143 -91 OFFCURVE",
"1187 -64 OFFCURVE",
"1187 -23 CURVE SMOOTH",
"1187 -16 OFFCURVE",
"1187 9 OFFCURVE",
"1187 36 CURVE SMOOTH",
"1187 226 OFFCURVE",
"1225 464 OFFCURVE",
"1264 582 CURVE SMOOTH",
"1279 628 OFFCURVE",
"1231 643 OFFCURVE",
"1208 643 CURVE SMOOTH",
"1161 643 OFFCURVE",
"1123 630 OFFCURVE",
"1114 594 CURVE SMOOTH",
"1066 402 OFFCURVE",
"1041 190 OFFCURVE",
"1035 -26 CURVE SMOOTH",
"1034 -65 OFFCURVE",
"1052 -91 OFFCURVE",
"1101 -91 CURVE SMOOTH"
);
},
{
closed = 1;
nodes = (
"226 7 LINE",
"244 6 OFFCURVE",
"262 3 OFFCURVE",
"321 3 CURVE SMOOTH",
"612 3 OFFCURVE",
"767 104 OFFCURVE",
"767 252 CURVE SMOOTH",
"767 338 OFFCURVE",
"705 394 OFFCURVE",
"597 414 CURVE",
"596 395 LINE",
"775 423 OFFCURVE",
"877 516 OFFCURVE",
"877 640 CURVE SMOOTH",
"877 765 OFFCURVE",
"754 862 OFFCURVE",
"514 862 CURVE SMOOTH",
"357 862 OFFCURVE",
"198 822 OFFCURVE",
"78 745 CURVE SMOOTH",
"-19 683 OFFCURVE",
"30 578 OFFCURVE",
"123 641 CURVE SMOOTH",
"202 694 OFFCURVE",
"341 744 OFFCURVE",
"493 744 CURVE SMOOTH",
"650 744 OFFCURVE",
"715 692 OFFCURVE",
"715 623 CURVE SMOOTH",
"715 529 OFFCURVE",
"607 474 OFFCURVE",
"473 470 CURVE SMOOTH",
"434 469 OFFCURVE",
"415 438 OFFCURVE",
"414 406 CURVE SMOOTH",
"413 375 OFFCURVE",
"423 362 OFFCURVE",
"453 361 CURVE SMOOTH",
"573 357 OFFCURVE",
"606 307 OFFCURVE",
"606 260 CURVE SMOOTH",
"606 181 OFFCURVE",
"536 112 OFFCURVE",
"325 112 CURVE SMOOTH",
"301 112 OFFCURVE",
"253 117 OFFCURVE",
"228 119 CURVE"
);
},
{
closed = 1;
nodes = (
"226 -52 OFFCURVE",
"273 -33 OFFCURVE",
"273 18 CURVE SMOOTH",
"273 25 OFFCURVE",
"274 20 OFFCURVE",
"275 47 CURVE SMOOTH",
"282 227 OFFCURVE",
"331 472 OFFCURVE",
"371 591 CURVE SMOOTH",
"373 597 OFFCURVE",
"374 603 OFFCURVE",
"374 608 CURVE SMOOTH",
"374 641 OFFCURVE",
"337 652 OFFCURVE",
"317 652 CURVE SMOOTH",
"270 652 OFFCURVE",
"228 639 OFFCURVE",
"218 603 CURVE SMOOTH",
"165 411 OFFCURVE",
"129 199 OFFCURVE",
"117 13 CURVE SMOOTH",
"114 -26 OFFCURVE",
"132 -52 OFFCURVE",
"184 -52 CURVE SMOOTH"
);
}
);
};
layerId = "ECEFE970-1BBB-4E0A-A452-CEB55884B4A3";
paths = (
{
closed = 1;
nodes = (
"226 7 LINE",
"244 6 OFFCURVE",
"262 3 OFFCURVE",
"321 3 CURVE SMOOTH",
"612 3 OFFCURVE",
"764 104 OFFCURVE",
"764 251 CURVE SMOOTH",
"764 338 OFFCURVE",
"703 394 OFFCURVE",
"597 414 CURVE",
"596 395 LINE",
"775 423 OFFCURVE",
"874 516 OFFCURVE",
"874 640 CURVE SMOOTH",
"874 765 OFFCURVE",
"754 862 OFFCURVE",
"514 862 CURVE SMOOTH",
"357 862 OFFCURVE",
"198 825 OFFCURVE",
"93 764 CURVE SMOOTH",
"43 735 OFFCURVE",
"25 704 OFFCURVE",
"25 675 CURVE SMOOTH",
"25 638 OFFCURVE",
"64 616 OFFCURVE",
"123 651 CURVE SMOOTH",
"202 698 OFFCURVE",
"341 744 OFFCURVE",
"493 744 CURVE SMOOTH",
"650 744 OFFCURVE",
"715 692 OFFCURVE",
"715 623 CURVE SMOOTH",
"715 529 OFFCURVE",
"607 474 OFFCURVE",
"473 470 CURVE SMOOTH",
"434 469 OFFCURVE",
"415 438 OFFCURVE",
"414 406 CURVE SMOOTH",
"413 375 OFFCURVE",
"423 362 OFFCURVE",
"453 361 CURVE SMOOTH",
"573 357 OFFCURVE",
"606 307 OFFCURVE",
"606 260 CURVE SMOOTH",
"606 181 OFFCURVE",
"536 112 OFFCURVE",
"325 112 CURVE SMOOTH",
"301 112 OFFCURVE",
"253 117 OFFCURVE",
"228 119 CURVE"
);
},
{
closed = 1;
nodes = (
"226 -52 OFFCURVE",
"273 -33 OFFCURVE",
"273 18 CURVE SMOOTH",
"273 25 OFFCURVE",
"274 20 OFFCURVE",
"275 47 CURVE SMOOTH",
"282 227 OFFCURVE",
"331 472 OFFCURVE",
"371 591 CURVE SMOOTH",
"373 597 OFFCURVE",
"374 603 OFFCURVE",
"374 608 CURVE SMOOTH",
"374 641 OFFCURVE",
"337 652 OFFCURVE",
"307 652 CURVE SMOOTH",
"270 652 OFFCURVE",
"228 639 OFFCURVE",
"218 603 CURVE SMOOTH",
"165 411 OFFCURVE",
"129 199 OFFCURVE",
"117 13 CURVE SMOOTH",
"114 -26 OFFCURVE",
"132 -52 OFFCURVE",
"184 -52 CURVE SMOOTH"
);
}
);
width = 827;
}
);
note = B;
unicode = 0042;
},
{
color = 3;
glyphname = C;
lastChange = "2016-07-26 09:25:28 +0000";
layers = (
{
background = {
paths = (
{
closed = 1;
nodes = (
"310 119 OFFCURVE",
"220 221 OFFCURVE",
"220 383 CURVE SMOOTH",
"220 604 OFFCURVE",
"357 730 OFFCURVE",
"481 730 CURVE SMOOTH",
"542 730 OFFCURVE",
"569 694 OFFCURVE",
"569 635 CURVE SMOOTH",
"569 611 OFFCURVE",
"559 584 OFFCURVE",
"559 562 CURVE SMOOTH",
"559 526 OFFCURVE",
"583 506 OFFCURVE",
"619 506 CURVE SMOOTH",
"686 506 OFFCURVE",
"714 567 OFFCURVE",
"714 646 CURVE SMOOTH",
"714 762 OFFCURVE",
"642 848 OFFCURVE",
"500 848 CURVE SMOOTH",
"276 848 OFFCURVE",
"69 663 OFFCURVE",
"69 361 CURVE SMOOTH",
"69 146 OFFCURVE",
"210 -5 OFFCURVE",
"445 -5 CURVE SMOOTH",
"558 -5 OFFCURVE",
"688 29 OFFCURVE",
"804 121 CURVE SMOOTH",
"862 167 OFFCURVE",
"835 265 OFFCURVE",
"767 218 CURVE SMOOTH",
"672 152 OFFCURVE",
"568 119 OFFCURVE",
"468 119 CURVE SMOOTH"
);
}
);
};
layerId = "ECEFE970-1BBB-4E0A-A452-CEB55884B4A3";
paths = (
{
closed = 1;
nodes = (
"310 119 OFFCURVE",
"220 221 OFFCURVE",
"220 383 CURVE SMOOTH",
"220 604 OFFCURVE",
"357 730 OFFCURVE",
"477 730 CURVE SMOOTH",
"542 730 OFFCURVE",
"569 694 OFFCURVE",
"569 635 CURVE SMOOTH",
"569 611 OFFCURVE",
"559 584 OFFCURVE",
"559 562 CURVE SMOOTH",
"559 526 OFFCURVE",
"583 506 OFFCURVE",
"619 506 CURVE SMOOTH",
"686 506 OFFCURVE",
"714 567 OFFCURVE",
"714 646 CURVE SMOOTH",
"714 762 OFFCURVE",
"642 848 OFFCURVE",
"490 848 CURVE SMOOTH",
"252 848 OFFCURVE",
"69 641 OFFCURVE",
"69 361 CURVE SMOOTH",
"69 146 OFFCURVE",
"210 -5 OFFCURVE",
"445 -5 CURVE SMOOTH",
"558 -5 OFFCURVE",
"688 29 OFFCURVE",
"804 121 CURVE SMOOTH",
"862 167 OFFCURVE",
"835 265 OFFCURVE",
"767 218 CURVE SMOOTH",
"672 152 OFFCURVE",
"568 119 OFFCURVE",
"468 119 CURVE SMOOTH"
);
}
);
width = 693;
}
);
note = C;
unicode = 0043;
},
{
color = 3;
glyphname = D;
lastChange = "2016-07-26 14:45:26 +0000";
layers = (
{
background = {
paths = (
{
closed = 1;
nodes = (
"1126 -52 OFFCURVE",
"1173 -33 OFFCURVE",
"1173 18 CURVE SMOOTH",
"1173 25 OFFCURVE",
"1174 20 OFFCURVE",
"1175 47 CURVE SMOOTH",
"1182 227 OFFCURVE",
"1231 472 OFFCURVE",
"1271 591 CURVE SMOOTH",
"1273 597 OFFCURVE",
"1274 603 OFFCURVE",
"1274 608 CURVE SMOOTH",
"1274 641 OFFCURVE",
"1237 652 OFFCURVE",
"1217 652 CURVE SMOOTH",
"1170 652 OFFCURVE",
"1128 639 OFFCURVE",
"1118 603 CURVE SMOOTH",
"1065 411 OFFCURVE",
"1031 199 OFFCURVE",
"1017 13 CURVE SMOOTH",
"1014 -26 OFFCURVE",
"1032 -52 OFFCURVE",
"1084 -52 CURVE SMOOTH"
);
},
{
closed = 1;
nodes = (
"1227 860 OFFCURVE",
"1098 830 OFFCURVE",
"993 764 CURVE SMOOTH",
"888 698 OFFCURVE",
"916 582 OFFCURVE",
"1023 651 CURVE SMOOTH",
"1102 702 OFFCURVE",
"1211 742 OFFCURVE",
"1333 742 CURVE SMOOTH",
"1492 742 OFFCURVE",
"1581 655 OFFCURVE",
"1581 480 CURVE SMOOTH",
"1581 255 OFFCURVE",
"1442 120 OFFCURVE",
"1235 120 CURVE SMOOTH",
"1201 120 OFFCURVE",
"1153 125 OFFCURVE",
"1128 127 CURVE",
"1126 7 LINE",
"1144 5 OFFCURVE",
"1162 1 OFFCURVE",
"1221 1 CURVE SMOOTH",
"1541 1 OFFCURVE",
"1730 217 OFFCURVE",
"1730 495 CURVE SMOOTH",
"1730 704 OFFCURVE",
"1606 860 OFFCURVE",
"1334 860 CURVE SMOOTH"
);
},
{
closed = 1;
nodes = (
"641 3 OFFCURVE",
"830 217 OFFCURVE",
"830 498 CURVE SMOOTH",
"830 714 OFFCURVE",
"704 860 OFFCURVE",
"454 860 CURVE SMOOTH",
"407 860 OFFCURVE",
"363 857 OFFCURVE",
"326 848 CURVE SMOOTH",
"298 841 OFFCURVE",
"277 823 OFFCURVE",
"269 798 CURVE SMOOTH",
"199 578 OFFCURVE",
"142 322 OFFCURVE",
"123 76 CURVE SMOOTH",
"120 37 OFFCURVE",
"137 20 OFFCURVE",
"190 13 CURVE SMOOTH",
"241 6 OFFCURVE",
"270 3 OFFCURVE",
"321 3 CURVE SMOOTH"
);
},
{
closed = 1;
nodes = (
"319 120 OFFCURVE",
"299 121 OFFCURVE",
"278 123 CURVE",
"294 315 OFFCURVE",
"357 577 OFFCURVE",
"408 741 CURVE",
"419 742 OFFCURVE",
"430 742 OFFCURVE",
"441 742 CURVE SMOOTH",
"594 742 OFFCURVE",
"681 665 OFFCURVE",
"681 483 CURVE SMOOTH",
"681 255 OFFCURVE",
"542 120 OFFCURVE",
"335 120 CURVE SMOOTH"
);
}
);
};
layerId = "ECEFE970-1BBB-4E0A-A452-CEB55884B4A3";
paths = (
{
closed = 1;
nodes = (
"327 860 OFFCURVE",
"198 830 OFFCURVE",
"93 764 CURVE SMOOTH",
"-12 698 OFFCURVE",
"16 582 OFFCURVE",
"123 651 CURVE SMOOTH",
"202 702 OFFCURVE",
"311 742 OFFCURVE",
"433 742 CURVE SMOOTH",
"589 742 OFFCURVE",
"681 655 OFFCURVE",
"681 476 CURVE SMOOTH",
"681 247 OFFCURVE",
"542 112 OFFCURVE",
"335 112 CURVE SMOOTH",
"319 112 OFFCURVE",
"298 113 OFFCURVE",
"278 115 CURVE",
"294 283 OFFCURVE",
"336 488 OFFCURVE",
"371 591 CURVE SMOOTH",
"373 597 OFFCURVE",
"374 603 OFFCURVE",
"374 608 CURVE SMOOTH",
"374 641 OFFCURVE",
"337 652 OFFCURVE",
"317 652 CURVE SMOOTH",
"270 652 OFFCURVE",
"228 639 OFFCURVE",
"218 603 CURVE SMOOTH",
"165 411 OFFCURVE",
"138 244 OFFCURVE",
"124 78 CURVE SMOOTH",
"120 29 OFFCURVE",
"137 12 OFFCURVE",
"190 5 CURVE SMOOTH",
"241 -2 OFFCURVE",
"270 -5 OFFCURVE",
"321 -5 CURVE SMOOTH",
"641 -5 OFFCURVE",
"830 209 OFFCURVE",
"830 491 CURVE SMOOTH",
"830 704 OFFCURVE",
"703 860 OFFCURVE",
"434 860 CURVE SMOOTH"
);
}
);
width = 831;
}
);
note = D;
unicode = 0044;
},
{
color = 3;
glyphname = Eth;
lastChange = "2016-07-22 19:45:03 +0000";
layers = (
{
background = {
paths = (
{
closed = 1;
nodes = (
"621 -5 OFFCURVE",
"810 209 OFFCURVE",
"810 494 CURVE SMOOTH",
"810 714 OFFCURVE",
"674 860 OFFCURVE",
"434 860 CURVE SMOOTH",
"387 860 OFFCURVE",
"343 857 OFFCURVE",
"306 848 CURVE SMOOTH",
"278 841 OFFCURVE",
"257 823 OFFCURVE",
"249 798 CURVE SMOOTH",
"177 579 OFFCURVE",
"123 314 OFFCURVE",
"104 78 CURVE SMOOTH",
"100 29 OFFCURVE",
"117 12 OFFCURVE",
"170 5 CURVE SMOOTH",
"221 -2 OFFCURVE",
"250 -5 OFFCURVE",
"301 -5 CURVE SMOOTH"
);
},
{
closed = 1;
nodes = (
"506 381 OFFCURVE",
"515 414 OFFCURVE",
"515 448 CURVE SMOOTH",
"515 484 OFFCURVE",
"496 503 OFFCURVE",
"406 503 CURVE SMOOTH",
"322 503 OFFCURVE",
"295 505 OFFCURVE",
"153 505 CURVE SMOOTH",
"69 505 OFFCURVE",
"30 484 OFFCURVE",
"30 429 CURVE SMOOTH",
"30 404 OFFCURVE",
"42 383 OFFCURVE",
"80 383 CURVE SMOOTH",
"136 383 OFFCURVE",
"158 384 OFFCURVE",
"250 384 CURVE SMOOTH",
"304 384 OFFCURVE",
"397 381 OFFCURVE",
"452 381 CURVE SMOOTH"
);
},
{
closed = 1;
nodes = (
"299 112 OFFCURVE",
"279 113 OFFCURVE",
"258 115 CURVE",
"274 307 OFFCURVE",
"337 577 OFFCURVE",
"388 741 CURVE",
"399 742 OFFCURVE",
"410 742 OFFCURVE",
"421 742 CURVE SMOOTH",
"564 742 OFFCURVE",
"661 665 OFFCURVE",
"661 479 CURVE SMOOTH",
"661 247 OFFCURVE",
"522 112 OFFCURVE",
"315 112 CURVE SMOOTH"
);
}
);
};
layerId = "ECEFE970-1BBB-4E0A-A452-CEB55884B4A3";
paths = (
{
closed = 1;
nodes = (
"626 -5 OFFCURVE",
"818 209 OFFCURVE",
"818 494 CURVE SMOOTH",
"818 714 OFFCURVE",
"679 860 OFFCURVE",
"439 860 CURVE SMOOTH",
"387 860 OFFCURVE",
"343 857 OFFCURVE",
"306 848 CURVE SMOOTH",
"278 841 OFFCURVE",
"257 823 OFFCURVE",
"249 798 CURVE SMOOTH",
"177 579 OFFCURVE",
"123 314 OFFCURVE",
"104 78 CURVE SMOOTH",
"100 29 OFFCURVE",
"117 12 OFFCURVE",
"170 5 CURVE SMOOTH",
"221 -2 OFFCURVE",
"250 -5 OFFCURVE",
"306 -5 CURVE SMOOTH"
);
},
{
closed = 1;
nodes = (
"506 381 OFFCURVE",
"515 414 OFFCURVE",
"515 448 CURVE SMOOTH",
"515 484 OFFCURVE",
"496 503 OFFCURVE",
"406 503 CURVE SMOOTH",
"322 503 OFFCURVE",
"295 505 OFFCURVE",
"153 505 CURVE SMOOTH",
"69 505 OFFCURVE",
"30 484 OFFCURVE",
"30 429 CURVE SMOOTH",
"30 404 OFFCURVE",
"42 383 OFFCURVE",
"80 383 CURVE SMOOTH",
"136 383 OFFCURVE",
"158 384 OFFCURVE",
"250 384 CURVE SMOOTH",
"304 384 OFFCURVE",
"397 381 OFFCURVE",
"452 381 CURVE SMOOTH"
);
},
{
closed = 1;
nodes = (
"301 110 OFFCURVE",
"281 111 OFFCURVE",
"260 113 CURVE",
"276 305 OFFCURVE",
"337 579 OFFCURVE",
"388 743 CURVE",
"399 744 OFFCURVE",
"410 744 OFFCURVE",
"426 744 CURVE SMOOTH",
"569 744 OFFCURVE",
"669 667 OFFCURVE",
"669 479 CURVE SMOOTH",
"669 247 OFFCURVE",
"527 110 OFFCURVE",
"322 110 CURVE SMOOTH"
);
}
);
width = 829;
}
);
note = Eth;
rightMetricsKey = O;
unicode = 00D0;
},
{
color = 3;
glyphname = E;
lastChange = "2016-07-25 08:09:12 +0000";
layers = (
{
background = {
paths = (
{
closed = 1;
nodes = (
"1426 733 OFFCURVE",
"1463 705 OFFCURVE",
"1490 653 CURVE SMOOTH",
"1511 613 OFFCURVE",
"1530 596 OFFCURVE",
"1569 596 CURVE SMOOTH",
"1611 596 OFFCURVE",
"1635 625 OFFCURVE",
"1635 664 CURVE SMOOTH",
"1635 754 OFFCURVE",
"1542 848 OFFCURVE",
"1362 848 CURVE SMOOTH",
"1181 848 OFFCURVE",
"1037 753 OFFCURVE",
"1037 603 CURVE SMOOTH",
"1037 527 OFFCURVE",
"1096 450 OFFCURVE",
"1205 441 CURVE",
"1206 460 LINE",
"1034 432 OFFCURVE",
"940 341 OFFCURVE",
"940 215 CURVE SMOOTH",
"940 90 OFFCURVE",
"1059 -5 OFFCURVE",
"1303 -5 CURVE SMOOTH",
"1445 -5 OFFCURVE",
"1596 46 OFFCURVE",
"1691 121 CURVE SMOOTH",
"1749 167 OFFCURVE",
"1722 265 OFFCURVE",
"1654 218 CURVE SMOOTH",
"1578 166 OFFCURVE",
"1455 121 OFFCURVE",
"1314 121 CURVE SMOOTH",
"1165 121 OFFCURVE",
"1099 165 OFFCURVE",
"1099 239 CURVE SMOOTH",
"1099 309 OFFCURVE",
"1161 380 OFFCURVE",
"1330 384 CURVE SMOOTH",
"1369 385 OFFCURVE",
"1388 417 OFFCURVE",
"1389 449 CURVE SMOOTH",
"1390 480 OFFCURVE",
"1380 494 OFFCURVE",
"1350 495 CURVE SMOOTH",
"1226 499 OFFCURVE",
"1191 548 OFFCURVE",
"1191 600 CURVE SMOOTH",
"1191 677 OFFCURVE",
"1258 733 OFFCURVE",
"1356 733 CURVE SMOOTH"
);
},
{
closed = 1;
nodes = (
"81 211 CURVE SMOOTH",
"80 111 OFFCURVE",
"148 16 OFFCURVE",
"299 6 CURVE SMOOTH",
"485 -6 OFFCURVE",
"649 107 OFFCURVE",
"729 187 CURVE SMOOTH",
"738 196 OFFCURVE",
"741 207 OFFCURVE",
"741 218 CURVE SMOOTH",
"741 243 OFFCURVE",
"725 273 OFFCURVE",
"699 273 CURVE SMOOTH",
"689 273 OFFCURVE",
"678 267 OFFCURVE",
"666 255 CURVE SMOOTH",
"580 169 OFFCURVE",
"451 106 OFFCURVE",
"350 105 CURVE SMOOTH",
"274 104 OFFCURVE",
"216 135 OFFCURVE",
"207 213 CURVE SMOOTH",
"197 299 OFFCURVE",
"259 388 OFFCURVE",
"432 396 CURVE SMOOTH",
"476 398 OFFCURVE",
"486 420 OFFCURVE",
"486 448 CURVE SMOOTH",
"486 468 OFFCURVE",
"473 492 OFFCURVE",
"447 496 CURVE SMOOTH",
"328 514 OFFCURVE",
"290 540 OFFCURVE",
"290 624 CURVE SMOOTH",
"290 768 OFFCURVE",
"517 807 OFFCURVE",
"607 732 CURVE",
"545 714 OFFCURVE",
"543 666 OFFCURVE",
"557 634 CURVE SMOOTH",
"567 612 OFFCURVE",
"593 599 OFFCURVE",
"622 600 CURVE SMOOTH",
"660 601 OFFCURVE",
"701 627 OFFCURVE",
"698 689 CURVE SMOOTH",
"693 794 OFFCURVE",
"579 848 OFFCURVE",
"457 848 CURVE SMOOTH",
"312 848 OFFCURVE",
"157 772 OFFCURVE",
"159 615 CURVE SMOOTH",
"160 531 OFFCURVE",
"225 457 OFFCURVE",
"357 454 CURVE",
"181 457 OFFCURVE",
"82 331 OFFCURVE"
);
}
);
};
layerId = "ECEFE970-1BBB-4E0A-A452-CEB55884B4A3";
paths = (
{
closed = 1;
nodes = (
"526 733 OFFCURVE",
"568 705 OFFCURVE",
"584 656 CURVE SMOOTH",
"598 614 OFFCURVE",
"625 596 OFFCURVE",
"662 596 CURVE SMOOTH",
"706 596 OFFCURVE",
"730 625 OFFCURVE",
"730 664 CURVE SMOOTH",
"730 754 OFFCURVE",
"642 848 OFFCURVE",
"463 848 CURVE SMOOTH",
"281 848 OFFCURVE",
"137 753 OFFCURVE",
"137 603 CURVE SMOOTH",
"137 527 OFFCURVE",
"196 450 OFFCURVE",
"305 441 CURVE",
"306 460 LINE",
"134 432 OFFCURVE",
"40 341 OFFCURVE",
"40 215 CURVE SMOOTH",
"40 90 OFFCURVE",
"159 -5 OFFCURVE",
"403 -5 CURVE SMOOTH",
"545 -5 OFFCURVE",
"696 46 OFFCURVE",
"791 121 CURVE SMOOTH",
"849 167 OFFCURVE",
"822 265 OFFCURVE",
"754 218 CURVE SMOOTH",
"678 166 OFFCURVE",
"555 121 OFFCURVE",
"414 121 CURVE SMOOTH",
"265 121 OFFCURVE",
"199 165 OFFCURVE",
"199 239 CURVE SMOOTH",
"199 309 OFFCURVE",
"261 380 OFFCURVE",
"430 384 CURVE SMOOTH",
"469 385 OFFCURVE",
"488 417 OFFCURVE",
"489 449 CURVE SMOOTH",
"490 480 OFFCURVE",
"480 494 OFFCURVE",
"450 495 CURVE SMOOTH",
"326 499 OFFCURVE",
"291 548 OFFCURVE",
"291 600 CURVE SMOOTH",
"291 677 OFFCURVE",
"358 733 OFFCURVE",
"456 733 CURVE SMOOTH"
);
}
);
width = 680;
}
);
note = E;
unicode = 0045;
},
{
color = 3;
glyphname = F;
lastChange = "2016-07-26 08:12:33 +0000";
layers = (
{
background = {
paths = (
{
closed = 1;
nodes = (
"1049 591 OFFCURVE",
"1171 550 OFFCURVE",
"1208 613 CURVE SMOOTH",
"1253 690 OFFCURVE",
"1319 724 OFFCURVE",
"1582 724 CURVE SMOOTH",
"1701 724 OFFCURVE",
"1763 719 OFFCURVE",
"1867 711 CURVE SMOOTH",
"1921 707 OFFCURVE",
"1944 730 OFFCURVE",
"1944 774 CURVE SMOOTH",
"1944 798 OFFCURVE",
"1926 822 OFFCURVE",
"1882 830 CURVE SMOOTH",
"1818 842 OFFCURVE",
"1740 847 OFFCURVE",
"1632 847 CURVE SMOOTH",
"1327 847 OFFCURVE",
"1180 790 OFFCURVE",
"1105 676 CURVE SMOOTH"
);
},
{
closed = 1;
nodes = (
"1255 336 OFFCURVE",
"1358 341 OFFCURVE",
"1403 341 CURVE SMOOTH",
"1440 341 OFFCURVE",
"1604 340 OFFCURVE",
"1649 340 CURVE SMOOTH",
"1700 340 OFFCURVE",
"1726 369 OFFCURVE",
"1726 413 CURVE SMOOTH",
"1726 438 OFFCURVE",
"1699 461 OFFCURVE",
"1664 461 CURVE SMOOTH",
"1621 461 OFFCURVE",
"1272 454 OFFCURVE",
"1238 454 CURVE SMOOTH",
"1195 454 OFFCURVE",
"1170 425 OFFCURVE",
"1170 381 CURVE SMOOTH",
"1170 337 OFFCURVE",
"1200 333 OFFCURVE",
"1221 334 CURVE SMOOTH"
);
},
{
closed = 1;
nodes = (
"1408 739 LINE",
"1400 668 OFFCURVE",
"1392 624 OFFCURVE",
"1386 571 CURVE SMOOTH",
"1332 92 OFFCURVE",
"1237 3 OFFCURVE",
"1181 3 CURVE SMOOTH",
"1147 3 OFFCURVE",
"1129 28 OFFCURVE",
"1130 64 CURVE SMOOTH",
"1133 181 OFFCURVE",
"1248 285 OFFCURVE",
"1461 369 CURVE",
"1461 416 LINE",
"1219 356 OFFCURVE",
"1001 224 OFFCURVE",
"1001 45 CURVE SMOOTH",
"1001 -42 OFFCURVE",
"1066 -107 OFFCURVE",
"1169 -107 CURVE SMOOTH",
"1331 -107 OFFCURVE",
"1471 83 OFFCURVE",
"1534 556 CURVE SMOOTH",
"1547 653 OFFCURVE",
"1552 682 OFFCURVE",
"1558 739 CURVE"
);
},
{
closed = 1;
nodes = (
"367 -8 OFFCURVE",
"456 79 OFFCURVE",
"492 297 CURVE SMOOTH",
"529 521 OFFCURVE",
"538 593 OFFCURVE",
"561 765 CURVE",
"411 754 LINE",
"391 601 OFFCURVE",
"382 525 OFFCURVE",
"342 285 CURVE SMOOTH",
"319 148 OFFCURVE",
"274 97 OFFCURVE",
"204 96 CURVE SMOOTH",
"148 95 OFFCURVE",
"94 136 OFFCURVE",
"72 153 CURVE SMOOTH",
"21 191 OFFCURVE",
"-25 106 OFFCURVE",
"15 63 CURVE SMOOTH",
"49 27 OFFCURVE",
"129 -8 OFFCURVE",
"214 -8 CURVE SMOOTH"
);
},
{
closed = 1;
nodes = (
"174 460 OFFCURVE",
"255 510 OFFCURVE",
"231 548 CURVE SMOOTH",
"222 562 OFFCURVE",
"211 585 OFFCURVE",
"211 613 CURVE SMOOTH",
"211 695 OFFCURVE",
"289 724 OFFCURVE",
"582 724 CURVE SMOOTH",
"701 724 OFFCURVE",
"763 719 OFFCURVE",
"867 711 CURVE SMOOTH",
"921 707 OFFCURVE",
"944 730 OFFCURVE",
"944 774 CURVE SMOOTH",
"944 798 OFFCURVE",
"926 822 OFFCURVE",
"882 830 CURVE SMOOTH",
"818 842 OFFCURVE",
"740 847 OFFCURVE",
"632 847 CURVE SMOOTH",
"257 847 OFFCURVE",
"92 781 OFFCURVE",
"92 611 CURVE SMOOTH",
"92 556 OFFCURVE",
"112 513 OFFCURVE",
"138 491 CURVE SMOOTH"
);
},
{
closed = 1;
nodes = (
"345 336 OFFCURVE",
"448 341 OFFCURVE",
"493 341 CURVE SMOOTH",
"530 341 OFFCURVE",
"634 340 OFFCURVE",
"679 340 CURVE SMOOTH",
"730 340 OFFCURVE",
"756 369 OFFCURVE",
"756 413 CURVE SMOOTH",
"756 438 OFFCURVE",
"729 461 OFFCURVE",
"694 461 CURVE SMOOTH",
"651 461 OFFCURVE",
"362 454 OFFCURVE",
"328 454 CURVE SMOOTH",
"285 454 OFFCURVE",
"260 425 OFFCURVE",
"260 381 CURVE SMOOTH",
"260 337 OFFCURVE",
"290 333 OFFCURVE",
"311 334 CURVE SMOOTH"
);
}
);
};
layerId = "ECEFE970-1BBB-4E0A-A452-CEB55884B4A3";
paths = (
{
closed = 1;
nodes = (
"367 -8 OFFCURVE",
"468 89 OFFCURVE",
"502 297 CURVE SMOOTH",
"539 521 OFFCURVE",
"539 593 OFFCURVE",
"555 765 CURVE",
"405 754 LINE",
"392 601 OFFCURVE",
"387 525 OFFCURVE",
"352 285 CURVE SMOOTH",
"333 158 OFFCURVE",
"274 97 OFFCURVE",
"214 96 CURVE SMOOTH",
"160 95 OFFCURVE",
"117 124 OFFCURVE",
"86 166 CURVE SMOOTH",
"35 235 OFFCURVE",
"-17 143 OFFCURVE",
"15 93 CURVE SMOOTH",
"49 40 OFFCURVE",
"129 -8 OFFCURVE",
"224 -8 CURVE SMOOTH"
);
},
{
closed = 1;
nodes = (
"180 455 OFFCURVE",
"264 497 OFFCURVE",
"231 548 CURVE SMOOTH",
"222 562 OFFCURVE",
"211 585 OFFCURVE",
"211 613 CURVE SMOOTH",
"211 695 OFFCURVE",
"299 724 OFFCURVE",
"582 724 CURVE SMOOTH",
"701 724 OFFCURVE",
"763 719 OFFCURVE",
"867 711 CURVE SMOOTH",
"921 707 OFFCURVE",
"944 730 OFFCURVE",
"944 774 CURVE SMOOTH",
"944 798 OFFCURVE",
"926 822 OFFCURVE",
"882 830 CURVE SMOOTH",
"818 842 OFFCURVE",
"740 847 OFFCURVE",
"632 847 CURVE SMOOTH",
"267 847 OFFCURVE",
"92 781 OFFCURVE",
"92 611 CURVE SMOOTH",
"92 556 OFFCURVE",
"112 513 OFFCURVE",
"138 491 CURVE SMOOTH"
);
},
{
closed = 1;
nodes = (
"345 336 OFFCURVE",
"448 341 OFFCURVE",
"493 341 CURVE SMOOTH",
"530 341 OFFCURVE",
"634 340 OFFCURVE",
"679 340 CURVE SMOOTH",
"730 340 OFFCURVE",
"756 369 OFFCURVE",
"756 413 CURVE SMOOTH",
"756 438 OFFCURVE",
"729 461 OFFCURVE",
"694 461 CURVE SMOOTH",
"651 461 OFFCURVE",
"362 454 OFFCURVE",
"328 454 CURVE SMOOTH",
"285 454 OFFCURVE",
"260 425 OFFCURVE",
"260 381 CURVE SMOOTH",
"260 337 OFFCURVE",
"290 333 OFFCURVE",
"311 334 CURVE SMOOTH"
);
}
);
width = 712;
}
);
note = F;
unicode = 0046;
},
{
color = 3;
glyphname = G;
lastChange = "2016-07-26 10:10:20 +0000";
layers = (
{
background = {
paths = (
{
closed = 1;
nodes = (
"338 119 OFFCURVE",
"248 221 OFFCURVE",
"248 383 CURVE SMOOTH",
"248 604 OFFCURVE",
"385 730 OFFCURVE",
"505 730 CURVE SMOOTH",
"570 730 OFFCURVE",
"597 694 OFFCURVE",
"597 635 CURVE SMOOTH",
"597 611 OFFCURVE",
"587 584 OFFCURVE",
"587 562 CURVE SMOOTH",
"587 526 OFFCURVE",
"611 506 OFFCURVE",
"647 506 CURVE SMOOTH",
"714 506 OFFCURVE",
"742 567 OFFCURVE",
"742 646 CURVE SMOOTH",
"742 762 OFFCURVE",
"670 848 OFFCURVE",
"518 848 CURVE SMOOTH",
"280 848 OFFCURVE",
"97 641 OFFCURVE",
"97 361 CURVE SMOOTH",
"97 146 OFFCURVE",
"238 -5 OFFCURVE",
"473 -5 CURVE SMOOTH",
"586 -5 OFFCURVE",
"716 29 OFFCURVE",
"832 121 CURVE SMOOTH",
"890 167 OFFCURVE",
"863 265 OFFCURVE",
"795 218 CURVE SMOOTH",
"700 152 OFFCURVE",
"596 119 OFFCURVE",
"496 119 CURVE SMOOTH"
);
},
{
closed = 1;
nodes = (
"1630 158 LINE",
"1575 128 OFFCURVE",
"1513 118 OFFCURVE",
"1471 118 CURVE SMOOTH",
"1310 118 OFFCURVE",
"1220 218 OFFCURVE",
"1220 383 CURVE SMOOTH",
"1220 604 OFFCURVE",
"1355 730 OFFCURVE",
"1495 730 CURVE SMOOTH",
"1568 730 OFFCURVE",
"1603 701 OFFCURVE",
"1603 650 CURVE SMOOTH",
"1603 624 OFFCURVE",
"1596 601 OFFCURVE",
"1596 585 CURVE SMOOTH",
"1596 547 OFFCURVE",
"1621 527 OFFCURVE",
"1657 527 CURVE SMOOTH",
"1707 527 OFFCURVE",
"1740 570 OFFCURVE",
"1740 654 CURVE SMOOTH",
"1740 770 OFFCURVE",
"1668 848 OFFCURVE",
"1504 848 CURVE SMOOTH",
"1276 848 OFFCURVE",
"1069 663 OFFCURVE",
"1069 363 CURVE SMOOTH",
"1069 143 OFFCURVE",
"1210 -3 OFFCURVE",
"1435 -3 CURVE SMOOTH",
"1494 -3 OFFCURVE",
"1561 12 OFFCURVE",
"1620 44 CURVE"
);
},
{
closed = 1;
nodes = (
"1625 238 OFFCURVE",
"1618 172 OFFCURVE",
"1603 60 CURVE SMOOTH",
"1559 -266 OFFCURVE",
"1497 -355 OFFCURVE",
"1461 -355 CURVE SMOOTH",
"1440 -355 OFFCURVE",
"1432 -337 OFFCURVE",
"1433 -315 CURVE SMOOTH",
"1436 -259 OFFCURVE",
"1480 -175 OFFCURVE",
"1666 -39 CURVE",
"1734 8 OFFCURVE",
"1817 64 OFFCURVE",
"1898 118 CURVE SMOOTH",
"1958 158 OFFCURVE",
"1947 260 OFFCURVE",
"1876 213 CURVE SMOOTH",
"1796 160 OFFCURVE",
"1726 108 OFFCURVE",
"1666 61 CURVE",
"1395 -136 OFFCURVE",
"1335 -250 OFFCURVE",
"1335 -344 CURVE SMOOTH",
"1335 -413 OFFCURVE",
"1381 -455 OFFCURVE",
"1450 -455 CURVE SMOOTH",
"1615 -455 OFFCURVE",
"1705 -181 OFFCURVE",
"1749 102 CURVE SMOOTH",
"1769 231 OFFCURVE",
"1776 290 OFFCURVE",
"1779 330 CURVE SMOOTH",
"1782 368 OFFCURVE",
"1756 386 OFFCURVE",
"1700 386 CURVE SMOOTH",
"1572 386 LINE SMOOTH",
"1502 386 OFFCURVE",
"1469 358 OFFCURVE",
"1469 316 CURVE SMOOTH",
"1469 278 OFFCURVE",
"1499 268 OFFCURVE",
"1547 268 CURVE SMOOTH",
"1672 268 LINE",
"1630 290 LINE"
);
}
);
};
layerId = "ECEFE970-1BBB-4E0A-A452-CEB55884B4A3";
paths = (
{
closed = 1;
nodes = (
"630 158 LINE",
"575 128 OFFCURVE",
"513 118 OFFCURVE",
"471 118 CURVE SMOOTH",
"310 118 OFFCURVE",
"220 218 OFFCURVE",
"220 383 CURVE SMOOTH",
"220 604 OFFCURVE",
"355 730 OFFCURVE",
"495 730 CURVE SMOOTH",
"562 730 OFFCURVE",
"597 701 OFFCURVE",
"597 650 CURVE SMOOTH",
"597 624 OFFCURVE",
"590 601 OFFCURVE",
"590 585 CURVE SMOOTH",
"590 547 OFFCURVE",
"618 527 OFFCURVE",
"657 527 CURVE SMOOTH",
"708 527 OFFCURVE",
"741 570 OFFCURVE",
"741 654 CURVE SMOOTH",
"741 770 OFFCURVE",
"668 848 OFFCURVE",
"514 848 CURVE SMOOTH",
"276 848 OFFCURVE",
"69 663 OFFCURVE",
"69 363 CURVE SMOOTH",
"69 143 OFFCURVE",
"210 -3 OFFCURVE",
"435 -3 CURVE SMOOTH",
"494 -3 OFFCURVE",
"561 12 OFFCURVE",
"620 44 CURVE"
);
},
{
closed = 1;
nodes = (
"625 238 OFFCURVE",
"618 172 OFFCURVE",
"603 60 CURVE SMOOTH",
"559 -266 OFFCURVE",
"497 -355 OFFCURVE",
"461 -355 CURVE SMOOTH",
"440 -355 OFFCURVE",
"432 -337 OFFCURVE",
"433 -315 CURVE SMOOTH",
"436 -259 OFFCURVE",
"480 -175 OFFCURVE",
"666 -39 CURVE",
"734 8 OFFCURVE",
"817 64 OFFCURVE",
"898 118 CURVE SMOOTH",
"958 158 OFFCURVE",
"947 260 OFFCURVE",
"876 213 CURVE SMOOTH",
"796 160 OFFCURVE",
"726 108 OFFCURVE",
"666 61 CURVE",
"395 -136 OFFCURVE",
"335 -250 OFFCURVE",
"335 -344 CURVE SMOOTH",
"335 -413 OFFCURVE",
"381 -455 OFFCURVE",
"450 -455 CURVE SMOOTH",
"615 -455 OFFCURVE",
"705 -181 OFFCURVE",
"749 102 CURVE SMOOTH",
"769 231 OFFCURVE",
"776 290 OFFCURVE",
"779 330 CURVE SMOOTH",
"782 368 OFFCURVE",
"756 386 OFFCURVE",
"700 386 CURVE SMOOTH",
"572 386 LINE SMOOTH",
"502 386 OFFCURVE",
"469 358 OFFCURVE",
"469 316 CURVE SMOOTH",
"469 278 OFFCURVE",
"499 268 OFFCURVE",
"547 268 CURVE SMOOTH",
"672 268 LINE",
"630 290 LINE"
);
}
);
width = 823;
}
);
note = G;
unicode = 0047;
},
{
color = 3;
glyphname = H;
lastChange = "2016-07-25 22:42:52 +0000";
layers = (
{
background = {
paths = (
{
closed = 1;
nodes = (
"1431 848 OFFCURVE",
"1334 786 OFFCURVE",
"1278 708 CURVE SMOOTH",
"1257 679 OFFCURVE",
"1248 649 OFFCURVE",
"1248 626 CURVE SMOOTH",
"1248 601 OFFCURVE",
"1259 584 OFFCURVE",
"1275 584 CURVE SMOOTH",
"1286 584 OFFCURVE",
"1301 593 OFFCURVE",
"1316 613 CURVE SMOOTH",
"1375 691 OFFCURVE",
"1431 729 OFFCURVE",
"1466 729 CURVE SMOOTH",
"1490 729 OFFCURVE",
"1512 718 OFFCURVE",
"1512 669 CURVE SMOOTH",
"1512 571 OFFCURVE",
"1426 224 OFFCURVE",
"1416 78 CURVE SMOOTH",
"1412 19 OFFCURVE",
"1431 -7 OFFCURVE",
"1483 -7 CURVE SMOOTH",
"1525 -7 OFFCURVE",
"1562 12 OFFCURVE",
"1569 83 CURVE SMOOTH",
"1584 234 OFFCURVE",
"1657 584 OFFCURVE",
"1657 695 CURVE SMOOTH",
"1657 801 OFFCURVE",
"1611 848 OFFCURVE",
"1526 848 CURVE SMOOTH"
);
},
{
closed = 1;
nodes = (
"2144 -5 OFFCURVE",
"2231 38 OFFCURVE",
"2278 124 CURVE SMOOTH",
"2290 146 OFFCURVE",
"2295 164 OFFCURVE",
"2295 187 CURVE SMOOTH",
"2295 212 OFFCURVE",
"2287 227 OFFCURVE",
"2274 227 CURVE SMOOTH",
"2267 227 OFFCURVE",
"2257 222 OFFCURVE",
"2247 209 CURVE SMOOTH",
"2195 141 OFFCURVE",
"2157 114 OFFCURVE",
"2113 114 CURVE SMOOTH",
"2069 114 OFFCURVE",
"2039 141 OFFCURVE",
"2039 194 CURVE SMOOTH",
"2039 297 OFFCURVE",
"2113 617 OFFCURVE",
"2130 783 CURVE SMOOTH",
"2134 822 OFFCURVE",
"2115 848 OFFCURVE",
"2064 848 CURVE SMOOTH",
"2022 848 OFFCURVE",
"1983 829 OFFCURVE",
"1979 778 CURVE SMOOTH",
"1966 617 OFFCURVE",
"1889 287 OFFCURVE",
"1888 166 CURVE SMOOTH",
"1887 59 OFFCURVE",
"1954 -5 OFFCURVE",
"2058 -5 CURVE SMOOTH"
);
},
{
closed = 1;
nodes = (
"1489 365 OFFCURVE",
"1671 371 OFFCURVE",
"1741 371 CURVE SMOOTH",
"1799 371 OFFCURVE",
"2002 370 OFFCURVE",
"2086 370 CURVE SMOOTH",
"2156 370 OFFCURVE",
"2177 399 OFFCURVE",
"2177 443 CURVE SMOOTH",
"2177 468 OFFCURVE",
"2155 491 OFFCURVE",
"2110 491 CURVE SMOOTH",
"2067 491 OFFCURVE",
"1900 487 OFFCURVE",
"1759 485 CURVE SMOOTH",
"1621 483 OFFCURVE",
"1489 484 OFFCURVE",
"1463 484 CURVE SMOOTH",
"1395 484 OFFCURVE",
"1376 455 OFFCURVE",
"1376 411 CURVE SMOOTH",
"1376 374 OFFCURVE",
"1400 363 OFFCURVE",
"1436 364 CURVE SMOOTH"
);
},
{
closed = 1;
nodes = (
"1489 365 OFFCURVE",
"1671 371 OFFCURVE",
"1771 371 CURVE SMOOTH",
"1829 371 OFFCURVE",
"2002 370 OFFCURVE",
"2086 370 CURVE SMOOTH",
"2156 370 OFFCURVE",
"2177 399 OFFCURVE",
"2177 443 CURVE SMOOTH",
"2177 468 OFFCURVE",
"2155 491 OFFCURVE",
"2110 491 CURVE SMOOTH",
"2067 491 OFFCURVE",
"1900 487 OFFCURVE",
"1779 486 CURVE SMOOTH",
"1621 485 OFFCURVE",
"1489 484 OFFCURVE",
"1463 484 CURVE SMOOTH",
"1395 484 OFFCURVE",
"1376 455 OFFCURVE",
"1376 411 CURVE SMOOTH",
"1376 374 OFFCURVE",
"1400 363 OFFCURVE",
"1436 364 CURVE SMOOTH"
);
},
{
closed = 1;
nodes = (
"301 446 OFFCURVE",
"169 447 OFFCURVE",
"143 447 CURVE SMOOTH",
"75 447 OFFCURVE",
"35 418 OFFCURVE",
"33 374 CURVE SMOOTH",
"31 337 OFFCURVE",
"74 326 OFFCURVE",
"110 327 CURVE SMOOTH",
"163 328 OFFCURVE",
"326 334 OFFCURVE",
"436 334 CURVE SMOOTH",
"813 334 OFFCURVE",
"952 561 OFFCURVE",
"961 728 CURVE SMOOTH",
"966 821 OFFCURVE",
"929 880 OFFCURVE",
"867 880 CURVE SMOOTH",
"675 880 OFFCURVE",
"564 550 OFFCURVE",
"550 292 CURVE SMOOTH",
"540 96 OFFCURVE",
"600 -5 OFFCURVE",
"736 -5 CURVE SMOOTH",
"840 -5 OFFCURVE",
"909 58 OFFCURVE",
"956 120 CURVE SMOOTH",
"1009 189 OFFCURVE",
"972 262 OFFCURVE",
"925 209 CURVE SMOOTH",
"866 142 OFFCURVE",
"828 114 OFFCURVE",
"771 114 CURVE SMOOTH",
"708 114 OFFCURVE",
"683 171 OFFCURVE",
"690 313 CURVE SMOOTH",
"704 572 OFFCURVE",
"791 782 OFFCURVE",
"839 782 CURVE SMOOTH",
"854 782 OFFCURVE",
"866 758 OFFCURVE",
"864 725 CURVE SMOOTH",
"855 556 OFFCURVE",
"736 450 OFFCURVE",
"409 447 CURVE SMOOTH"
);
},
{
closed = 1;
nodes = (
"131 848 OFFCURVE",
"34 786 OFFCURVE",
"-22 708 CURVE SMOOTH",
"-43 679 OFFCURVE",
"-52 649 OFFCURVE",
"-52 626 CURVE SMOOTH",
"-52 601 OFFCURVE",
"-41 584 OFFCURVE",
"-25 584 CURVE SMOOTH",
"-14 584 OFFCURVE",
"1 593 OFFCURVE",
"16 613 CURVE SMOOTH",
"75 691 OFFCURVE",
"131 729 OFFCURVE",
"166 729 CURVE SMOOTH",
"190 729 OFFCURVE",
"212 718 OFFCURVE",
"212 669 CURVE SMOOTH",
"212 571 OFFCURVE",
"126 224 OFFCURVE",
"116 78 CURVE SMOOTH",
"111 19 OFFCURVE",
"131 -7 OFFCURVE",
"183 -7 CURVE SMOOTH",
"225 -7 OFFCURVE",
"262 12 OFFCURVE",
"269 83 CURVE SMOOTH",
"284 234 OFFCURVE",
"357 584 OFFCURVE",
"357 695 CURVE SMOOTH",
"357 801 OFFCURVE",
"311 848 OFFCURVE",
"226 848 CURVE SMOOTH"
);
}
);
};
layerId = "ECEFE970-1BBB-4E0A-A452-CEB55884B4A3";
paths = (
{
closed = 1;
nodes = (
"308 439 OFFCURVE",
"161 439 OFFCURVE",
"143 439 CURVE SMOOTH",
"73 439 OFFCURVE",
"31 414 OFFCURVE",
"31 371 CURVE SMOOTH",
"31 336 OFFCURVE",
"71 322 OFFCURVE",
"114 322 CURVE SMOOTH",
"152 322 OFFCURVE",
"281 329 OFFCURVE",
"464 338 CURVE SMOOTH",
"797 354 OFFCURVE",
"965 528 OFFCURVE",
"965 734 CURVE SMOOTH",
"965 827 OFFCURVE",
"918 877 OFFCURVE",
"846 877 CURVE SMOOTH",
"643 877 OFFCURVE",
"543 519 OFFCURVE",
"543 285 CURVE SMOOTH",
"543 105 OFFCURVE",
"606 -5 OFFCURVE",
"749 -5 CURVE SMOOTH",
"844 -5 OFFCURVE",
"914 58 OFFCURVE",
"962 120 CURVE SMOOTH",
"981 144 OFFCURVE",
"989 169 OFFCURVE",
"989 188 CURVE SMOOTH",
"990 211 OFFCURVE",
"980 227 OFFCURVE",
"964 227 CURVE SMOOTH",
"955 227 OFFCURVE",
"944 222 OFFCURVE",
"933 209 CURVE SMOOTH",
"873 142 OFFCURVE",
"834 114 OFFCURVE",
"781 114 CURVE SMOOTH",
"714 114 OFFCURVE",
"687 182 OFFCURVE",
"687 307 CURVE SMOOTH",
"687 547 OFFCURVE",
"776 785 OFFCURVE",
"835 785 CURVE SMOOTH",
"851 785 OFFCURVE",
"861 762 OFFCURVE",
"861 731 CURVE SMOOTH",
"861 599 OFFCURVE",
"796 504 OFFCURVE",
"626 461 CURVE",
"563 451 OFFCURVE",
"509 447 OFFCURVE",
"432 444 CURVE SMOOTH"
);
},
{
closed = 1;
nodes = (
"130 848 OFFCURVE",
"34 786 OFFCURVE",
"-22 708 CURVE SMOOTH",
"-43 679 OFFCURVE",
"-52 649 OFFCURVE",
"-52 626 CURVE SMOOTH",
"-52 601 OFFCURVE",
"-41 584 OFFCURVE",
"-25 584 CURVE SMOOTH",
"-14 584 OFFCURVE",
"1 593 OFFCURVE",
"16 613 CURVE SMOOTH",
"75 691 OFFCURVE",
"131 729 OFFCURVE",
"174 729 CURVE SMOOTH",
"200 729 OFFCURVE",
"222 718 OFFCURVE",
"222 659 CURVE SMOOTH",
"222 531 OFFCURVE",
"170 293 OFFCURVE",
"120 78 CURVE SMOOTH",
"107 24 OFFCURVE",
"129 -7 OFFCURVE",
"190 -7 CURVE SMOOTH",
"235 -7 OFFCURVE",
"266 14 OFFCURVE",
"280 80 CURVE SMOOTH",
"326 293 OFFCURVE",
"367 534 OFFCURVE",
"367 685 CURVE SMOOTH",
"367 797 OFFCURVE",
"317 848 OFFCURVE",
"225 848 CURVE SMOOTH"
);
}
);
width = 881;
}
);
note = H;
unicode = 0048;
},
{
color = 3;
glyphname = I;
lastChange = "2016-07-25 22:42:57 +0000";
layers = (
{
background = {
paths = (
{
closed = 1;
nodes = (
"1210 691 OFFCURVE",
"1220 693 OFFCURVE",
"1228 696 CURVE SMOOTH",
"1236 699 OFFCURVE",
"1243 702 OFFCURVE",
"1250 705 CURVE SMOOTH",
"1263 711 OFFCURVE",
"1276 713 OFFCURVE",
"1290 716 CURVE SMOOTH",
"1304 719 OFFCURVE",
"1322 722 OFFCURVE",
"1346 725 CURVE",
"1331 683 OFFCURVE",
"1314 626 OFFCURVE",
"1296 559 CURVE SMOOTH",
"1278 492 OFFCURVE",
"1258 415 OFFCURVE",
"1239 333 CURVE SMOOTH",
"1220 251 OFFCURVE",
"1198 165 OFFCURVE",
"1178 80 CURVE",
"1165 79 OFFCURVE",
"1151 77 OFFCURVE",
"1134 74 CURVE SMOOTH",
"1101 68 OFFCURVE",
"1071 61 OFFCURVE",
"1050 51 CURVE",
"1040 45 OFFCURVE",
"1034 40 OFFCURVE",
"1033 35 CURVE SMOOTH",
"1031 26 OFFCURVE",
"1030 20 OFFCURVE",
"1027 14 CURVE SMOOTH",
"1021 2 OFFCURVE",
"1011 -5 OFFCURVE",
"1005 -8 CURVE SMOOTH",
"1001 -10 OFFCURVE",
"1000 -12 OFFCURVE",
"1000 -13 CURVE SMOOTH",
"1000 -14 OFFCURVE",
"1006 -14 OFFCURVE",
"1016 -15 CURVE SMOOTH",
"1026 -16 OFFCURVE",
"1039 -15 OFFCURVE",
"1056 -15 CURVE SMOOTH",
"1090 -15 OFFCURVE",
"1137 -16 OFFCURVE",
"1184 -16 CURVE SMOOTH",
"1208 -16 OFFCURVE",
"1232 -16 OFFCURVE",
"1256 -16 CURVE SMOOTH",
"1279 -16 OFFCURVE",
"1301 -16 OFFCURVE",
"1322 -16 CURVE SMOOTH",
"1342 -16 OFFCURVE",
"1361 -16 OFFCURVE",
"1376 -16 CURVE SMOOTH",
"1391 -16 OFFCURVE",
"1402 -16 OFFCURVE",
"1408 -16 CURVE",
"1432 -2 OFFCURVE",
"1444 11 OFFCURVE",
"1444 24 CURVE SMOOTH",
"1444 31 OFFCURVE",
"1441 37 OFFCURVE",
"1435 42 CURVE",
"1424 53 OFFCURVE",
"1407 61 OFFCURVE",
"1386 66 CURVE SMOOTH",
"1366 71 OFFCURVE",
"1347 74 OFFCURVE",
"1333 76 CURVE",
"1326 76 OFFCURVE",
"1321 77 OFFCURVE",
"1320 77 CURVE",
"1331 121 OFFCURVE",
"1341 161 OFFCURVE",
"1351 195 CURVE SMOOTH",
"1371 264 OFFCURVE",
"1382 319 OFFCURVE",
"1392 366 CURVE SMOOTH",
"1402 412 OFFCURVE",
"1411 454 OFFCURVE",
"1421 495 CURVE SMOOTH",
"1426 516 OFFCURVE",
"1430 538 OFFCURVE",
"1436 562 CURVE SMOOTH",
"1448 609 OFFCURVE",
"1460 664 OFFCURVE",
"1478 734 CURVE",
"1489 733 OFFCURVE",
"1500 733 OFFCURVE",
"1510 733 CURVE SMOOTH",
"1558 733 OFFCURVE",
"1584 740 OFFCURVE",
"1597 751 CURVE SMOOTH",
"1611 763 OFFCURVE",
"1612 776 OFFCURVE",
"1612 790 CURVE SMOOTH",
"1612 804 OFFCURVE",
"1611 818 OFFCURVE",
"1592 828 CURVE SMOOTH",
"1583 833 OFFCURVE",
"1570 837 OFFCURVE",
"1552 840 CURVE SMOOTH",
"1534 843 OFFCURVE",
"1508 845 OFFCURVE",
"1476 845 CURVE SMOOTH",
"1402 845 OFFCURVE",
"1345 837 OFFCURVE",
"1303 825 CURVE SMOOTH",
"1261 813 OFFCURVE",
"1235 798 OFFCURVE",
"1217 784 CURVE SMOOTH",
"1200 770 OFFCURVE",
"1194 756 OFFCURVE",
"1194 749 CURVE SMOOTH",
"1194 729 OFFCURVE",
"1195 713 OFFCURVE",
"1195 702 CURVE",
"1196 690 OFFCURVE",
"1197 685 OFFCURVE",
"1198 685 CURVE",
"1198 685 OFFCURVE",
"1198 685 OFFCURVE",
"1200 686 CURVE SMOOTH"
);
},
{
closed = 1;
nodes = (
"788 848 OFFCURVE",
"752 829 OFFCURVE",
"749 788 CURVE SMOOTH",
"744 715 OFFCURVE",
"726 576 OFFCURVE",
"710 486 CURVE SMOOTH",
"703 446 OFFCURVE",
"695 403 OFFCURVE",
"687 355 CURVE SMOOTH",
"666 228 OFFCURVE",
"643 105 OFFCURVE",
"643 55 CURVE SMOOTH",
"643 19 OFFCURVE",
"667 -5 OFFCURVE",
"716 -5 CURVE SMOOTH",
"758 -5 OFFCURVE",
"794 14 OFFCURVE",
"797 55 CURVE SMOOTH",
"802 128 OFFCURVE",
"821 267 OFFCURVE",
"836 357 CURVE SMOOTH",
"858 488 LINE SMOOTH",
"879 615 OFFCURVE",
"903 738 OFFCURVE",
"903 788 CURVE SMOOTH",
"903 824 OFFCURVE",
"879 848 OFFCURVE",
"830 848 CURVE SMOOTH"
);
},
{
closed = 1;
nodes = (
"249 788 LINE",
"244 715 OFFCURVE",
"226 576 OFFCURVE",
"210 486 CURVE SMOOTH",
"203 446 OFFCURVE",
"195 403 OFFCURVE",
"187 355 CURVE SMOOTH",
"166 228 OFFCURVE",
"143 105 OFFCURVE",
"143 55 CURVE",
"297 55 LINE",
"302 128 OFFCURVE",
"321 267 OFFCURVE",
"336 357 CURVE SMOOTH",
"358 488 LINE SMOOTH",
"379 615 OFFCURVE",
"403 738 OFFCURVE",
"403 788 CURVE"
);
},
{
closed = 1;
nodes = (
"220 723 OFFCURVE",
"282 728 OFFCURVE",
"327 728 CURVE SMOOTH",
"364 728 OFFCURVE",
"427 727 OFFCURVE",
"472 727 CURVE SMOOTH",
"523 727 OFFCURVE",
"549 758 OFFCURVE",
"549 802 CURVE SMOOTH",
"549 827 OFFCURVE",
"532 850 OFFCURVE",
"477 850 CURVE SMOOTH",
"404 850 OFFCURVE",
"239 846 OFFCURVE",
"176 834 CURVE SMOOTH",
"133 826 OFFCURVE",
"90 803 OFFCURVE",
"90 754 CURVE SMOOTH",
"90 715 OFFCURVE",
"126 708 OFFCURVE",
"157 713 CURVE SMOOTH"
);
},
{
closed = 1;
nodes = (
"319 120 OFFCURVE",
"257 117 OFFCURVE",
"212 117 CURVE SMOOTH",
"175 117 OFFCURVE",
"112 118 OFFCURVE",
"67 118 CURVE SMOOTH",
"16 118 OFFCURVE",
"-10 89 OFFCURVE",
"-10 45 CURVE SMOOTH",
"-10 20 OFFCURVE",
"17 0 OFFCURVE",
"52 0 CURVE SMOOTH",
"135 0 OFFCURVE",
"314 -2 OFFCURVE",
"367 1 CURVE SMOOTH",
"420 4 OFFCURVE",
"445 36 OFFCURVE",
"445 80 CURVE SMOOTH",
"445 124 OFFCURVE",
"413 123 OFFCURVE",
"382 122 CURVE SMOOTH"
);
}
);
};
layerId = "ECEFE970-1BBB-4E0A-A452-CEB55884B4A3";
paths = (
{
closed = 1;
nodes = (
"249 788 LINE",
"244 715 OFFCURVE",
"226 576 OFFCURVE",
"210 486 CURVE SMOOTH",
"203 446 OFFCURVE",
"195 403 OFFCURVE",
"187 355 CURVE SMOOTH",
"166 228 OFFCURVE",
"143 105 OFFCURVE",
"143 55 CURVE",
"297 55 LINE",
"302 128 OFFCURVE",
"321 267 OFFCURVE",
"336 357 CURVE SMOOTH",
"358 488 LINE SMOOTH",
"379 615 OFFCURVE",
"403 738 OFFCURVE",
"403 788 CURVE"
);
},
{
closed = 1;
nodes = (
"129 -2 OFFCURVE",
"222 -2 CURVE SMOOTH",
"259 -2 OFFCURVE",
"322 -6 OFFCURVE",
"367 -6 CURVE SMOOTH",
"418 -6 OFFCURVE",
"445 24 OFFCURVE",
"445 58 CURVE SMOOTH",
"446 93 OFFCURVE",
"429 115 OFFCURVE",
"354 116 CURVE SMOOTH",
"291 116 OFFCURVE",
"160 113 OFFCURVE",
"107 110 CURVE SMOOTH",
"30 105 OFFCURVE",
"-14 79 OFFCURVE",
"-15 29 CURVE SMOOTH",
"-15 -5 OFFCURVE",
"10 -19 OFFCURVE",
"37 -19 CURVE SMOOTH",
"69 -19 OFFCURVE"
);
},
{
closed = 1;
nodes = (
"229 720 OFFCURVE",
"291 723 OFFCURVE",
"336 723 CURVE SMOOTH",
"373 723 OFFCURVE",
"436 722 OFFCURVE",
"481 722 CURVE SMOOTH",
"532 722 OFFCURVE",
"558 753 OFFCURVE",
"558 797 CURVE SMOOTH",
"558 822 OFFCURVE",
"531 842 OFFCURVE",
"496 842 CURVE SMOOTH",
"413 842 OFFCURVE",
"254 844 OFFCURVE",
"201 841 CURVE SMOOTH",
"128 838 OFFCURVE",
"103 806 OFFCURVE",
"103 762 CURVE SMOOTH",
"103 718 OFFCURVE",
"135 717 OFFCURVE",
"166 718 CURVE SMOOTH"
);
}
);
width = 450;
}
);
note = I;
unicode = 0049;
},
{
color = 3;
glyphname = J;
lastChange = "2016-07-26 13:47:20 +0000";
layers = (
{
background = {
paths = (
{
closed = 1;
nodes = (
"121 438 OFFCURVE",
"227 493 OFFCURVE",
"195 548 CURVE SMOOTH",
"187 562 OFFCURVE",
"175 585 OFFCURVE",
"175 613 CURVE SMOOTH",
"175 695 OFFCURVE",
"263 724 OFFCURVE",
"426 724 CURVE SMOOTH",
"515 724 OFFCURVE",
"577 717 OFFCURVE",
"681 704 CURVE SMOOTH",
"735 697 OFFCURVE",
"758 723 OFFCURVE",
"758 767 CURVE SMOOTH",
"758 791 OFFCURVE",
"740 812 OFFCURVE",
"696 823 CURVE SMOOTH",
"632 839 OFFCURVE",
"554 847 OFFCURVE",
"476 847 CURVE SMOOTH",
"221 847 OFFCURVE",
"56 781 OFFCURVE",
"56 607 CURVE SMOOTH",
"56 566 OFFCURVE",
"67 528 OFFCURVE",
"84 500 CURVE SMOOTH"
);
},
{
closed = 1;
nodes = (
"554 739 LINE",
"546 668 OFFCURVE",
"538 624 OFFCURVE",
"532 571 CURVE SMOOTH",
"478 92 OFFCURVE",
"387 3 OFFCURVE",
"317 3 CURVE SMOOTH",
"283 3 OFFCURVE",
"259 28 OFFCURVE",
"260 74 CURVE SMOOTH",
"261 181 OFFCURVE",
"356 285 OFFCURVE",
"597 369 CURVE",
"597 456 LINE",
"317 367 OFFCURVE",
"131 224 OFFCURVE",
"131 55 CURVE SMOOTH",
"131 -42 OFFCURVE",
"202 -107 OFFCURVE",
"305 -107 CURVE SMOOTH",
"477 -107 OFFCURVE",
"617 83 OFFCURVE",
"680 556 CURVE SMOOTH",
"693 653 OFFCURVE",
"698 682 OFFCURVE",
"704 739 CURVE"
);
}
);
};
layerId = "ECEFE970-1BBB-4E0A-A452-CEB55884B4A3";
paths = (
{
closed = 1;
nodes = (
"121 438 OFFCURVE",
"227 493 OFFCURVE",
"195 548 CURVE SMOOTH",
"187 562 OFFCURVE",
"175 585 OFFCURVE",
"175 613 CURVE SMOOTH",
"175 695 OFFCURVE",
"263 724 OFFCURVE",
"426 724 CURVE SMOOTH",
"515 724 OFFCURVE",
"577 717 OFFCURVE",
"681 704 CURVE SMOOTH",
"735 697 OFFCURVE",
"758 723 OFFCURVE",
"758 767 CURVE SMOOTH",
"758 791 OFFCURVE",
"740 812 OFFCURVE",
"696 823 CURVE SMOOTH",
"632 839 OFFCURVE",
"554 847 OFFCURVE",
"476 847 CURVE SMOOTH",
"221 847 OFFCURVE",
"56 781 OFFCURVE",
"56 607 CURVE SMOOTH",
"56 566 OFFCURVE",
"67 528 OFFCURVE",
"84 500 CURVE SMOOTH"
);
},
{
closed = 1;
nodes = (
"554 739 LINE",
"546 668 OFFCURVE",
"538 624 OFFCURVE",
"532 571 CURVE SMOOTH",
"478 92 OFFCURVE",
"387 3 OFFCURVE",
"317 3 CURVE SMOOTH",
"283 3 OFFCURVE",
"259 28 OFFCURVE",
"260 74 CURVE SMOOTH",
"261 181 OFFCURVE",
"356 285 OFFCURVE",
"597 369 CURVE",
"597 475 LINE",
"317 386 OFFCURVE",
"131 224 OFFCURVE",
"131 55 CURVE SMOOTH",
"131 -42 OFFCURVE",
"202 -107 OFFCURVE",
"305 -107 CURVE SMOOTH",
"477 -107 OFFCURVE",
"617 83 OFFCURVE",
"680 556 CURVE SMOOTH",
"693 653 OFFCURVE",
"698 682 OFFCURVE",
"704 739 CURVE"
);
}
);
width = 706;
}
);
note = J;
unicode = 004A;
},
{
color = 3;
glyphname = K;
lastChange = "2016-07-26 13:39:09 +0000";
layers = (
{
background = {
paths = (
{
closed = 1;
nodes = (
"487 -8 OFFCURVE",
"576 67 OFFCURVE",
"605 261 CURVE SMOOTH",
"637 473 OFFCURVE",
"656 593 OFFCURVE",
"679 765 CURVE",
"527 754 LINE",
"507 601 OFFCURVE",
"498 525 OFFCURVE",
"457 260 CURVE SMOOTH",
"439 147 OFFCURVE",
"400 95 OFFCURVE",
"348 93 CURVE SMOOTH",
"300 91 OFFCURVE",
"274 119 OFFCURVE",
"234 195 CURVE SMOOTH",
"223 216 OFFCURVE",
"212 224 OFFCURVE",
"195 224 CURVE SMOOTH",
"154 224 OFFCURVE",
"129 169 OFFCURVE",
"152 111 CURVE SMOOTH",
"179 43 OFFCURVE",
"255 -8 OFFCURVE",
"349 -8 CURVE SMOOTH"
);
},
{
closed = 1;
nodes = (
"246 438 OFFCURVE",
"350 493 OFFCURVE",
"324 548 CURVE SMOOTH",
"317 562 OFFCURVE",
"304 585 OFFCURVE",
"304 623 CURVE SMOOTH",
"304 696 OFFCURVE",
"372 731 OFFCURVE",
"447 731 CURVE SMOOTH",
"496 731 OFFCURVE",
"548 721 OFFCURVE",
"652 707 CURVE SMOOTH",
"693 701 OFFCURVE",
"716 723 OFFCURVE",
"716 767 CURVE SMOOTH",
"716 796 OFFCURVE",
"699 813 OFFCURVE",
"667 823 CURVE SMOOTH",
"603 843 OFFCURVE",
"545 847 OFFCURVE",
"487 847 CURVE SMOOTH",
"283 847 OFFCURVE",
"185 738 OFFCURVE",
"185 617 CURVE SMOOTH",
"185 566 OFFCURVE",
"198 528 OFFCURVE",
"213 500 CURVE SMOOTH"
);
},
{
closed = 1;
nodes = (
"1032 -5 OFFCURVE",
"1119 38 OFFCURVE",
"1166 124 CURVE SMOOTH",
"1178 146 OFFCURVE",
"1183 169 OFFCURVE",
"1183 187 CURVE SMOOTH",
"1183 210 OFFCURVE",
"1175 227 OFFCURVE",
"1162 227 CURVE SMOOTH",
"1155 227 OFFCURVE",
"1145 222 OFFCURVE",
"1135 209 CURVE SMOOTH",
"1083 141 OFFCURVE",
"1045 114 OFFCURVE",
"1001 114 CURVE SMOOTH",
"951 114 OFFCURVE",
"920 147 OFFCURVE",
"889 235 CURVE SMOOTH",
"850 346 OFFCURVE",
"797 390 OFFCURVE",
"631 390 CURVE",
"612 336 LINE",
"681 336 OFFCURVE",
"694 303 OFFCURVE",
"738 174 CURVE SMOOTH",
"768 86 OFFCURVE",
"810 -5 OFFCURVE",
"953 -5 CURVE SMOOTH"
);
},
{
closed = 1;
nodes = (
"1113 814 OFFCURVE",
"1090 842 OFFCURVE",
"1033 842 CURVE SMOOTH",
"984 842 OFFCURVE",
"955 821 OFFCURVE",
"943 784 CURVE SMOOTH",
"879 591 OFFCURVE",
"786 439 OFFCURVE",
"595 439 CURVE SMOOTH",
"549 439 OFFCURVE",
"520 439 OFFCURVE",
"461 439 CURVE SMOOTH",
"436 439 OFFCURVE",
"410 420 OFFCURVE",
"410 387 CURVE SMOOTH",
"410 367 OFFCURVE",
"418 335 OFFCURVE",
"469 335 CURVE",
"612 336 LINE",
"666 367 LINE",
"816 380 OFFCURVE",
"1019 492 OFFCURVE",
"1100 771 CURVE SMOOTH"
);
}
);
};
layerId = "ECEFE970-1BBB-4E0A-A452-CEB55884B4A3";
paths = (
{
closed = 1;
nodes = (
"487 -8 OFFCURVE",
"576 67 OFFCURVE",
"605 261 CURVE SMOOTH",
"637 473 OFFCURVE",
"656 593 OFFCURVE",
"679 765 CURVE",
"527 754 LINE",
"507 601 OFFCURVE",
"498 525 OFFCURVE",
"457 260 CURVE SMOOTH",
"439 147 OFFCURVE",
"400 95 OFFCURVE",
"348 93 CURVE SMOOTH",
"300 91 OFFCURVE",
"274 119 OFFCURVE",
"234 195 CURVE SMOOTH",
"223 216 OFFCURVE",
"212 224 OFFCURVE",
"195 224 CURVE SMOOTH",
"154 224 OFFCURVE",
"129 169 OFFCURVE",
"152 111 CURVE SMOOTH",
"179 43 OFFCURVE",
"255 -8 OFFCURVE",
"349 -8 CURVE SMOOTH"
);
},
{
closed = 1;
nodes = (
"246 438 OFFCURVE",
"350 493 OFFCURVE",
"324 548 CURVE SMOOTH",
"317 562 OFFCURVE",
"304 585 OFFCURVE",
"304 623 CURVE SMOOTH",
"304 696 OFFCURVE",
"372 731 OFFCURVE",
"447 731 CURVE SMOOTH",
"496 731 OFFCURVE",
"548 721 OFFCURVE",
"652 707 CURVE SMOOTH",
"693 701 OFFCURVE",
"716 723 OFFCURVE",
"716 767 CURVE SMOOTH",
"716 796 OFFCURVE",
"699 813 OFFCURVE",
"667 823 CURVE SMOOTH",
"603 843 OFFCURVE",
"545 847 OFFCURVE",
"487 847 CURVE SMOOTH",
"283 847 OFFCURVE",
"185 738 OFFCURVE",
"185 617 CURVE SMOOTH",
"185 566 OFFCURVE",
"198 528 OFFCURVE",
"213 500 CURVE SMOOTH"
);
},
{
closed = 1;
nodes = (
"1032 -5 OFFCURVE",
"1119 38 OFFCURVE",
"1166 124 CURVE SMOOTH",
"1178 146 OFFCURVE",
"1183 169 OFFCURVE",
"1183 187 CURVE SMOOTH",
"1183 210 OFFCURVE",
"1175 227 OFFCURVE",
"1162 227 CURVE SMOOTH",
"1155 227 OFFCURVE",
"1145 222 OFFCURVE",
"1135 209 CURVE SMOOTH",
"1083 141 OFFCURVE",
"1045 114 OFFCURVE",
"1001 114 CURVE SMOOTH",
"951 114 OFFCURVE",
"920 147 OFFCURVE",
"889 235 CURVE SMOOTH",
"850 346 OFFCURVE",
"797 390 OFFCURVE",
"631 390 CURVE",
"612 336 LINE",
"681 336 OFFCURVE",
"694 303 OFFCURVE",
"738 174 CURVE SMOOTH",
"768 86 OFFCURVE",
"810 -5 OFFCURVE",
"953 -5 CURVE SMOOTH"
);
},
{
closed = 1;
nodes = (
"1113 814 OFFCURVE",
"1090 842 OFFCURVE",
"1033 842 CURVE SMOOTH",
"984 842 OFFCURVE",
"955 821 OFFCURVE",
"943 784 CURVE SMOOTH",
"879 591 OFFCURVE",
"786 439 OFFCURVE",
"595 439 CURVE SMOOTH",
"549 439 OFFCURVE",
"520 439 OFFCURVE",
"461 439 CURVE SMOOTH",
"436 439 OFFCURVE",
"410 420 OFFCURVE",
"410 387 CURVE SMOOTH",
"410 367 OFFCURVE",
"418 335 OFFCURVE",
"469 335 CURVE",
"612 336 LINE",
"666 367 LINE",
"816 380 OFFCURVE",
"1019 492 OFFCURVE",
"1100 771 CURVE SMOOTH"
);
}
);
width = 1051;
}
);
note = K;
unicode = 004B;
},
{
color = 3;
glyphname = L;
lastChange = "2016-07-27 08:33:39 +0000";
layers = (
{
background = {
paths = (
{
closed = 1;
nodes = (
"2775 -178 OFFCURVE",
"2861 -127 OFFCURVE",
"2927 -33 CURVE SMOOTH",
"2975 36 OFFCURVE",
"2952 108 OFFCURVE",
"2896 52 CURVE SMOOTH",
"2835 -9 OFFCURVE",
"2787 -38 OFFCURVE",
"2723 -38 CURVE SMOOTH",
"2612 -38 OFFCURVE",
"2487 132 OFFCURVE",
"2237 132 CURVE",
"2213 39 LINE",
"2412 39 OFFCURVE",
"2491 -178 OFFCURVE",
"2686 -178 CURVE SMOOTH"
);
},
{
closed = 1;
nodes = (
"2465 848 OFFCURVE",
"2288 743 OFFCURVE",
"2265 461 CURVE SMOOTH",
"2254 325 OFFCURVE",
"2253 228 OFFCURVE",
"2241 94 CURVE SMOOTH",
"2231 -21 OFFCURVE",
"2204 -84 OFFCURVE",
"2157 -84 CURVE SMOOTH",
"2122 -84 OFFCURVE",
"2107 -63 OFFCURVE",
"2107 -37 CURVE SMOOTH",
"2107 9 OFFCURVE",
"2150 36 OFFCURVE",
"2213 39 CURVE",
"2237 132 LINE",
"2120 132 OFFCURVE",
"1996 73 OFFCURVE",
"1996 -45 CURVE SMOOTH",
"1996 -132 OFFCURVE",
"2063 -178 OFFCURVE",
"2149 -178 CURVE SMOOTH",
"2299 -178 OFFCURVE",
"2368 -42 OFFCURVE",
"2386 101 CURVE SMOOTH",
"2398 197 OFFCURVE",
"2411 292 OFFCURVE",
"2428 448 CURVE SMOOTH",
"2450 646 OFFCURVE",
"2535 730 OFFCURVE",
"2655 730 CURVE SMOOTH",
"2736 730 OFFCURVE",
"2767 700 OFFCURVE",
"2767 635 CURVE SMOOTH",
"2767 600 OFFCURVE",
"2757 588 OFFCURVE",
"2757 562 CURVE SMOOTH",
"2757 526 OFFCURVE",
"2781 506 OFFCURVE",
"2817 506 CURVE SMOOTH",
"2884 506 OFFCURVE",
"2912 567 OFFCURVE",
"2912 646 CURVE SMOOTH",
"2912 769 OFFCURVE",
"2827 848 OFFCURVE",
"2673 848 CURVE SMOOTH"
);
},
{
closed = 1;
nodes = (
"1665 -155 OFFCURVE",
"1746 -107 OFFCURVE",
"1812 -13 CURVE SMOOTH",
"1860 56 OFFCURVE",
"1837 128 OFFCURVE",
"1781 72 CURVE SMOOTH",
"1720 11 OFFCURVE",
"1672 -12 OFFCURVE",
"1605 -12 CURVE SMOOTH",
"1504 -12 OFFCURVE",
"1299 132 OFFCURVE",
"1106 132 CURVE",
"1085 41 LINE",
"1204 41 OFFCURVE",
"1383 -155 OFFCURVE",
"1578 -155 CURVE SMOOTH"
);
},
{
closed = 1;
nodes = (
"1365 848 OFFCURVE",
"1188 743 OFFCURVE",
"1165 461 CURVE SMOOTH",
"1154 325 OFFCURVE",
"1153 228 OFFCURVE",
"1141 94 CURVE SMOOTH",
"1131 -21 OFFCURVE",
"1111 -62 OFFCURVE",
"1064 -62 CURVE SMOOTH",
"1029 -62 OFFCURVE",
"1019 -42 OFFCURVE",
"1019 -16 CURVE SMOOTH",
"1019 30 OFFCURVE",
"1052 41 OFFCURVE",
"1085 41 CURVE",
"1106 132 LINE",
"977 132 OFFCURVE",
"908 61 OFFCURVE",
"908 -24 CURVE SMOOTH",
"908 -104 OFFCURVE",
"977 -155 OFFCURVE",
"1063 -155 CURVE SMOOTH",
"1213 -155 OFFCURVE",
"1268 -42 OFFCURVE",
"1286 101 CURVE SMOOTH",
"1298 197 OFFCURVE",
"1311 292 OFFCURVE",
"1328 448 CURVE SMOOTH",
"1350 650 OFFCURVE",
"1435 734 OFFCURVE",
"1555 734 CURVE SMOOTH",
"1636 734 OFFCURVE",
"1667 704 OFFCURVE",
"1667 635 CURVE SMOOTH",
"1667 600 OFFCURVE",
"1657 588 OFFCURVE",
"1657 562 CURVE SMOOTH",
"1657 526 OFFCURVE",
"1681 506 OFFCURVE",
"1717 506 CURVE SMOOTH",
"1784 506 OFFCURVE",
"1812 567 OFFCURVE",
"1812 646 CURVE SMOOTH",
"1812 769 OFFCURVE",
"1727 848 OFFCURVE",
"1573 848 CURVE SMOOTH"
);
},
{
closed = 1;
nodes = (
"675 -5 OFFCURVE",
"756 43 OFFCURVE",
"822 137 CURVE SMOOTH",
"870 206 OFFCURVE",
"847 278 OFFCURVE",
"791 222 CURVE SMOOTH",
"730 161 OFFCURVE",
"682 138 OFFCURVE",
"615 138 CURVE SMOOTH",
"514 138 OFFCURVE",
"309 282 OFFCURVE",
"116 282 CURVE",
"95 191 LINE",
"214 191 OFFCURVE",
"393 -5 OFFCURVE",
"588 -5 CURVE SMOOTH"
);
},
{
closed = 1;
nodes = (
"355 848 OFFCURVE",
"187 743 OFFCURVE",
"167 491 CURVE SMOOTH",
"160 395 OFFCURVE",
"158 318 OFFCURVE",
"151 244 CURVE SMOOTH",
"141 129 OFFCURVE",
"121 88 OFFCURVE",
"74 88 CURVE SMOOTH",
"46 88 OFFCURVE",
"29 108 OFFCURVE",
"29 134 CURVE SMOOTH",
"29 169 OFFCURVE",
"56 191 OFFCURVE",
"95 191 CURVE",
"116 282 LINE",
"-13 282 OFFCURVE",
"-82 211 OFFCURVE",
"-82 126 CURVE SMOOTH",
"-82 46 OFFCURVE",
"-13 -5 OFFCURVE",
"73 -5 CURVE SMOOTH",
"223 -5 OFFCURVE",
"288 108 OFFCURVE",
"306 251 CURVE SMOOTH",
"313 308 OFFCURVE",
"320 371 OFFCURVE",
"333 488 CURVE SMOOTH",
"350 650 OFFCURVE",
"423 734 OFFCURVE",
"544 734 CURVE SMOOTH",
"610 734 OFFCURVE",
"647 704 OFFCURVE",
"647 645 CURVE SMOOTH",
"647 600 OFFCURVE",
"640 588 OFFCURVE",
"640 562 CURVE SMOOTH",
"640 526 OFFCURVE",
"664 506 OFFCURVE",
"700 506 CURVE SMOOTH",
"762 506 OFFCURVE",
"787 567 OFFCURVE",
"787 646 CURVE SMOOTH",
"787 769 OFFCURVE",
"702 848 OFFCURVE",
"546 848 CURVE SMOOTH"
);
}
);
};
layerId = "ECEFE970-1BBB-4E0A-A452-CEB55884B4A3";
paths = (
{
closed = 1;
nodes = (
"655 -5 OFFCURVE",
"736 43 OFFCURVE",
"802 137 CURVE SMOOTH",
"850 206 OFFCURVE",
"827 278 OFFCURVE",
"771 222 CURVE SMOOTH",
"710 161 OFFCURVE",
"662 136 OFFCURVE",
"595 136 CURVE SMOOTH",
"484 136 OFFCURVE",
"329 279 OFFCURVE",
"116 279 CURVE",
"95 189 LINE",
"224 189 OFFCURVE",
"383 -5 OFFCURVE",
"568 -5 CURVE SMOOTH"
);
},
{
closed = 1;
nodes = (
"368 848 OFFCURVE",
"185 733 OFFCURVE",
"167 491 CURVE SMOOTH",
"160 395 OFFCURVE",
"160 318 OFFCURVE",
"155 244 CURVE SMOOTH",
"147 125 OFFCURVE",
"123 84 OFFCURVE",
"76 84 CURVE SMOOTH",
"48 84 OFFCURVE",
"29 104 OFFCURVE",
"29 132 CURVE SMOOTH",
"29 167 OFFCURVE",
"56 189 OFFCURVE",
"95 189 CURVE",
"116 279 LINE",
"-13 279 OFFCURVE",
"-80 207 OFFCURVE",
"-80 126 CURVE SMOOTH",
"-80 46 OFFCURVE",
"-13 -5 OFFCURVE",
"73 -5 CURVE SMOOTH",
"223 -5 OFFCURVE",
"276 108 OFFCURVE",
"294 251 CURVE SMOOTH",
"301 308 OFFCURVE",
"310 371 OFFCURVE",
"323 488 CURVE SMOOTH",
"341 650 OFFCURVE",
"413 738 OFFCURVE",
"542 738 CURVE SMOOTH",
"608 738 OFFCURVE",
"645 704 OFFCURVE",
"645 645 CURVE SMOOTH",
"645 600 OFFCURVE",
"638 588 OFFCURVE",
"638 562 CURVE SMOOTH",
"638 526 OFFCURVE",
"662 506 OFFCURVE",
"696 506 CURVE SMOOTH",
"758 506 OFFCURVE",
"782 567 OFFCURVE",
"782 646 CURVE SMOOTH",
"782 769 OFFCURVE",
"698 848 OFFCURVE",
"544 848 CURVE SMOOTH"
);
}
);
width = 736;
}
);
note = L;
unicode = 004C;
},
{
color = 3;
glyphname = Lslash;
lastChange = "2016-07-27 11:12:52 +0000";
layers = (
{
background = {
paths = (
{
closed = 1;
nodes = (
"651 908 OFFCURVE",
"694 896 OFFCURVE",
"719 896 CURVE SMOOTH",
"749 896 OFFCURVE",
"772 911 OFFCURVE",
"772 942 CURVE SMOOTH",
"772 976 OFFCURVE",
"722 1013 OFFCURVE",
"584 1013 CURVE SMOOTH",
"477 1013 OFFCURVE",
"380 987 OFFCURVE",
"324 964 CURVE SMOOTH",
"258 937 OFFCURVE",
"248 916 OFFCURVE",
"248 887 CURVE SMOOTH",
"248 866 OFFCURVE",
"262 845 OFFCURVE",
"292 845 CURVE SMOOTH",
"336 845 OFFCURVE",
"417 908 OFFCURVE",
"586 908 CURVE SMOOTH"
);
},
{
closed = 1;
nodes = (
"675 -178 OFFCURVE",
"761 -127 OFFCURVE",
"827 -33 CURVE SMOOTH",
"875 36 OFFCURVE",
"852 108 OFFCURVE",
"796 52 CURVE SMOOTH",
"737 -10 OFFCURVE",
"687 -38 OFFCURVE",
"623 -38 CURVE SMOOTH",
"512 -38 OFFCURVE",
"387 132 OFFCURVE",
"137 132 CURVE",
"113 39 LINE",
"312 39 OFFCURVE",
"391 -178 OFFCURVE",
"586 -178 CURVE SMOOTH"
);
},
{
closed = 1;
nodes = (
"365 828 OFFCURVE",
"186 723 OFFCURVE",
"165 461 CURVE SMOOTH",
"154 325 OFFCURVE",
"153 228 OFFCURVE",
"141 94 CURVE SMOOTH",
"131 -21 OFFCURVE",
"104 -84 OFFCURVE",
"57 -84 CURVE SMOOTH",
"22 -84 OFFCURVE",
"7 -63 OFFCURVE",
"7 -37 CURVE SMOOTH",
"7 9 OFFCURVE",
"50 36 OFFCURVE",
"113 39 CURVE",
"137 132 LINE",
"20 132 OFFCURVE",
"-104 73 OFFCURVE",
"-104 -45 CURVE SMOOTH",
"-104 -132 OFFCURVE",
"-37 -178 OFFCURVE",
"49 -178 CURVE SMOOTH",
"199 -178 OFFCURVE",
"268 -42 OFFCURVE",
"286 101 CURVE SMOOTH",
"299 197 OFFCURVE",
"311 292 OFFCURVE",
"328 448 CURVE SMOOTH",
"347 626 OFFCURVE",
"435 710 OFFCURVE",
"555 710 CURVE SMOOTH",
"636 710 OFFCURVE",
"667 680 OFFCURVE",
"667 615 CURVE SMOOTH",
"667 580 OFFCURVE",
"657 568 OFFCURVE",
"657 542 CURVE SMOOTH",
"657 506 OFFCURVE",
"681 486 OFFCURVE",
"717 486 CURVE SMOOTH",
"784 486 OFFCURVE",
"812 547 OFFCURVE",
"812 626 CURVE SMOOTH",
"812 749 OFFCURVE",
"727 828 OFFCURVE",
"573 828 CURVE SMOOTH"
);
}
);
};
layerId = "ECEFE970-1BBB-4E0A-A452-CEB55884B4A3";
paths = (
{
closed = 1;
nodes = (
"651 908 OFFCURVE",
"694 896 OFFCURVE",
"719 896 CURVE SMOOTH",
"749 896 OFFCURVE",
"772 911 OFFCURVE",
"772 942 CURVE SMOOTH",
"772 976 OFFCURVE",
"722 1013 OFFCURVE",
"584 1013 CURVE SMOOTH",
"477 1013 OFFCURVE",
"380 987 OFFCURVE",
"324 964 CURVE SMOOTH",
"258 937 OFFCURVE",
"248 916 OFFCURVE",
"248 887 CURVE SMOOTH",
"248 866 OFFCURVE",
"262 845 OFFCURVE",
"292 845 CURVE SMOOTH",
"336 845 OFFCURVE",
"417 908 OFFCURVE",
"586 908 CURVE SMOOTH"
);
},
{
closed = 1;
nodes = (
"655 -5 OFFCURVE",
"736 43 OFFCURVE",
"802 137 CURVE SMOOTH",
"850 206 OFFCURVE",
"827 278 OFFCURVE",
"771 222 CURVE SMOOTH",
"710 161 OFFCURVE",
"662 136 OFFCURVE",
"595 136 CURVE SMOOTH",
"484 136 OFFCURVE",
"329 279 OFFCURVE",
"116 279 CURVE",
"95 189 LINE",
"224 189 OFFCURVE",
"383 -5 OFFCURVE",
"568 -5 CURVE SMOOTH"
);
},
{
closed = 1;
nodes = (
"368 828 OFFCURVE",
"183 713 OFFCURVE",
"167 491 CURVE SMOOTH",
"160 395 OFFCURVE",
"160 318 OFFCURVE",
"155 244 CURVE SMOOTH",
"147 125 OFFCURVE",
"123 84 OFFCURVE",
"76 84 CURVE SMOOTH",
"48 84 OFFCURVE",
"29 104 OFFCURVE",
"29 132 CURVE SMOOTH",
"29 167 OFFCURVE",
"56 189 OFFCURVE",
"95 189 CURVE",
"116 279 LINE",
"-13 279 OFFCURVE",
"-80 207 OFFCURVE",
"-80 126 CURVE SMOOTH",
"-80 46 OFFCURVE",
"-13 -5 OFFCURVE",
"73 -5 CURVE SMOOTH",
"223 -5 OFFCURVE",
"276 108 OFFCURVE",
"294 251 CURVE SMOOTH",
"301 308 OFFCURVE",
"310 371 OFFCURVE",
"323 488 CURVE SMOOTH",
"339 630 OFFCURVE",
"413 718 OFFCURVE",
"542 718 CURVE SMOOTH",
"608 718 OFFCURVE",
"645 684 OFFCURVE",
"645 625 CURVE SMOOTH",
"645 580 OFFCURVE",
"638 568 OFFCURVE",
"638 542 CURVE SMOOTH",
"638 506 OFFCURVE",
"662 486 OFFCURVE",
"696 486 CURVE SMOOTH",
"758 486 OFFCURVE",
"782 547 OFFCURVE",
"782 626 CURVE SMOOTH",
"782 749 OFFCURVE",
"698 828 OFFCURVE",
"544 828 CURVE SMOOTH"
);
}
);
width = 736;
}
);
leftMetricsKey = L;
note = Lslash;
rightMetricsKey = L;
unicode = 0141;
},
{
color = 3;
glyphname = M;
lastChange = "2016-07-25 13:51:58 +0000";
layers = (
{
background = {
paths = (
{
closed = 1;
nodes = (
"2695 227 OFFCURVE",
"2685 222 OFFCURVE",
"2675 209 CURVE SMOOTH",
"2623 141 OFFCURVE",
"2585 114 OFFCURVE",
"2541 114 CURVE SMOOTH",
"2498 114 OFFCURVE",
"2468 141 OFFCURVE",
"2468 198 CURVE SMOOTH",
"2468 229 OFFCURVE",
"2472 254 OFFCURVE",
"2478 284 CURVE SMOOTH",
"2539 570 LINE SMOOTH",
"2547 609 OFFCURVE",
"2552 645 OFFCURVE",
"2552 677 CURVE SMOOTH",
"2552 783 OFFCURVE",
"2502 848 OFFCURVE",
"2401 848 CURVE SMOOTH",
"2273 848 OFFCURVE",
"2170 760 OFFCURVE",
"2098 493 CURVE",
"2109 502 LINE",
"2134 610 OFFCURVE",
"2137 633 OFFCURVE",
"2137 669 CURVE SMOOTH",
"2137 785 OFFCURVE",
"2088 848 OFFCURVE",
"1987 848 CURVE SMOOTH",
"1858 848 OFFCURVE",
"1755 760 OFFCURVE",
"1682 493 CURVE",
"1693 502 LINE",
"1711 602 OFFCURVE",
"1717 668 OFFCURVE",
"1717 715 CURVE SMOOTH",
"1717 801 OFFCURVE",
"1681 848 OFFCURVE",
"1596 848 CURVE SMOOTH",
"1491 848 OFFCURVE",
"1405 773 OFFCURVE",
"1358 708 CURVE SMOOTH",
"1337 679 OFFCURVE",
"1328 649 OFFCURVE",
"1328 626 CURVE SMOOTH",
"1328 601 OFFCURVE",
"1339 584 OFFCURVE",
"1355 584 CURVE SMOOTH",
"1366 584 OFFCURVE",
"1381 593 OFFCURVE",
"1396 613 CURVE SMOOTH",
"1455 691 OFFCURVE",
"1506 729 OFFCURVE",
"1536 729 CURVE SMOOTH",
"1556 729 OFFCURVE",
"1572 718 OFFCURVE",
"1572 679 CURVE SMOOTH",
"1572 653 OFFCURVE",
"1568 615 OFFCURVE",
"1560 559 CURVE SMOOTH",
"1531 353 OFFCURVE",
"1493 179 OFFCURVE",
"1493 94 CURVE SMOOTH",
"1493 26 OFFCURVE",
"1518 -5 OFFCURVE",
"1560 -5 CURVE SMOOTH",
"1611 -5 OFFCURVE",
"1639 25 OFFCURVE",
"1648 86 CURVE SMOOTH",
"1720 575 OFFCURVE",
"1850 721 OFFCURVE",
"1934 721 CURVE SMOOTH",
"1965 721 OFFCURVE",
"1984 698 OFFCURVE",
"1984 647 CURVE SMOOTH",
"1984 587 OFFCURVE",
"1958 456 OFFCURVE",
"1935 335 CURVE SMOOTH",
"1923 272 OFFCURVE",
"1896 135 OFFCURVE",
"1896 81 CURVE SMOOTH",
"1896 20 OFFCURVE",
"1927 -5 OFFCURVE",
"1970 -5 CURVE SMOOTH",
"2025 -5 OFFCURVE",
"2053 25 OFFCURVE",
"2062 86 CURVE SMOOTH",
"2134 574 OFFCURVE",
"2264 721 OFFCURVE",
"2348 721 CURVE SMOOTH",
"2379 721 OFFCURVE",
"2398 698 OFFCURVE",
"2398 651 CURVE SMOOTH",
"2398 607 OFFCURVE",
"2388 572 OFFCURVE",
"2380 535 CURVE SMOOTH",
"2339 352 LINE SMOOTH",
"2321 273 OFFCURVE",
"2315 221 OFFCURVE",
"2315 181 CURVE SMOOTH",
"2315 69 OFFCURVE",
"2382 -5 OFFCURVE",
"2494 -5 CURVE SMOOTH",
"2572 -5 OFFCURVE",
"2659 38 OFFCURVE",
"2706 124 CURVE SMOOTH",
"2718 146 OFFCURVE",
"2723 169 OFFCURVE",
"2723 187 CURVE SMOOTH",
"2723 210 OFFCURVE",
"2715 227 OFFCURVE",
"2702 227 CURVE SMOOTH"
);
},
{
closed = 1;
nodes = (
"1294 227 OFFCURVE",
"1284 222 OFFCURVE",
"1274 209 CURVE SMOOTH",
"1222 141 OFFCURVE",
"1184 114 OFFCURVE",
"1140 114 CURVE SMOOTH",
"1097 114 OFFCURVE",
"1067 141 OFFCURVE",
"1067 198 CURVE SMOOTH",
"1067 229 OFFCURVE",
"1071 254 OFFCURVE",
"1077 284 CURVE SMOOTH",
"1138 570 LINE SMOOTH",
"1146 609 OFFCURVE",
"1151 645 OFFCURVE",
"1151 677 CURVE SMOOTH",
"1151 783 OFFCURVE",
"1101 848 OFFCURVE",
"1000 848 CURVE SMOOTH",
"889 848 OFFCURVE",
"797 782 OFFCURVE",
"727 590 CURVE",
"735 628 OFFCURVE",
"736 646 OFFCURVE",
"736 669 CURVE SMOOTH",
"736 785 OFFCURVE",
"683 848 OFFCURVE",
"589 848 CURVE SMOOTH",
"479 848 OFFCURVE",
"386 776 OFFCURVE",
"310 553 CURVE",
"326 647 OFFCURVE",
"350 724 OFFCURVE",
"362 782 CURVE SMOOTH",
"372 829 OFFCURVE",
"357 852 OFFCURVE",
"298 852 CURVE SMOOTH",
"263 852 OFFCURVE",
"229 839 OFFCURVE",
"219 794 CURVE SMOOTH",
"174 592 OFFCURVE",
"130 328 OFFCURVE",
"116 103 CURVE SMOOTH",
"111 24 OFFCURVE",
"140 -5 OFFCURVE",
"183 -5 CURVE SMOOTH",
"234 -5 OFFCURVE",
"252 25 OFFCURVE",
"261 86 CURVE SMOOTH",
"333 575 OFFCURVE",
"463 721 OFFCURVE",
"547 721 CURVE SMOOTH",
"578 721 OFFCURVE",
"597 698 OFFCURVE",
"597 647 CURVE SMOOTH",
"597 587 OFFCURVE",
"571 456 OFFCURVE",
"548 335 CURVE SMOOTH",
"536 272 OFFCURVE",
"509 135 OFFCURVE",
"509 81 CURVE SMOOTH",
"509 20 OFFCURVE",
"540 -5 OFFCURVE",
"583 -5 CURVE SMOOTH",
"626 -5 OFFCURVE",
"657 25 OFFCURVE",
"667 96 CURVE SMOOTH",
"734 575 OFFCURVE",
"863 721 OFFCURVE",
"947 721 CURVE SMOOTH",
"978 721 OFFCURVE",
"997 698 OFFCURVE",
"997 651 CURVE SMOOTH",
"997 607 OFFCURVE",
"987 572 OFFCURVE",
"979 535 CURVE SMOOTH",
"938 352 LINE SMOOTH",
"920 273 OFFCURVE",
"914 221 OFFCURVE",
"914 181 CURVE SMOOTH",
"914 69 OFFCURVE",
"981 -5 OFFCURVE",
"1093 -5 CURVE SMOOTH",
"1171 -5 OFFCURVE",
"1258 38 OFFCURVE",
"1305 124 CURVE SMOOTH",
"1317 146 OFFCURVE",
"1322 169 OFFCURVE",
"1322 187 CURVE SMOOTH",
"1322 210 OFFCURVE",
"1314 227 OFFCURVE",
"1301 227 CURVE SMOOTH"
);
}
);
};
layerId = "ECEFE970-1BBB-4E0A-A452-CEB55884B4A3";
paths = (
{
closed = 1;
nodes = (
"1294 227 OFFCURVE",
"1284 222 OFFCURVE",
"1274 209 CURVE SMOOTH",
"1222 141 OFFCURVE",
"1184 114 OFFCURVE",
"1140 114 CURVE SMOOTH",
"1097 114 OFFCURVE",
"1067 141 OFFCURVE",
"1067 198 CURVE SMOOTH",
"1067 229 OFFCURVE",
"1071 254 OFFCURVE",
"1077 284 CURVE SMOOTH",
"1138 570 LINE SMOOTH",
"1146 609 OFFCURVE",
"1151 645 OFFCURVE",
"1151 677 CURVE SMOOTH",
"1151 783 OFFCURVE",
"1101 848 OFFCURVE",
"1000 848 CURVE SMOOTH",
"889 848 OFFCURVE",
"797 782 OFFCURVE",
"727 590 CURVE",
"735 628 OFFCURVE",
"736 646 OFFCURVE",
"736 669 CURVE SMOOTH",
"736 785 OFFCURVE",
"683 848 OFFCURVE",
"589 848 CURVE SMOOTH",
"484 848 OFFCURVE",
"393 790 OFFCURVE",
"299 538 CURVE",
"310 614 OFFCURVE",
"317 670 OFFCURVE",
"317 715 CURVE SMOOTH",
"317 801 OFFCURVE",
"281 848 OFFCURVE",
"201 848 CURVE SMOOTH",
"91 848 OFFCURVE",
"16 774 OFFCURVE",
"-32 708 CURVE SMOOTH",
"-53 679 OFFCURVE",
"-62 649 OFFCURVE",
"-62 626 CURVE SMOOTH",
"-62 601 OFFCURVE",
"-51 584 OFFCURVE",
"-35 584 CURVE SMOOTH",
"-24 584 OFFCURVE",
"-9 593 OFFCURVE",
"6 613 CURVE SMOOTH",
"65 691 OFFCURVE",
"116 729 OFFCURVE",
"146 729 CURVE SMOOTH",
"166 729 OFFCURVE",
"182 718 OFFCURVE",
"182 679 CURVE SMOOTH",
"182 653 OFFCURVE",
"177 615 OFFCURVE",
"170 559 CURVE SMOOTH",
"142 333 OFFCURVE",
"102 159 OFFCURVE",
"102 84 CURVE SMOOTH",
"102 26 OFFCURVE",
"128 -5 OFFCURVE",
"170 -5 CURVE SMOOTH",
"234 -5 OFFCURVE",
"252 25 OFFCURVE",
"261 86 CURVE SMOOTH",
"333 575 OFFCURVE",
"463 721 OFFCURVE",
"547 721 CURVE SMOOTH",
"578 721 OFFCURVE",
"597 698 OFFCURVE",
"597 647 CURVE SMOOTH",
"597 587 OFFCURVE",
"571 456 OFFCURVE",
"548 335 CURVE SMOOTH",
"536 272 OFFCURVE",
"509 135 OFFCURVE",
"509 81 CURVE SMOOTH",
"509 20 OFFCURVE",
"540 -5 OFFCURVE",
"583 -5 CURVE SMOOTH",
"626 -5 OFFCURVE",
"657 25 OFFCURVE",
"667 96 CURVE SMOOTH",
"734 575 OFFCURVE",
"863 721 OFFCURVE",
"947 721 CURVE SMOOTH",
"978 721 OFFCURVE",
"997 698 OFFCURVE",
"997 651 CURVE SMOOTH",
"997 607 OFFCURVE",
"987 572 OFFCURVE",
"979 535 CURVE SMOOTH",
"938 352 LINE SMOOTH",
"920 273 OFFCURVE",
"914 221 OFFCURVE",
"914 181 CURVE SMOOTH",
"914 69 OFFCURVE",
"981 -5 OFFCURVE",
"1093 -5 CURVE SMOOTH",
"1171 -5 OFFCURVE",
"1258 38 OFFCURVE",
"1305 124 CURVE SMOOTH",
"1317 146 OFFCURVE",
"1322 169 OFFCURVE",
"1322 187 CURVE SMOOTH",
"1322 210 OFFCURVE",
"1314 227 OFFCURVE",
"1301 227 CURVE SMOOTH"
);
}
);
width = 1190;
}
);
leftMetricsKey = N;
note = M;
rightMetricsKey = N;
unicode = 004D;
},
{
color = 3;
glyphname = N;
lastChange = "2016-07-25 13:45:24 +0000";
layers = (
{
background = {
paths = (
{
closed = 1;
nodes = (
"1567 848 OFFCURVE",
"1465 680 OFFCURVE",
"1369 398 CURVE",
"1260 -5 LINE",
"1311 -5 OFFCURVE",
"1333 26 OFFCURVE",
"1348 86 CURVE SMOOTH",
"1412 342 OFFCURVE",
"1570 701 OFFCURVE",
"1686 701 CURVE SMOOTH",
"1719 701 OFFCURVE",
"1731 675 OFFCURVE",
"1731 635 CURVE SMOOTH",
"1731 607 OFFCURVE",
"1725 572 OFFCURVE",
"1717 535 CURVE SMOOTH",
"1676 352 LINE SMOOTH",
"1658 273 OFFCURVE",
"1652 220 OFFCURVE",
"1652 180 CURVE SMOOTH",
"1652 68 OFFCURVE",
"1719 -5 OFFCURVE",
"1831 -5 CURVE SMOOTH",
"1909 -5 OFFCURVE",
"1996 38 OFFCURVE",
"2043 124 CURVE SMOOTH",
"2055 146 OFFCURVE",
"2060 169 OFFCURVE",
"2060 187 CURVE SMOOTH",
"2060 210 OFFCURVE",
"2052 227 OFFCURVE",
"2039 227 CURVE SMOOTH",
"2032 227 OFFCURVE",
"2022 222 OFFCURVE",
"2012 209 CURVE SMOOTH",
"1960 141 OFFCURVE",
"1922 114 OFFCURVE",
"1878 114 CURVE SMOOTH",
"1835 114 OFFCURVE",
"1806 141 OFFCURVE",
"1806 208 CURVE SMOOTH",
"1806 229 OFFCURVE",
"1809 254 OFFCURVE",
"1815 284 CURVE SMOOTH",
"1876 570 LINE SMOOTH",
"1884 609 OFFCURVE",
"1889 645 OFFCURVE",
"1889 677 CURVE SMOOTH",
"1889 786 OFFCURVE",
"1843 848 OFFCURVE",
"1744 848 CURVE SMOOTH"
);
},
{
closed = 1;
nodes = (
"1196 848 OFFCURVE",
"1105 773 OFFCURVE",
"1058 708 CURVE SMOOTH",
"1037 679 OFFCURVE",
"1028 649 OFFCURVE",
"1028 626 CURVE SMOOTH",
"1028 601 OFFCURVE",
"1039 584 OFFCURVE",
"1055 584 CURVE SMOOTH",
"1066 584 OFFCURVE",
"1081 593 OFFCURVE",
"1096 613 CURVE SMOOTH",
"1155 691 OFFCURVE",
"1206 729 OFFCURVE",
"1236 729 CURVE SMOOTH",
"1256 729 OFFCURVE",
"1272 718 OFFCURVE",
"1272 679 CURVE SMOOTH",
"1272 653 OFFCURVE",
"1268 615 OFFCURVE",
"1260 559 CURVE SMOOTH",
"1226 323 OFFCURVE",
"1189 189 OFFCURVE",
"1189 94 CURVE SMOOTH",
"1189 6 OFFCURVE",
"1218 -5 OFFCURVE",
"1259 -5 CURVE",
"1336 87 LINE",
"1369 398 LINE",
"1399 539 OFFCURVE",
"1417 668 OFFCURVE",
"1417 715 CURVE SMOOTH",
"1417 801 OFFCURVE",
"1386 848 OFFCURVE",
"1301 848 CURVE SMOOTH"
);
},
{
closed = 1;
nodes = (
"-32 616 OFFCURVE",
"-22 621 OFFCURVE",
"-12 634 CURVE SMOOTH",
"40 702 OFFCURVE",
"78 729 OFFCURVE",
"122 729 CURVE SMOOTH",
"161 729 OFFCURVE",
"182 705 OFFCURVE",
"182 654 CURVE SMOOTH",
"182 541 OFFCURVE",
"116 221 OFFCURVE",
"100 74 CURVE SMOOTH",
"95 27 OFFCURVE",
"113 -5 OFFCURVE",
"166 -5 CURVE SMOOTH",
"211 -5 OFFCURVE",
"240 15 OFFCURVE",
"248 76 CURVE SMOOTH",
"311 556 OFFCURVE",
"452 721 OFFCURVE",
"553 721 CURVE SMOOTH",
"608 721 OFFCURVE",
"630 692 OFFCURVE",
"630 627 CURVE SMOOTH",
"630 523 OFFCURVE",
"543 161 OFFCURVE",
"543 55 CURVE SMOOTH",
"543 19 OFFCURVE",
"567 -5 OFFCURVE",
"616 -5 CURVE SMOOTH",
"658 -5 OFFCURVE",
"695 14 OFFCURVE",
"697 55 CURVE SMOOTH",
"707 263 OFFCURVE",
"781 503 OFFCURVE",
"781 657 CURVE SMOOTH",
"781 776 OFFCURVE",
"720 848 OFFCURVE",
"601 848 CURVE SMOOTH",
"471 848 OFFCURVE",
"369 741 OFFCURVE",
"301 547 CURVE",
"314 609 OFFCURVE",
"320 648 OFFCURVE",
"320 695 CURVE SMOOTH",
"320 791 OFFCURVE",
"274 848 OFFCURVE",
"159 848 CURVE SMOOTH",
"91 848 OFFCURVE",
"4 805 OFFCURVE",
"-43 719 CURVE SMOOTH",
"-55 697 OFFCURVE",
"-60 679 OFFCURVE",
"-60 656 CURVE SMOOTH",
"-60 633 OFFCURVE",
"-52 616 OFFCURVE",
"-39 616 CURVE SMOOTH"
);
}
);
};
layerId = "ECEFE970-1BBB-4E0A-A452-CEB55884B4A3";
paths = (
{
closed = 1;
nodes = (
"469 848 OFFCURVE",
"367 741 OFFCURVE",
"301 547 CURVE",
"170 -5 LINE",
"217 -5 OFFCURVE",
"241 25 OFFCURVE",
"250 86 CURVE SMOOTH",
"318 555 OFFCURVE",
"450 721 OFFCURVE",
"561 721 CURVE SMOOTH",
"606 721 OFFCURVE",
"628 692 OFFCURVE",
"628 647 CURVE SMOOTH",
"628 609 OFFCURVE",
"620 572 OFFCURVE",
"612 535 CURVE SMOOTH",
"571 352 LINE SMOOTH",
"554 273 OFFCURVE",
"547 226 OFFCURVE",
"547 181 CURVE SMOOTH",
"547 69 OFFCURVE",
"614 -5 OFFCURVE",
"726 -5 CURVE SMOOTH",
"804 -5 OFFCURVE",
"891 38 OFFCURVE",
"938 124 CURVE SMOOTH",
"950 146 OFFCURVE",
"955 169 OFFCURVE",
"955 187 CURVE SMOOTH",
"955 210 OFFCURVE",
"947 227 OFFCURVE",
"934 227 CURVE SMOOTH",
"927 227 OFFCURVE",
"917 222 OFFCURVE",
"907 209 CURVE SMOOTH",
"854 142 OFFCURVE",
"817 114 OFFCURVE",
"773 114 CURVE SMOOTH",
"730 114 OFFCURVE",
"700 141 OFFCURVE",
"700 198 CURVE SMOOTH",
"700 229 OFFCURVE",
"704 254 OFFCURVE",
"710 284 CURVE SMOOTH",
"771 570 LINE SMOOTH",
"779 609 OFFCURVE",
"783 645 OFFCURVE",
"783 677 CURVE SMOOTH",
"783 776 OFFCURVE",
"728 848 OFFCURVE",
"609 848 CURVE SMOOTH"
);
},
{
closed = 1;
nodes = (
"91 848 OFFCURVE",
"15 775 OFFCURVE",
"-32 708 CURVE SMOOTH",
"-53 679 OFFCURVE",
"-62 649 OFFCURVE",
"-62 626 CURVE SMOOTH",
"-62 601 OFFCURVE",
"-51 584 OFFCURVE",
"-35 584 CURVE SMOOTH",
"-24 584 OFFCURVE",
"-9 593 OFFCURVE",
"6 613 CURVE SMOOTH",
"65 691 OFFCURVE",
"116 729 OFFCURVE",
"146 729 CURVE SMOOTH",
"166 729 OFFCURVE",
"182 718 OFFCURVE",
"182 679 CURVE SMOOTH",
"182 653 OFFCURVE",
"177 615 OFFCURVE",
"170 559 CURVE SMOOTH",
"141 333 OFFCURVE",
"102 159 OFFCURVE",
"102 84 CURVE SMOOTH",
"102 26 OFFCURVE",
"128 -5 OFFCURVE",
"170 -5 CURVE",
"236 87 LINE",
"301 547 LINE",
"310 609 OFFCURVE",
"317 668 OFFCURVE",
"317 715 CURVE SMOOTH",
"317 801 OFFCURVE",
"281 848 OFFCURVE",
"201 848 CURVE SMOOTH"
);
}
);
width = 823;
}
);
note = N;
unicode = 004E;
},
{
color = 3;
glyphname = O;
lastChange = "2016-07-25 22:41:27 +0000";
layers = (
{
background = {
paths = (
{
closed = 1;
nodes = (
"617 -5 OFFCURVE",
"803 217 OFFCURVE",
"803 505 CURVE SMOOTH",
"803 724 OFFCURVE",
"671 848 OFFCURVE",
"497 848 CURVE SMOOTH",
"222 848 OFFCURVE",
"69 592 OFFCURVE",
"69 338 CURVE SMOOTH",
"69 119 OFFCURVE",
"201 -5 OFFCURVE",
"385 -5 CURVE SMOOTH"
);
},
{
closed = 1;
nodes = (
"296 117 OFFCURVE",
"218 191 OFFCURVE",
"218 356 CURVE SMOOTH",
"218 550 OFFCURVE",
"322 726 OFFCURVE",
"476 726 CURVE SMOOTH",
"576 726 OFFCURVE",
"654 651 OFFCURVE",
"654 487 CURVE SMOOTH",
"654 265 OFFCURVE",
"532 117 OFFCURVE",
"396 117 CURVE SMOOTH"
);
}
);
};
guideLines = (
{
angle = 90;
position = "{211, 354}";
},
{
angle = 90;
position = "{665, 354}";
},
{
position = "{391, 105}";
},
{
position = "{391, 738}";
}
);
layerId = "ECEFE970-1BBB-4E0A-A452-CEB55884B4A3";
paths = (
{
closed = 1;
nodes = (
"617 -5 OFFCURVE",
"803 217 OFFCURVE",
"803 505 CURVE SMOOTH",
"803 724 OFFCURVE",
"661 848 OFFCURVE",
"487 848 CURVE SMOOTH",
"212 848 OFFCURVE",
"69 592 OFFCURVE",
"69 338 CURVE SMOOTH",
"69 119 OFFCURVE",
"201 -5 OFFCURVE",
"385 -5 CURVE SMOOTH"
);
},
{
closed = 1;
nodes = (
"296 115 OFFCURVE",
"218 191 OFFCURVE",
"218 356 CURVE SMOOTH",
"218 570 OFFCURVE",
"322 728 OFFCURVE",
"476 728 CURVE SMOOTH",
"576 728 OFFCURVE",
"654 651 OFFCURVE",
"654 487 CURVE SMOOTH",
"654 245 OFFCURVE",
"532 115 OFFCURVE",
"396 115 CURVE SMOOTH"
);
}
);
width = 814;
}
);
leftKerningGroup = O;
note = O;
rightKerningGroup = O;
unicode = 004F;
},
{
color = 3;
glyphname = Oslash;
lastChange = "2016-07-25 22:41:33 +0000";
layers = (
{
background = {
paths = (
{
closed = 1;
nodes = (
"1255 -94 OFFCURVE",
"1334 -54 OFFCURVE",
"1399 8 CURVE SMOOTH",
"1464 70 OFFCURVE",
"1513 156 OFFCURVE",
"1546 248 CURVE SMOOTH",
"1579 339 OFFCURVE",
"1597 437 OFFCURVE",
"1597 524 CURVE SMOOTH",
"1597 612 OFFCURVE",
"1579 689 OFFCURVE",
"1546 752 CURVE SMOOTH",
"1513 815 OFFCURVE",
"1463 860 OFFCURVE",
"1401 885 CURVE",
"1403 891 OFFCURVE",
"1408 911 OFFCURVE",
"1413 932 CURVE SMOOTH",
"1418 952 OFFCURVE",
"1424 974 OFFCURVE",
"1424 983 CURVE",
"1425 986 OFFCURVE",
"1425 988 OFFCURVE",
"1425 991 CURVE SMOOTH",
"1425 993 OFFCURVE",
"1425 996 OFFCURVE",
"1425 998 CURVE SMOOTH",
"1425 1017 OFFCURVE",
"1422 1030 OFFCURVE",
"1404 1030 CURVE SMOOTH",
"1386 1030 OFFCURVE",
"1371 1021 OFFCURVE",
"1359 1006 CURVE SMOOTH",
"1347 991 OFFCURVE",
"1336 971 OFFCURVE",
"1330 950 CURVE SMOOTH",
"1318 905 LINE",
"1307 906 OFFCURVE",
"1297 906 OFFCURVE",
"1286 906 CURVE SMOOTH",
"1189 906 OFFCURVE",
"1108 869 OFFCURVE",
"1043 809 CURVE SMOOTH",
"978 749 OFFCURVE",
"929 667 OFFCURVE",
"896 579 CURVE SMOOTH",
"863 491 OFFCURVE",
"847 396 OFFCURVE",
"847 309 CURVE SMOOTH",
"847 218 OFFCURVE",
"865 137 OFFCURVE",
"899 72 CURVE SMOOTH",
"933 7 OFFCURVE",
"981 -42 OFFCURVE",
"1043 -69 CURVE",
"1030 -113 OFFCURVE",
"1026 -146 OFFCURVE",
"1026 -168 CURVE SMOOTH",
"1026 -190 OFFCURVE",
"1029 -202 OFFCURVE",
"1036 -208 CURVE",
"1042 -214 OFFCURVE",
"1050 -215 OFFCURVE",
"1060 -215 CURVE SMOOTH",
"1068 -215 OFFCURVE",
"1076 -213 OFFCURVE",
"1084 -206 CURVE SMOOTH",
"1093 -198 OFFCURVE",
"1102 -184 OFFCURVE",
"1110 -160 CURVE",
"1130 -92 LINE",
"1140 -93 OFFCURVE",
"1151 -94 OFFCURVE",
"1162 -94 CURVE SMOOTH"
);
},
{
closed = 1;
nodes = (
"1172 16 OFFCURVE",
"1170 16 OFFCURVE",
"1168 16 CURVE SMOOTH",
"1165 16 OFFCURVE",
"1163 16 OFFCURVE",
"1161 16 CURVE",
"1175 63 OFFCURVE",
"1188 111 OFFCURVE",
"1202 159 CURVE SMOOTH",
"1216 208 OFFCURVE",
"1229 255 OFFCURVE",
"1242 303 CURVE SMOOTH",
"1255 350 OFFCURVE",
"1268 396 OFFCURVE",
"1280 442 CURVE SMOOTH",
"1304 533 OFFCURVE",
"1328 617 OFFCURVE",
"1348 691 CURVE SMOOTH",
"1358 729 OFFCURVE",
"1368 763 OFFCURVE",
"1376 794 CURVE",
"1408 776 OFFCURVE",
"1432 745 OFFCURVE",
"1448 705 CURVE SMOOTH",
"1464 665 OFFCURVE",
"1472 615 OFFCURVE",
"1472 563 CURVE SMOOTH",
"1472 518 OFFCURVE",
"1467 461 OFFCURVE",
"1455 401 CURVE SMOOTH",
"1443 342 OFFCURVE",
"1425 278 OFFCURVE",
"1401 222 CURVE SMOOTH",
"1377 165 OFFCURVE",
"1346 113 OFFCURVE",
"1309 76 CURVE SMOOTH",
"1271 38 OFFCURVE",
"1226 16 OFFCURVE",
"1174 16 CURVE SMOOTH"
);
},
{
closed = 1;
nodes = (
"1042 66 OFFCURVE",
"1016 100 OFFCURVE",
"999 141 CURVE SMOOTH",
"982 182 OFFCURVE",
"972 230 OFFCURVE",
"972 285 CURVE SMOOTH",
"972 356 OFFCURVE",
"988 438 OFFCURVE",
"1016 514 CURVE SMOOTH",
"1044 590 OFFCURVE",
"1085 663 OFFCURVE",
"1132 717 CURVE SMOOTH",
"1179 771 OFFCURVE",
"1234 808 OFFCURVE",
"1292 812 CURVE",
"1271 738 OFFCURVE",
"1246 650 OFFCURVE",
"1220 558 CURVE SMOOTH",
"1194 465 OFFCURVE",
"1167 369 OFFCURVE",
"1141 280 CURVE SMOOTH",
"1128 235 OFFCURVE",
"1117 193 OFFCURVE",
"1106 153 CURVE SMOOTH",
"1095 113 OFFCURVE",
"1084 77 OFFCURVE",
"1075 44 CURVE"
);
}
);
};
guideLines = (
{
angle = 83.1811;
position = "{436, 422}";
}
);
layerId = "ECEFE970-1BBB-4E0A-A452-CEB55884B4A3";
paths = (
{
closed = 1;
nodes = (
"617 -5 OFFCURVE",
"803 217 OFFCURVE",
"803 505 CURVE SMOOTH",
"803 724 OFFCURVE",
"661 848 OFFCURVE",
"487 848 CURVE SMOOTH",
"212 848 OFFCURVE",
"69 592 OFFCURVE",
"69 338 CURVE SMOOTH",
"69 119 OFFCURVE",
"201 -5 OFFCURVE",
"385 -5 CURVE SMOOTH"
);
},
{
closed = 1;
nodes = (
"296 115 OFFCURVE",
"218 191 OFFCURVE",
"218 356 CURVE SMOOTH",
"218 570 OFFCURVE",
"322 728 OFFCURVE",
"476 728 CURVE SMOOTH",
"576 728 OFFCURVE",
"654 651 OFFCURVE",
"654 487 CURVE SMOOTH",
"654 245 OFFCURVE",
"532 115 OFFCURVE",
"396 115 CURVE SMOOTH"
);
},
{
closed = 1;
nodes = (
"392 455 LINE",
"254 -57 LINE SMOOTH",
"232 -137 OFFCURVE",
"341 -147 OFFCURVE",
"357 -84 CURVE SMOOTH",
"496 451 LINE",
"617 893 LINE SMOOTH",
"639 974 OFFCURVE",
"529 984 OFFCURVE",
"513 921 CURVE SMOOTH"
);
}
);
width = 814;
}
);
leftKerningGroup = O;
leftMetricsKey = O;
note = Oslash;
rightKerningGroup = O;
rightMetricsKey = O;
unicode = 00D8;
},
{
color = 3;
glyphname = OE;
lastChange = "2016-07-22 19:25:56 +0000";
layers = (
{
background = {
paths = (
{
closed = 1;
nodes = (
"617 -5 OFFCURVE",
"803 217 OFFCURVE",
"803 505 CURVE SMOOTH",
"803 724 OFFCURVE",
"661 848 OFFCURVE",
"487 848 CURVE SMOOTH",
"212 848 OFFCURVE",
"69 592 OFFCURVE",
"69 338 CURVE SMOOTH",
"69 119 OFFCURVE",
"201 -5 OFFCURVE",
"385 -5 CURVE SMOOTH"
);
},
{
closed = 1;
nodes = (
"296 115 OFFCURVE",
"218 191 OFFCURVE",
"218 356 CURVE SMOOTH",
"218 570 OFFCURVE",
"322 728 OFFCURVE",
"476 728 CURVE SMOOTH",
"576 728 OFFCURVE",
"654 651 OFFCURVE",
"654 487 CURVE SMOOTH",
"654 245 OFFCURVE",
"532 115 OFFCURVE",
"396 115 CURVE SMOOTH"
);
},
{
closed = 1;
nodes = (
"1161 720 OFFCURVE",
"1191 751 OFFCURVE",
"1191 787 CURVE SMOOTH",
"1191 824 OFFCURVE",
"1166 849 OFFCURVE",
"1107 849 CURVE SMOOTH",
"1031 849 OFFCURVE",
"961 845 OFFCURVE",
"907 842 CURVE SMOOTH",
"820 837 OFFCURVE",
"759 801 OFFCURVE",
"729 691 CURVE SMOOTH",
"658 431 LINE",
"649 264 LINE",
"643 121 OFFCURVE",
"725 -5 OFFCURVE",
"950 -5 CURVE SMOOTH",
"1041 -5 OFFCURVE",
"1124 20 OFFCURVE",
"1200 59 CURVE SMOOTH",
"1284 102 OFFCURVE",
"1281 200 OFFCURVE",
"1202 174 CURVE SMOOTH",
"1131 151 OFFCURVE",
"1057 120 OFFCURVE",
"973 120 CURVE SMOOTH",
"806 120 OFFCURVE",
"770 212 OFFCURVE",
"804 361 CURVE",
"913 363 OFFCURVE",
"961 365 OFFCURVE",
"1039 367 CURVE SMOOTH",
"1102 369 OFFCURVE",
"1125 396 OFFCURVE",
"1125 436 CURVE SMOOTH",
"1125 464 OFFCURVE",
"1110 490 OFFCURVE",
"1061 490 CURVE SMOOTH",
"990 490 OFFCURVE",
"917 486 OFFCURVE",
"828 483 CURVE",
"844 556 OFFCURVE",
"866 651 OFFCURVE",
"886 713 CURVE",
"927 716 OFFCURVE",
"1027 720 OFFCURVE",
"1079 720 CURVE SMOOTH"
);
}
);
};
layerId = "ECEFE970-1BBB-4E0A-A452-CEB55884B4A3";
paths = (
{
closed = 1;
nodes = (
"617 -5 OFFCURVE",
"787 217 OFFCURVE",
"787 505 CURVE SMOOTH",
"787 724 OFFCURVE",
"661 848 OFFCURVE",
"487 848 CURVE SMOOTH",
"212 848 OFFCURVE",
"69 592 OFFCURVE",
"69 338 CURVE SMOOTH",
"69 119 OFFCURVE",
"201 -5 OFFCURVE",
"385 -5 CURVE SMOOTH"
);
},
{
closed = 1;
nodes = (
"296 115 OFFCURVE",
"218 191 OFFCURVE",
"218 356 CURVE SMOOTH",
"218 570 OFFCURVE",
"322 728 OFFCURVE",
"476 728 CURVE SMOOTH",
"576 728 OFFCURVE",
"654 651 OFFCURVE",
"654 487 CURVE SMOOTH",
"654 245 OFFCURVE",
"532 115 OFFCURVE",
"396 115 CURVE SMOOTH"
);
},
{
closed = 1;
nodes = (
"1160 720 OFFCURVE",
"1190 751 OFFCURVE",
"1190 787 CURVE SMOOTH",
"1190 824 OFFCURVE",
"1165 849 OFFCURVE",
"1106 849 CURVE SMOOTH",
"1030 849 OFFCURVE",
"960 845 OFFCURVE",
"906 842 CURVE SMOOTH",
"819 837 OFFCURVE",
"758 801 OFFCURVE",
"728 691 CURVE SMOOTH",
"681 520 LINE",
"648 264 LINE",
"642 121 OFFCURVE",
"724 -5 OFFCURVE",
"949 -5 CURVE SMOOTH",
"1040 -5 OFFCURVE",
"1123 20 OFFCURVE",
"1199 59 CURVE SMOOTH",
"1283 102 OFFCURVE",
"1280 200 OFFCURVE",
"1201 174 CURVE SMOOTH",
"1130 151 OFFCURVE",
"1056 120 OFFCURVE",
"972 120 CURVE SMOOTH",
"805 120 OFFCURVE",
"769 212 OFFCURVE",
"803 361 CURVE",
"912 363 OFFCURVE",
"960 365 OFFCURVE",
"1038 367 CURVE SMOOTH",
"1101 369 OFFCURVE",
"1124 396 OFFCURVE",
"1124 436 CURVE SMOOTH",
"1124 464 OFFCURVE",
"1109 490 OFFCURVE",
"1060 490 CURVE SMOOTH",
"989 490 OFFCURVE",
"916 486 OFFCURVE",
"827 483 CURVE",
"843 556 OFFCURVE",
"865 651 OFFCURVE",
"885 713 CURVE",
"926 716 OFFCURVE",
"1026 720 OFFCURVE",
"1078 720 CURVE SMOOTH"
);
}
);
width = 1124;
}
);
note = OE;
unicode = 0152;
},
{
color = 3;
glyphname = P;
lastChange = "2016-07-26 12:20:20 +0000";
layers = (
{
background = {
paths = (
{
closed = 1;
nodes = (
"496 428 OFFCURVE",
"517 548 CURVE SMOOTH",
"528 612 OFFCURVE",
"522 646 OFFCURVE",
"458 646 CURVE SMOOTH",
"418 646 OFFCURVE",
"382 632 OFFCURVE",
"371 573 CURVE SMOOTH",
"345 434 OFFCURVE",
"315 252 OFFCURVE",
"285 85 CURVE SMOOTH",
"277 41 OFFCURVE",
"257 26 OFFCURVE",
"242 26 CURVE SMOOTH",
"211 26 OFFCURVE",
"184 116 OFFCURVE",
"184 257 CURVE SMOOTH",
"184 550 OFFCURVE",
"286 732 OFFCURVE",
"497 732 CURVE SMOOTH",
"611 732 OFFCURVE",
"668 664 OFFCURVE",
"668 577 CURVE SMOOTH",
"668 474 OFFCURVE",
"608 372 OFFCURVE",
"406 372 CURVE SMOOTH",
"371 372 OFFCURVE",
"332 375 OFFCURVE",
"299 381 CURVE SMOOTH",
"261 388 OFFCURVE",
"229 369 OFFCURVE",
"229 332 CURVE SMOOTH",
"229 310 OFFCURVE",
"241 287 OFFCURVE",
"285 279 CURVE SMOOTH",
"318 273 OFFCURVE",
"368 269 OFFCURVE",
"414 269 CURVE SMOOTH",
"678 269 OFFCURVE",
"822 417 OFFCURVE",
"822 596 CURVE SMOOTH",
"822 735 OFFCURVE",
"720 846 OFFCURVE",
"518 846 CURVE SMOOTH",
"223 846 OFFCURVE",
"73 608 OFFCURVE",
"73 252 CURVE SMOOTH",
"73 4 OFFCURVE",
"163 -109 OFFCURVE",
"271 -109 CURVE SMOOTH",
"350 -109 OFFCURVE",
"414 -44 OFFCURVE",
"435 70 CURVE SMOOTH",
"469 256 OFFCURVE"
);
}
);
};
layerId = "ECEFE970-1BBB-4E0A-A452-CEB55884B4A3";
paths = (
{
closed = 1;
nodes = (
"496 428 OFFCURVE",
"517 548 CURVE SMOOTH",
"528 612 OFFCURVE",
"522 646 OFFCURVE",
"458 646 CURVE SMOOTH",
"418 646 OFFCURVE",
"382 632 OFFCURVE",
"371 573 CURVE SMOOTH",
"345 434 OFFCURVE",
"315 252 OFFCURVE",
"285 85 CURVE SMOOTH",
"277 41 OFFCURVE",
"264 26 OFFCURVE",
"246 26 CURVE SMOOTH",
"211 26 OFFCURVE",
"166 96 OFFCURVE",
"166 227 CURVE SMOOTH",
"166 520 OFFCURVE",
"296 732 OFFCURVE",
"515 732 CURVE SMOOTH",
"624 732 OFFCURVE",
"678 664 OFFCURVE",
"678 577 CURVE SMOOTH",
"678 474 OFFCURVE",
"621 372 OFFCURVE",
"408 372 CURVE SMOOTH",
"371 372 OFFCURVE",
"332 375 OFFCURVE",
"299 381 CURVE SMOOTH",
"261 388 OFFCURVE",
"229 369 OFFCURVE",
"229 332 CURVE SMOOTH",
"229 310 OFFCURVE",
"241 287 OFFCURVE",
"285 279 CURVE SMOOTH",
"318 273 OFFCURVE",
"368 269 OFFCURVE",
"414 269 CURVE SMOOTH",
"681 269 OFFCURVE",
"832 417 OFFCURVE",
"832 596 CURVE SMOOTH",
"832 735 OFFCURVE",
"733 846 OFFCURVE",
"540 846 CURVE SMOOTH",
"240 846 OFFCURVE",
"55 587 OFFCURVE",
"55 219 CURVE SMOOTH",
"55 -6 OFFCURVE",
"163 -109 OFFCURVE",
"271 -109 CURVE SMOOTH",
"350 -109 OFFCURVE",
"414 -44 OFFCURVE",
"435 70 CURVE SMOOTH",
"469 256 OFFCURVE"
);
}
);
width = 821;
}
);
note = P;
unicode = 0050;
},
{
color = 3;
glyphname = Thorn;
lastChange = "2016-07-26 12:06:10 +0000";
layers = (
{
background = {
paths = (
{
closed = 1;
nodes = (
"1345 204 OFFCURVE",
"1421 235 OFFCURVE",
"1471 275 CURVE SMOOTH",
"1521 315 OFFCURVE",
"1545 363 OFFCURVE",
"1545 414 CURVE SMOOTH",
"1545 474 OFFCURVE",
"1523 533 OFFCURVE",
"1480 580 CURVE SMOOTH",
"1436 628 OFFCURVE",
"1371 662 OFFCURVE",
"1285 674 CURVE",
"1292 740 LINE",
"1327 906 LINE",
"1327 907 OFFCURVE",
"1327 908 OFFCURVE",
"1327 909 CURVE",
"1327 910 OFFCURVE",
"1327 911 OFFCURVE",
"1327 914 CURVE SMOOTH",
"1327 930 OFFCURVE",
"1321 940 OFFCURVE",
"1313 946 CURVE",
"1305 952 OFFCURVE",
"1294 954 OFFCURVE",
"1284 954 CURVE SMOOTH",
"1253 954 OFFCURVE",
"1231 936 OFFCURVE",
"1214 909 CURVE SMOOTH",
"1197 882 OFFCURVE",
"1187 847 OFFCURVE",
"1180 813 CURVE SMOOTH",
"1173 780 OFFCURVE",
"1169 748 OFFCURVE",
"1169 727 CURVE SMOOTH",
"1169 726 OFFCURVE",
"1169 720 OFFCURVE",
"1168 711 CURVE",
"1167 702 OFFCURVE",
"1166 690 OFFCURVE",
"1164 675 CURVE",
"1069 662 OFFCURVE",
"989 613 OFFCURVE",
"933 536 CURVE SMOOTH",
"877 459 OFFCURVE",
"846 351 OFFCURVE",
"846 223 CURVE SMOOTH",
"846 170 OFFCURVE",
"851 109 OFFCURVE",
"861 50 CURVE SMOOTH",
"871 -9 OFFCURVE",
"889 -64 OFFCURVE",
"913 -105 CURVE SMOOTH",
"937 -147 OFFCURVE",
"969 -173 OFFCURVE",
"1010 -173 CURVE SMOOTH",
"1086 -173 OFFCURVE",
"1134 -149 OFFCURVE",
"1170 -92 CURVE SMOOTH",
"1206 -35 OFFCURVE",
"1225 57 OFFCURVE",
"1243 192 CURVE"
);
},
{
closed = 1;
nodes = (
"977 312 OFFCURVE",
"990 384 OFFCURVE",
"1018 442 CURVE SMOOTH",
"1046 500 OFFCURVE",
"1091 543 OFFCURVE",
"1153 558 CURVE",
"1149 519 OFFCURVE",
"1145 477 OFFCURVE",
"1142 438 CURVE SMOOTH",
"1139 399 OFFCURVE",
"1134 365 OFFCURVE",
"1132 339 CURVE SMOOTH",
"1131 327 OFFCURVE",
"1130 316 OFFCURVE",
"1129 309 CURVE SMOOTH",
"1128 301 OFFCURVE",
"1128 297 OFFCURVE",
"1128 297 CURVE",
"1122 297 OFFCURVE",
"1115 298 OFFCURVE",
"1108 299 CURVE",
"1103 300 OFFCURVE",
"1099 301 OFFCURVE",
"1094 301 CURVE",
"1086 306 OFFCURVE",
"1081 309 OFFCURVE",
"1075 309 CURVE SMOOTH",
"1065 309 OFFCURVE",
"1060 303 OFFCURVE",
"1057 294 CURVE SMOOTH",
"1054 285 OFFCURVE",
"1054 273 OFFCURVE",
"1054 261 CURVE SMOOTH",
"1054 247 OFFCURVE",
"1055 237 OFFCURVE",
"1064 228 CURVE SMOOTH",
"1073 219 OFFCURVE",
"1090 209 OFFCURVE",
"1122 196 CURVE",
"1122 178 OFFCURVE",
"1119 144 OFFCURVE",
"1113 106 CURVE SMOOTH",
"1107 69 OFFCURVE",
"1096 27 OFFCURVE",
"1081 -5 CURVE SMOOTH",
"1066 -37 OFFCURVE",
"1046 -59 OFFCURVE",
"1021 -59 CURVE SMOOTH",
"1013 -59 OFFCURVE",
"1007 -53 OFFCURVE",
"1002 -42 CURVE SMOOTH",
"992 -20 OFFCURVE",
"985 18 OFFCURVE",
"982 62 CURVE SMOOTH",
"979 106 OFFCURVE",
"977 152 OFFCURVE",
"977 190 CURVE SMOOTH",
"977 209 OFFCURVE",
"977 224 OFFCURVE",
"977 236 CURVE SMOOTH"
);
},
{
closed = 1;
nodes = (
"1430 381 OFFCURVE",
"1416 360 OFFCURVE",
"1386 343 CURVE SMOOTH",
"1356 326 OFFCURVE",
"1310 313 OFFCURVE",
"1246 307 CURVE",
"1273 559 LINE",
"1333 549 OFFCURVE",
"1373 525 OFFCURVE",
"1397 496 CURVE SMOOTH",
"1421 467 OFFCURVE",
"1430 433 OFFCURVE",
"1430 402 CURVE SMOOTH"
);
},
{
closed = 1;
nodes = (
"476 428 OFFCURVE",
"497 548 CURVE SMOOTH",
"508 612 OFFCURVE",
"502 646 OFFCURVE",
"438 646 CURVE SMOOTH",
"398 646 OFFCURVE",
"362 632 OFFCURVE",
"351 573 CURVE SMOOTH",
"325 434 OFFCURVE",
"295 252 OFFCURVE",
"265 85 CURVE SMOOTH",
"257 41 OFFCURVE",
"237 26 OFFCURVE",
"222 26 CURVE SMOOTH",
"191 26 OFFCURVE",
"164 116 OFFCURVE",
"164 257 CURVE SMOOTH",
"164 550 OFFCURVE",
"266 732 OFFCURVE",
"477 732 CURVE SMOOTH",
"591 732 OFFCURVE",
"648 664 OFFCURVE",
"648 577 CURVE SMOOTH",
"648 474 OFFCURVE",
"588 372 OFFCURVE",
"386 372 CURVE SMOOTH",
"351 372 OFFCURVE",
"312 375 OFFCURVE",
"279 381 CURVE SMOOTH",
"241 388 OFFCURVE",
"209 369 OFFCURVE",
"209 332 CURVE SMOOTH",
"209 310 OFFCURVE",
"221 287 OFFCURVE",
"265 279 CURVE SMOOTH",
"298 273 OFFCURVE",
"348 269 OFFCURVE",
"394 269 CURVE SMOOTH",
"658 269 OFFCURVE",
"802 417 OFFCURVE",
"802 596 CURVE SMOOTH",
"802 735 OFFCURVE",
"700 846 OFFCURVE",
"498 846 CURVE SMOOTH",
"203 846 OFFCURVE",
"53 608 OFFCURVE",
"53 252 CURVE SMOOTH",
"53 4 OFFCURVE",
"143 -109 OFFCURVE",
"251 -109 CURVE SMOOTH",
"330 -109 OFFCURVE",
"394 -44 OFFCURVE",
"415 70 CURVE SMOOTH",
"449 256 OFFCURVE"
);
}
);
};
layerId = "ECEFE970-1BBB-4E0A-A452-CEB55884B4A3";
paths = (
{
closed = 1;
nodes = (
"492 545 OFFCURVE",
"530 830 CURVE SMOOTH",
"539 894 OFFCURVE",
"533 938 OFFCURVE",
"474 938 CURVE SMOOTH",
"436 938 OFFCURVE",
"397 924 OFFCURVE",
"389 865 CURVE SMOOTH",
"356 619 OFFCURVE",
"319 369 OFFCURVE",
"267 85 CURVE SMOOTH",
"259 41 OFFCURVE",
"245 26 OFFCURVE",
"225 26 CURVE SMOOTH",
"193 26 OFFCURVE",
"174 126 OFFCURVE",
"174 207 CURVE SMOOTH",
"174 470 OFFCURVE",
"276 622 OFFCURVE",
"477 622 CURVE SMOOTH",
"601 622 OFFCURVE",
"648 564 OFFCURVE",
"648 487 CURVE SMOOTH",
"648 404 OFFCURVE",
"598 306 OFFCURVE",
"396 306 CURVE SMOOTH",
"361 306 OFFCURVE",
"322 309 OFFCURVE",
"289 315 CURVE SMOOTH",
"251 322 OFFCURVE",
"219 303 OFFCURVE",
"219 266 CURVE SMOOTH",
"219 244 OFFCURVE",
"231 221 OFFCURVE",
"275 213 CURVE SMOOTH",
"308 207 OFFCURVE",
"358 203 OFFCURVE",
"404 203 CURVE SMOOTH",
"668 203 OFFCURVE",
"802 347 OFFCURVE",
"802 506 CURVE SMOOTH",
"802 635 OFFCURVE",
"700 736 OFFCURVE",
"498 736 CURVE SMOOTH",
"213 736 OFFCURVE",
"63 528 OFFCURVE",
"63 202 CURVE SMOOTH",
"63 14 OFFCURVE",
"143 -109 OFFCURVE",
"251 -109 CURVE SMOOTH",
"330 -109 OFFCURVE",
"395 -44 OFFCURVE",
"415 70 CURVE SMOOTH",
"468 373 OFFCURVE"
);
}
);
width = 791;
}
);
note = Thorn;
unicode = 00DE;
},
{
color = 4;
glyphname = Q;
lastChange = "2016-07-26 12:55:09 +0000";
layers = (
{
background = {
paths = (
{
closed = 1;
nodes = (
"1717 -5 OFFCURVE",
"1903 217 OFFCURVE",
"1903 505 CURVE SMOOTH",
"1903 724 OFFCURVE",
"1761 848 OFFCURVE",
"1587 848 CURVE SMOOTH",
"1312 848 OFFCURVE",
"1169 592 OFFCURVE",
"1169 338 CURVE SMOOTH",
"1169 119 OFFCURVE",
"1301 -5 OFFCURVE",
"1485 -5 CURVE SMOOTH"
);
},
{
closed = 1;
nodes = (
"1396 115 OFFCURVE",
"1318 191 OFFCURVE",
"1318 356 CURVE SMOOTH",
"1318 570 OFFCURVE",
"1422 728 OFFCURVE",
"1576 728 CURVE SMOOTH",
"1676 728 OFFCURVE",
"1754 651 OFFCURVE",
"1754 487 CURVE SMOOTH",
"1754 245 OFFCURVE",
"1632 115 OFFCURVE",
"1496 115 CURVE SMOOTH"
);
},
{
closed = 1;
nodes = (
"1836 -303 OFFCURVE",
"1916 -266 OFFCURVE",
"1948 -208 CURVE SMOOTH",
"2000 -113 OFFCURVE",
"1936 -68 OFFCURVE",
"1897 -125 CURVE SMOOTH",
"1867 -169 OFFCURVE",
"1828 -194 OFFCURVE",
"1785 -194 CURVE SMOOTH",
"1703 -194 OFFCURVE",
"1621 -124 OFFCURVE",
"1531 46 CURVE",
"1402 25 LINE",
"1481 -212 OFFCURVE",
"1596 -303 OFFCURVE",
"1762 -303 CURVE SMOOTH"
);
},
{
closed = 1;
nodes = (
"617 -5 OFFCURVE",
"803 217 OFFCURVE",
"803 505 CURVE SMOOTH",
"803 724 OFFCURVE",
"661 848 OFFCURVE",
"487 848 CURVE SMOOTH",
"212 848 OFFCURVE",
"69 592 OFFCURVE",
"69 338 CURVE SMOOTH",
"69 119 OFFCURVE",
"201 -5 OFFCURVE",
"385 -5 CURVE SMOOTH"
);
},
{
closed = 1;
nodes = (
"296 115 OFFCURVE",
"218 191 OFFCURVE",
"218 356 CURVE SMOOTH",
"218 570 OFFCURVE",
"322 728 OFFCURVE",
"476 728 CURVE SMOOTH",
"576 728 OFFCURVE",
"654 651 OFFCURVE",
"654 487 CURVE SMOOTH",
"654 245 OFFCURVE",
"532 115 OFFCURVE",
"396 115 CURVE SMOOTH"
);
},
{
closed = 1;
nodes = (
"735 -326 OFFCURVE",
"822 -283 OFFCURVE",
"869 -197 CURVE SMOOTH",
"881 -175 OFFCURVE",
"886 -152 OFFCURVE",
"886 -134 CURVE SMOOTH",
"886 -111 OFFCURVE",
"878 -94 OFFCURVE",
"865 -94 CURVE SMOOTH",
"858 -94 OFFCURVE",
"848 -99 OFFCURVE",
"838 -112 CURVE SMOOTH",
"786 -180 OFFCURVE",
"748 -207 OFFCURVE",
"704 -207 CURVE SMOOTH",
"654 -207 OFFCURVE",
"633 -171 OFFCURVE",
"592 -86 CURVE SMOOTH",
"548 5 OFFCURVE",
"500 41 OFFCURVE",
"374 41 CURVE",
"315 1 LINE",
"384 -10 OFFCURVE",
"397 -38 OFFCURVE",
"441 -147 CURVE SMOOTH",
"476 -233 OFFCURVE",
"513 -326 OFFCURVE",
"656 -326 CURVE SMOOTH"
);
}
);
};
layerId = "ECEFE970-1BBB-4E0A-A452-CEB55884B4A3";
paths = (
{
closed = 1;
nodes = (
"858 -94 OFFCURVE",
"848 -99 OFFCURVE",
"838 -112 CURVE SMOOTH",
"786 -180 OFFCURVE",
"748 -207 OFFCURVE",
"704 -207 CURVE SMOOTH",
"654 -207 OFFCURVE",
"633 -171 OFFCURVE",
"592 -86 CURVE SMOOTH",
"563 -26 OFFCURVE",
"533 10 OFFCURVE",
"479 27 CURVE",
"480 8 LINE",
"665 59 OFFCURVE",
"803 257 OFFCURVE",
"803 505 CURVE SMOOTH",
"803 724 OFFCURVE",
"661 848 OFFCURVE",
"487 848 CURVE SMOOTH",
"212 848 OFFCURVE",
"69 592 OFFCURVE",
"69 338 CURVE SMOOTH",
"69 148 OFFCURVE",
"169 31 OFFCURVE",
"315 1 CURVE SMOOTH",
"384 -13 OFFCURVE",
"397 -38 OFFCURVE",
"441 -147 CURVE SMOOTH",
"476 -233 OFFCURVE",
"513 -326 OFFCURVE",
"656 -326 CURVE SMOOTH",
"735 -326 OFFCURVE",
"822 -283 OFFCURVE",
"869 -197 CURVE SMOOTH",
"881 -175 OFFCURVE",
"886 -152 OFFCURVE",
"886 -134 CURVE SMOOTH",
"886 -111 OFFCURVE",
"878 -94 OFFCURVE",
"865 -94 CURVE SMOOTH"
);
},
{
closed = 1;
nodes = (
"218 570 OFFCURVE",
"322 728 OFFCURVE",
"476 728 CURVE SMOOTH",
"576 728 OFFCURVE",
"654 651 OFFCURVE",
"654 487 CURVE SMOOTH",
"654 245 OFFCURVE",
"532 115 OFFCURVE",
"396 115 CURVE SMOOTH",
"296 115 OFFCURVE",
"218 191 OFFCURVE",
"218 356 CURVE SMOOTH"
);
}
);
width = 814;
}
);
leftKerningGroup = O;
leftMetricsKey = O;
widthMetricsKey = O;
note = Q;
rightKerningGroup = O;
unicode = 0051;
},
{
color = 3;
glyphname = R;
lastChange = "2016-07-26 12:55:12 +0000";
layers = (
{
background = {
paths = (
{
closed = 1;
nodes = (
"1687 318 OFFCURVE",
"1711 472 OFFCURVE",
"1729 579 CURVE SMOOTH",
"1739 637 OFFCURVE",
"1725 667 OFFCURVE",
"1668 667 CURVE SMOOTH",
"1632 667 OFFCURVE",
"1594 654 OFFCURVE",
"1584 602 CURVE SMOOTH",
"1560 477 OFFCURVE",
"1535 303 OFFCURVE",
"1507 165 CURVE SMOOTH",
"1499 125 OFFCURVE",
"1489 112 OFFCURVE",
"1472 112 CURVE SMOOTH",
"1441 112 OFFCURVE",
"1401 175 OFFCURVE",
"1401 292 CURVE SMOOTH",
"1401 554 OFFCURVE",
"1517 733 OFFCURVE",
"1713 733 CURVE SMOOTH",
"1811 733 OFFCURVE",
"1859 683 OFFCURVE",
"1859 605 CURVE SMOOTH",
"1859 513 OFFCURVE",
"1808 422 OFFCURVE",
"1617 422 CURVE SMOOTH",
"1584 422 OFFCURVE",
"1555 422 OFFCURVE",
"1526 422 CURVE SMOOTH",
"1501 422 OFFCURVE",
"1475 405 OFFCURVE",
"1475 372 CURVE SMOOTH",
"1475 352 OFFCURVE",
"1483 318 OFFCURVE",
"1523 318 CURVE SMOOTH",
"1543 318 OFFCURVE",
"1582 318 OFFCURVE",
"1623 318 CURVE SMOOTH",
"1872 318 OFFCURVE",
"2008 462 OFFCURVE",
"2008 622 CURVE SMOOTH",
"2008 747 OFFCURVE",
"1918 846 OFFCURVE",
"1736 846 CURVE SMOOTH",
"1465 846 OFFCURVE",
"1292 614 OFFCURVE",
"1292 285 CURVE SMOOTH",
"1292 83 OFFCURVE",
"1398 -5 OFFCURVE",
"1500 -5 CURVE SMOOTH",
"1590 -5 OFFCURVE",
"1637 49 OFFCURVE",
"1656 151 CURVE SMOOTH"
);
},
{
closed = 1;
nodes = (
"2053 -5 OFFCURVE",
"2133 32 OFFCURVE",
"2165 90 CURVE SMOOTH",
"2217 185 OFFCURVE",
"2153 230 OFFCURVE",
"2114 173 CURVE SMOOTH",
"2084 129 OFFCURVE",
"2045 104 OFFCURVE",
"2012 104 CURVE SMOOTH",
"1900 104 OFFCURVE",
"1948 370 OFFCURVE",
"1716 370 CURVE",
"1627 317 LINE",
"1819 318 OFFCURVE",
"1703 -5 OFFCURVE",
"1979 -5 CURVE SMOOTH"
);
},
{
closed = 1;
nodes = (
"371 -5 OFFCURVE",
"418 49 OFFCURVE",
"437 151 CURVE SMOOTH",
"468 318 OFFCURVE",
"488 458 OFFCURVE",
"507 565 CURVE SMOOTH",
"517 623 OFFCURVE",
"503 653 OFFCURVE",
"446 653 CURVE SMOOTH",
"410 653 OFFCURVE",
"372 640 OFFCURVE",
"362 588 CURVE SMOOTH",
"338 463 OFFCURVE",
"314 303 OFFCURVE",
"288 165 CURVE SMOOTH",
"281 125 OFFCURVE",
"270 112 OFFCURVE",
"253 112 CURVE SMOOTH",
"222 112 OFFCURVE",
"172 175 OFFCURVE",
"172 322 CURVE SMOOTH",
"172 588 OFFCURVE",
"306 733 OFFCURVE",
"501 733 CURVE SMOOTH",
"602 733 OFFCURVE",
"662 683 OFFCURVE",
"662 605 CURVE SMOOTH",
"662 513 OFFCURVE",
"589 422 OFFCURVE",
"398 422 CURVE SMOOTH",
"365 422 OFFCURVE",
"336 422 OFFCURVE",
"307 422 CURVE SMOOTH",
"282 422 OFFCURVE",
"256 403 OFFCURVE",
"256 370 CURVE SMOOTH",
"256 350 OFFCURVE",
"264 318 OFFCURVE",
"315 318 CURVE",
"412 335 LINE",
"651 335 OFFCURVE",
"811 462 OFFCURVE",
"811 622 CURVE SMOOTH",
"811 747 OFFCURVE",
"711 846 OFFCURVE",
"519 846 CURVE SMOOTH",
"274 846 OFFCURVE",
"63 669 OFFCURVE",
"63 315 CURVE SMOOTH",
"63 123 OFFCURVE",
"152 -5 OFFCURVE",
"279 -5 CURVE SMOOTH"
);
},
{
closed = 1;
nodes = (
"848 -5 OFFCURVE",
"935 38 OFFCURVE",
"982 124 CURVE SMOOTH",
"994 146 OFFCURVE",
"999 169 OFFCURVE",
"999 187 CURVE SMOOTH",
"999 210 OFFCURVE",
"991 227 OFFCURVE",
"978 227 CURVE SMOOTH",
"971 227 OFFCURVE",
"961 222 OFFCURVE",
"951 209 CURVE SMOOTH",
"899 141 OFFCURVE",
"861 114 OFFCURVE",
"817 114 CURVE SMOOTH",
"701 114 OFFCURVE",
"729 370 OFFCURVE",
"497 370 CURVE",
"408 317 LINE",
"600 318 OFFCURVE",
"504 -5 OFFCURVE",
"769 -5 CURVE SMOOTH"
);
}
);
};
layerId = "ECEFE970-1BBB-4E0A-A452-CEB55884B4A3";
paths = (
{
closed = 1;
nodes = (
"371 -5 OFFCURVE",
"418 49 OFFCURVE",
"437 151 CURVE SMOOTH",
"468 318 OFFCURVE",
"488 458 OFFCURVE",
"507 565 CURVE SMOOTH",
"517 623 OFFCURVE",
"503 653 OFFCURVE",
"446 653 CURVE SMOOTH",
"410 653 OFFCURVE",
"372 640 OFFCURVE",
"362 588 CURVE SMOOTH",
"338 463 OFFCURVE",
"314 303 OFFCURVE",
"288 165 CURVE SMOOTH",
"281 125 OFFCURVE",
"270 112 OFFCURVE",
"253 112 CURVE SMOOTH",
"222 112 OFFCURVE",
"172 175 OFFCURVE",
"172 322 CURVE SMOOTH",
"172 588 OFFCURVE",
"306 733 OFFCURVE",
"501 733 CURVE SMOOTH",
"602 733 OFFCURVE",
"662 681 OFFCURVE",
"662 602 CURVE SMOOTH",
"662 491 OFFCURVE",
"572 419 OFFCURVE",
"421 419 CURVE SMOOTH",
"365 419 OFFCURVE",
"336 419 OFFCURVE",
"307 419 CURVE SMOOTH",
"282 419 OFFCURVE",
"256 400 OFFCURVE",
"256 367 CURVE SMOOTH",
"256 347 OFFCURVE",
"264 315 OFFCURVE",
"315 315 CURVE",
"422 339 LINE",
"691 339 OFFCURVE",
"811 487 OFFCURVE",
"811 622 CURVE SMOOTH",
"811 747 OFFCURVE",
"711 846 OFFCURVE",
"529 846 CURVE SMOOTH",
"274 846 OFFCURVE",
"63 669 OFFCURVE",
"63 315 CURVE SMOOTH",
"63 123 OFFCURVE",
"152 -5 OFFCURVE",
"279 -5 CURVE SMOOTH"
);
},
{
closed = 1;
nodes = (
"848 -5 OFFCURVE",
"935 38 OFFCURVE",
"982 124 CURVE SMOOTH",
"994 146 OFFCURVE",
"999 169 OFFCURVE",
"999 187 CURVE SMOOTH",
"999 210 OFFCURVE",
"991 227 OFFCURVE",
"978 227 CURVE SMOOTH",
"971 227 OFFCURVE",
"961 222 OFFCURVE",
"951 209 CURVE SMOOTH",
"899 141 OFFCURVE",
"861 114 OFFCURVE",
"817 114 CURVE SMOOTH",
"767 114 OFFCURVE",
"746 150 OFFCURVE",
"705 235 CURVE SMOOTH",
"661 326 OFFCURVE",
"613 362 OFFCURVE",
"487 362 CURVE",
"428 316 LINE",
"497 316 OFFCURVE",
"510 283 OFFCURVE",
"554 174 CURVE SMOOTH",
"588 88 OFFCURVE",
"626 -5 OFFCURVE",
"769 -5 CURVE SMOOTH"
);
}
);
width = 867;
}
);
note = R;
unicode = 0052;
},
{
color = 3;
glyphname = S;
lastChange = "2016-07-26 10:16:54 +0000";
layers = (
{
background = {
paths = (
{
closed = 1;
nodes = (
"77 53 OFFCURVE",
"195 -16 OFFCURVE",
"367 -16 CURVE SMOOTH",
"531 -16 OFFCURVE",
"702 66 OFFCURVE",
"702 238 CURVE SMOOTH",
"702 367 OFFCURVE",
"617 423 OFFCURVE",
"479 477 CURVE SMOOTH",
"383 515 OFFCURVE",
"304 548 OFFCURVE",
"302 622 CURVE SMOOTH",
"300 694 OFFCURVE",
"375 735 OFFCURVE",
"470 735 CURVE SMOOTH",
"553 735 OFFCURVE",
"596 703 OFFCURVE",
"603 628 CURVE SMOOTH",
"608 572 OFFCURVE",
"631 547 OFFCURVE",
"675 547 CURVE SMOOTH",
"733 547 OFFCURVE",
"752 596 OFFCURVE",
"747 654 CURVE SMOOTH",
"735 792 OFFCURVE",
"616 849 OFFCURVE",
"475 849 CURVE SMOOTH",
"275 849 OFFCURVE",
"146 747 OFFCURVE",
"146 601 CURVE SMOOTH",
"146 465 OFFCURVE",
"252 407 OFFCURVE",
"355 370 CURVE SMOOTH",
"454 334 OFFCURVE",
"552 309 OFFCURVE",
"552 215 CURVE SMOOTH",
"552 139 OFFCURVE",
"466 100 OFFCURVE",
"377 100 CURVE SMOOTH",
"288 100 OFFCURVE",
"228 134 OFFCURVE",
"228 186 CURVE SMOOTH",
"228 296 OFFCURVE",
"448 333 OFFCURVE",
"876 333 CURVE SMOOTH",
"940 333 OFFCURVE",
"948 432 OFFCURVE",
"857 432 CURVE SMOOTH",
"412 432 OFFCURVE",
"77 380 OFFCURVE",
"77 164 CURVE SMOOTH"
);
}
);
};
layerId = "ECEFE970-1BBB-4E0A-A452-CEB55884B4A3";
paths = (
{
closed = 1;
nodes = (
"77 54 OFFCURVE",
"195 -16 OFFCURVE",
"367 -16 CURVE SMOOTH",
"531 -16 OFFCURVE",
"702 66 OFFCURVE",
"702 238 CURVE SMOOTH",
"702 367 OFFCURVE",
"617 423 OFFCURVE",
"479 477 CURVE SMOOTH",
"348 528 OFFCURVE",
"304 558 OFFCURVE",
"302 617 CURVE SMOOTH",
"300 694 OFFCURVE",
"375 735 OFFCURVE",
"462 735 CURVE SMOOTH",
"553 735 OFFCURVE",
"596 703 OFFCURVE",
"603 628 CURVE SMOOTH",
"608 572 OFFCURVE",
"631 547 OFFCURVE",
"675 547 CURVE SMOOTH",
"733 547 OFFCURVE",
"752 596 OFFCURVE",
"747 654 CURVE SMOOTH",
"735 792 OFFCURVE",
"616 849 OFFCURVE",
"475 849 CURVE SMOOTH",
"275 849 OFFCURVE",
"149 747 OFFCURVE",
"149 601 CURVE SMOOTH",
"149 475 OFFCURVE",
"252 407 OFFCURVE",
"355 370 CURVE SMOOTH",
"454 334 OFFCURVE",
"552 309 OFFCURVE",
"552 215 CURVE SMOOTH",
"552 136 OFFCURVE",
"466 97 OFFCURVE",
"377 97 CURVE SMOOTH",
"288 97 OFFCURVE",
"227 131 OFFCURVE",
"227 186 CURVE SMOOTH",
"227 296 OFFCURVE",
"448 333 OFFCURVE",
"876 333 CURVE SMOOTH",
"940 333 OFFCURVE",
"948 432 OFFCURVE",
"857 432 CURVE SMOOTH",
"412 432 OFFCURVE",
"77 380 OFFCURVE",
"77 164 CURVE SMOOTH"
);
}
);
width = 744;
}
);
note = S;
unicode = 0053;
},
{
color = 3;
glyphname = Germandbls;
lastChange = "2016-07-25 08:05:26 +0000";
layers = (
{
background = {
paths = (
{
closed = 1;
nodes = (
"1994 -19 OFFCURVE",
"1993 23 OFFCURVE",
"1993 78 CURVE SMOOTH",
"1993 140 OFFCURVE",
"1994 211 OFFCURVE",
"2000 284 CURVE SMOOTH",
"2020 526 OFFCURVE",
"2081 742 OFFCURVE",
"2263 742 CURVE SMOOTH",
"2333 742 OFFCURVE",
"2388 712 OFFCURVE",
"2388 652 CURVE SMOOTH",
"2388 558 OFFCURVE",
"2303 506 OFFCURVE",
"2192 506 CURVE SMOOTH",
"2167 506 OFFCURVE",
"2154 502 OFFCURVE",
"2146 492 CURVE SMOOTH",
"2110 447 OFFCURVE",
"2119 380 OFFCURVE",
"2186 380 CURVE SMOOTH",
"2293 380 OFFCURVE",
"2370 341 OFFCURVE",
"2370 254 CURVE SMOOTH",
"2370 169 OFFCURVE",
"2271 106 OFFCURVE",
"2155 106 CURVE SMOOTH",
"2096 106 OFFCURVE",
"2062 -6 OFFCURVE",
"2182 -6 CURVE SMOOTH",
"2374 -6 OFFCURVE",
"2528 90 OFFCURVE",
"2528 262 CURVE SMOOTH",
"2528 372 OFFCURVE",
"2431 469 OFFCURVE",
"2300 465 CURVE",
"2297 436 LINE",
"2399 435 OFFCURVE",
"2547 513 OFFCURVE",
"2547 655 CURVE SMOOTH",
"2547 771 OFFCURVE",
"2426 846 OFFCURVE",
"2282 846 CURVE SMOOTH",
"2003 846 OFFCURVE",
"1903 590 OFFCURVE",
"1868 270 CURVE SMOOTH",
"1857 169 OFFCURVE",
"1853 60 OFFCURVE",
"1853 -37 CURVE SMOOTH",
"1853 -74 OFFCURVE",
"1885 -91 OFFCURVE",
"1918 -91 CURVE SMOOTH",
"1962 -91 OFFCURVE",
"1994 -69 OFFCURVE",
"1994 -28 CURVE SMOOTH"
);
},
{
closed = 1;
nodes = (
"909 227 OFFCURVE",
"899 222 OFFCURVE",
"889 209 CURVE SMOOTH",
"837 141 OFFCURVE",
"799 114 OFFCURVE",
"755 114 CURVE SMOOTH",
"712 114 OFFCURVE",
"682 141 OFFCURVE",
"682 198 CURVE SMOOTH",
"682 229 OFFCURVE",
"686 255 OFFCURVE",
"692 284 CURVE SMOOTH",
"753 570 LINE SMOOTH",
"761 609 OFFCURVE",
"765 645 OFFCURVE",
"765 677 CURVE SMOOTH",
"765 776 OFFCURVE",
"711 848 OFFCURVE",
"592 848 CURVE SMOOTH",
"452 848 OFFCURVE",
"352 744 OFFCURVE",
"271 527 CURVE",
"296 647 OFFCURVE",
"318 724 OFFCURVE",
"330 782 CURVE SMOOTH",
"340 829 OFFCURVE",
"325 852 OFFCURVE",
"268 852 CURVE SMOOTH",
"223 852 OFFCURVE",
"188 839 OFFCURVE",
"177 794 CURVE SMOOTH",
"130 602 OFFCURVE",
"90 328 OFFCURVE",
"76 103 CURVE SMOOTH",
"71 24 OFFCURVE",
"98 -5 OFFCURVE",
"143 -5 CURVE SMOOTH",
"199 -5 OFFCURVE",
"224 26 OFFCURVE",
"231 86 CURVE SMOOTH",
"281 513 OFFCURVE",
"428 721 OFFCURVE",
"543 721 CURVE SMOOTH",
"588 721 OFFCURVE",
"610 692 OFFCURVE",
"610 647 CURVE SMOOTH",
"610 619 OFFCURVE",
"602 572 OFFCURVE",
"594 535 CURVE SMOOTH",
"553 352 LINE SMOOTH",
"535 273 OFFCURVE",
"529 224 OFFCURVE",
"529 181 CURVE SMOOTH",
"529 69 OFFCURVE",
"596 -5 OFFCURVE",
"708 -5 CURVE SMOOTH",
"786 -5 OFFCURVE",
"874 40 OFFCURVE",
"920 124 CURVE SMOOTH",
"932 146 OFFCURVE",
"937 169 OFFCURVE",
"937 187 CURVE SMOOTH",
"937 210 OFFCURVE",
"929 227 OFFCURVE",
"916 227 CURVE SMOOTH"
);
},
{
closed = 1;
nodes = (
"1194 8 OFFCURVE",
"1195 218 OFFCURVE",
"1200 284 CURVE SMOOTH",
"1218 526 OFFCURVE",
"1281 735 OFFCURVE",
"1473 735 CURVE SMOOTH",
"1548 735 OFFCURVE",
"1588 703 OFFCURVE",
"1588 642 CURVE SMOOTH",
"1588 558 OFFCURVE",
"1503 490 OFFCURVE",
"1392 490 CURVE SMOOTH",
"1326 490 OFFCURVE",
"1318 380 OFFCURVE",
"1386 380 CURVE SMOOTH",
"1493 380 OFFCURVE",
"1570 351 OFFCURVE",
"1570 244 CURVE SMOOTH",
"1570 149 OFFCURVE",
"1471 89 OFFCURVE",
"1365 75 CURVE SMOOTH",
"1276 63 OFFCURVE",
"1292 -33 OFFCURVE",
"1418 -26 CURVE SMOOTH",
"1594 -16 OFFCURVE",
"1728 100 OFFCURVE",
"1728 262 CURVE SMOOTH",
"1728 372 OFFCURVE",
"1631 457 OFFCURVE",
"1490 453 CURVE",
"1487 436 LINE",
"1599 435 OFFCURVE",
"1747 513 OFFCURVE",
"1747 655 CURVE SMOOTH",
"1747 781 OFFCURVE",
"1646 856 OFFCURVE",
"1482 856 CURVE SMOOTH",
"1203 856 OFFCURVE",
"1103 590 OFFCURVE",
"1068 270 CURVE SMOOTH",
"1057 169 OFFCURVE",
"1053 60 OFFCURVE",
"1053 -37 CURVE SMOOTH",
"1053 -74 OFFCURVE",
"1085 -91 OFFCURVE",
"1118 -91 CURVE SMOOTH",
"1162 -91 OFFCURVE",
"1194 -69 OFFCURVE",
"1194 -28 CURVE SMOOTH"
);
}
);
};
layerId = "ECEFE970-1BBB-4E0A-A452-CEB55884B4A3";
paths = (
{
closed = 1;
nodes = (
"702 475 OFFCURVE",
"816 560 OFFCURVE",
"816 686 CURVE SMOOTH",
"816 781 OFFCURVE",
"735 848 OFFCURVE",
"623 848 CURVE SMOOTH",
"465 848 OFFCURVE",
"334 739 OFFCURVE",
"257 479 CURVE",
"260 469 LINE",
"291 630 OFFCURVE",
"317 718 OFFCURVE",
"330 782 CURVE SMOOTH",
"340 829 OFFCURVE",
"325 852 OFFCURVE",
"268 852 CURVE SMOOTH",
"225 852 OFFCURVE",
"190 839 OFFCURVE",
"179 794 CURVE SMOOTH",
"132 602 OFFCURVE",
"91 328 OFFCURVE",
"77 93 CURVE SMOOTH",
"73 24 OFFCURVE",
"100 -5 OFFCURVE",
"143 -5 CURVE SMOOTH",
"199 -5 OFFCURVE",
"224 26 OFFCURVE",
"231 86 CURVE SMOOTH",
"282 481 OFFCURVE",
"423 725 OFFCURVE",
"578 725 CURVE SMOOTH",
"628 725 OFFCURVE",
"657 698 OFFCURVE",
"657 652 CURVE SMOOTH",
"657 574 OFFCURVE",
"571 519 OFFCURVE",
"456 492 CURVE SMOOTH",
"401 479 OFFCURVE",
"392 382 OFFCURVE",
"450 380 CURVE SMOOTH",
"557 376 OFFCURVE",
"639 348 OFFCURVE",
"639 244 CURVE SMOOTH",
"639 159 OFFCURVE",
"563 76 OFFCURVE",
"414 46 CURVE SMOOTH",
"329 29 OFFCURVE",
"342 -63 OFFCURVE",
"469 -46 CURVE SMOOTH",
"653 -22 OFFCURVE",
"797 100 OFFCURVE",
"797 252 CURVE SMOOTH",
"797 368 OFFCURVE",
"706 449 OFFCURVE",
"568 451 CURVE",
"572 440 LINE"
);
}
);
width = 817;
}
);
unicode = 1E9E;
},
{
color = 3;
glyphname = T;
lastChange = "2016-07-25 22:43:09 +0000";
layers = (
{
background = {
paths = (
{
closed = 1;
nodes = (
"2065 638 OFFCURVE",
"2068 627 OFFCURVE",
"2074 618 CURVE SMOOTH",
"2084 603 OFFCURVE",
"2104 587 OFFCURVE",
"2143 587 CURVE SMOOTH",
"2162 587 OFFCURVE",
"2177 590 OFFCURVE",
"2188 597 CURVE SMOOTH",
"2208 610 OFFCURVE",
"2218 625 OFFCURVE",
"2220 639 CURVE",
"2220 645 OFFCURVE",
"2221 649 OFFCURVE",
"2221 649 CURVE SMOOTH",
"2221 674 OFFCURVE",
"2235 692 OFFCURVE",
"2257 705 CURVE SMOOTH",
"2278 718 OFFCURVE",
"2308 726 OFFCURVE",
"2342 732 CURVE SMOOTH",
"2375 738 OFFCURVE",
"2411 740 OFFCURVE",
"2446 743 CURVE",
"2406 619 OFFCURVE",
"2372 520 OFFCURVE",
"2342 436 CURVE SMOOTH",
"2312 352 OFFCURVE",
"2289 284 OFFCURVE",
"2270 222 CURVE SMOOTH",
"2251 160 OFFCURVE",
"2237 104 OFFCURVE",
"2229 45 CURVE",
"2227 38 OFFCURVE",
"2226 31 OFFCURVE",
"2226 24 CURVE SMOOTH",
"2226 -15 OFFCURVE",
"2253 -31 OFFCURVE",
"2290 -31 CURVE SMOOTH",
"2302 -31 OFFCURVE",
"2317 -23 OFFCURVE",
"2331 -10 CURVE SMOOTH",
"2345 3 OFFCURVE",
"2355 23 OFFCURVE",
"2361 45 CURVE SMOOTH",
"2368 69 OFFCURVE",
"2375 98 OFFCURVE",
"2384 131 CURVE SMOOTH",
"2393 165 OFFCURVE",
"2404 202 OFFCURVE",
"2415 241 CURVE SMOOTH",
"2437 320 OFFCURVE",
"2462 409 OFFCURVE",
"2484 497 CURVE SMOOTH",
"2506 584 OFFCURVE",
"2525 670 OFFCURVE",
"2536 743 CURVE",
"2603 739 OFFCURVE",
"2665 732 OFFCURVE",
"2724 726 CURVE SMOOTH",
"2783 720 OFFCURVE",
"2837 713 OFFCURVE",
"2887 713 CURVE SMOOTH",
"2902 713 OFFCURVE",
"2915 720 OFFCURVE",
"2925 730 CURVE SMOOTH",
"2935 740 OFFCURVE",
"2941 753 OFFCURVE",
"2941 766 CURVE SMOOTH",
"2941 787 OFFCURVE",
"2930 806 OFFCURVE",
"2899 812 CURVE SMOOTH",
"2764 838 OFFCURVE",
"2640 844 OFFCURVE",
"2527 844 CURVE SMOOTH",
"2443 844 OFFCURVE",
"2364 840 OFFCURVE",
"2296 830 CURVE SMOOTH",
"2227 820 OFFCURVE",
"2169 802 OFFCURVE",
"2129 773 CURVE SMOOTH",
"2088 744 OFFCURVE",
"2064 704 OFFCURVE",
"2064 649 CURVE"
);
},
{
closed = 1;
nodes = (
"1312 720 OFFCURVE",
"1388 717 OFFCURVE",
"1489 717 CURVE SMOOTH",
"1567 717 OFFCURVE",
"1685 720 OFFCURVE",
"1749 732 CURVE SMOOTH",
"1793 740 OFFCURVE",
"1811 764 OFFCURVE",
"1811 788 CURVE SMOOTH",
"1811 832 OFFCURVE",
"1788 855 OFFCURVE",
"1734 851 CURVE SMOOTH",
"1630 843 OFFCURVE",
"1558 840 OFFCURVE",
"1469 840 CURVE SMOOTH",
"1388 840 OFFCURVE",
"1313 847 OFFCURVE",
"1222 847 CURVE SMOOTH",
"1179 847 OFFCURVE",
"1156 834 OFFCURVE",
"1156 799 CURVE SMOOTH",
"1156 750 OFFCURVE",
"1189 730 OFFCURVE",
"1251 725 CURVE SMOOTH"
);
},
{
closed = 1;
nodes = (
"1283 601 OFFCURVE",
"1270 525 OFFCURVE",
"1237 345 CURVE SMOOTH",
"1214 218 OFFCURVE",
"1192 105 OFFCURVE",
"1192 50 CURVE SMOOTH",
"1192 15 OFFCURVE",
"1215 -5 OFFCURVE",
"1267 -5 CURVE SMOOTH",
"1309 -5 OFFCURVE",
"1348 14 OFFCURVE",
"1348 55 CURVE SMOOTH",
"1348 108 OFFCURVE",
"1370 267 OFFCURVE",
"1387 357 CURVE SMOOTH",
"1418 521 OFFCURVE",
"1429 598 OFFCURVE",
"1461 765 CURVE",
"1311 754 LINE"
);
},
{
closed = 1;
nodes = (
"114 460 OFFCURVE",
"195 510 OFFCURVE",
"171 548 CURVE SMOOTH",
"162 562 OFFCURVE",
"151 585 OFFCURVE",
"151 613 CURVE SMOOTH",
"151 695 OFFCURVE",
"229 724 OFFCURVE",
"522 724 CURVE SMOOTH",
"641 724 OFFCURVE",
"703 719 OFFCURVE",
"807 711 CURVE SMOOTH",
"861 707 OFFCURVE",
"884 730 OFFCURVE",
"884 774 CURVE SMOOTH",
"884 798 OFFCURVE",
"866 822 OFFCURVE",
"822 830 CURVE SMOOTH",
"758 842 OFFCURVE",
"680 847 OFFCURVE",
"572 847 CURVE SMOOTH",
"197 847 OFFCURVE",
"32 781 OFFCURVE",
"32 611 CURVE SMOOTH",
"32 556 OFFCURVE",
"52 513 OFFCURVE",
"78 491 CURVE SMOOTH"
);
}
);
};
layerId = "ECEFE970-1BBB-4E0A-A452-CEB55884B4A3";
paths = (
{
closed = 1;
nodes = (
"384 620 OFFCURVE",
"363 515 OFFCURVE",
"337 355 CURVE SMOOTH",
"316 228 OFFCURVE",
"293 105 OFFCURVE",
"293 55 CURVE SMOOTH",
"293 19 OFFCURVE",
"317 -5 OFFCURVE",
"366 -5 CURVE SMOOTH",
"408 -5 OFFCURVE",
"444 14 OFFCURVE",
"447 55 CURVE SMOOTH",
"453 128 OFFCURVE",
"471 267 OFFCURVE",
"486 357 CURVE SMOOTH",
"514 521 OFFCURVE",
"534 627 OFFCURVE",
"562 765 CURVE",
"410 754 LINE"
);
},
{
closed = 1;
nodes = (
"114 460 OFFCURVE",
"195 510 OFFCURVE",
"171 548 CURVE SMOOTH",
"162 562 OFFCURVE",
"151 585 OFFCURVE",
"151 613 CURVE SMOOTH",
"151 695 OFFCURVE",
"229 724 OFFCURVE",
"498 724 CURVE SMOOTH",
"657 724 OFFCURVE",
"719 719 OFFCURVE",
"823 711 CURVE SMOOTH",
"877 707 OFFCURVE",
"900 730 OFFCURVE",
"900 774 CURVE SMOOTH",
"900 798 OFFCURVE",
"882 822 OFFCURVE",
"838 830 CURVE SMOOTH",
"774 842 OFFCURVE",
"696 847 OFFCURVE",
"568 847 CURVE SMOOTH",
"197 847 OFFCURVE",
"32 781 OFFCURVE",
"32 611 CURVE SMOOTH",
"32 556 OFFCURVE",
"52 513 OFFCURVE",
"78 491 CURVE SMOOTH"
);
}
);
width = 668;
}
);
note = T;
unicode = 0054;
},
{
color = 3;
glyphname = U;
lastChange = "2016-07-26 08:12:33 +0000";
layers = (
{
background = {
paths = (
{
closed = 1;
nodes = (
"927 227 OFFCURVE",
"917 222 OFFCURVE",
"907 209 CURVE SMOOTH",
"855 141 OFFCURVE",
"817 114 OFFCURVE",
"773 114 CURVE SMOOTH",
"734 114 OFFCURVE",
"713 138 OFFCURVE",
"713 189 CURVE SMOOTH",
"713 302 OFFCURVE",
"779 622 OFFCURVE",
"795 769 CURVE SMOOTH",
"800 816 OFFCURVE",
"782 848 OFFCURVE",
"729 848 CURVE SMOOTH",
"684 848 OFFCURVE",
"655 828 OFFCURVE",
"647 767 CURVE SMOOTH",
"584 287 OFFCURVE",
"443 122 OFFCURVE",
"342 122 CURVE SMOOTH",
"287 122 OFFCURVE",
"265 151 OFFCURVE",
"265 216 CURVE SMOOTH",
"265 309 OFFCURVE",
"333 569 OFFCURVE",
"333 715 CURVE SMOOTH",
"333 801 OFFCURVE",
"294 848 OFFCURVE",
"208 848 CURVE SMOOTH",
"98 848 OFFCURVE",
"16 774 OFFCURVE",
"-32 708 CURVE SMOOTH",
"-53 679 OFFCURVE",
"-62 649 OFFCURVE",
"-62 626 CURVE SMOOTH",
"-62 601 OFFCURVE",
"-51 584 OFFCURVE",
"-35 584 CURVE SMOOTH",
"-24 584 OFFCURVE",
"-9 593 OFFCURVE",
"6 613 CURVE SMOOTH",
"65 691 OFFCURVE",
"116 729 OFFCURVE",
"146 729 CURVE SMOOTH",
"166 729 OFFCURVE",
"182 718 OFFCURVE",
"182 679 CURVE SMOOTH",
"182 560 OFFCURVE",
"114 326 OFFCURVE",
"114 186 CURVE SMOOTH",
"114 67 OFFCURVE",
"175 -5 OFFCURVE",
"294 -5 CURVE SMOOTH",
"424 -5 OFFCURVE",
"526 102 OFFCURVE",
"594 296 CURVE",
"581 234 OFFCURVE",
"575 195 OFFCURVE",
"575 148 CURVE SMOOTH",
"575 52 OFFCURVE",
"621 -5 OFFCURVE",
"736 -5 CURVE SMOOTH",
"804 -5 OFFCURVE",
"891 38 OFFCURVE",
"938 124 CURVE SMOOTH",
"950 146 OFFCURVE",
"955 164 OFFCURVE",
"955 187 CURVE SMOOTH",
"955 210 OFFCURVE",
"947 227 OFFCURVE",
"934 227 CURVE SMOOTH"
);
}
);
};
layerId = "ECEFE970-1BBB-4E0A-A452-CEB55884B4A3";
paths = (
{
closed = 1;
nodes = (
"927 227 OFFCURVE",
"917 222 OFFCURVE",
"907 209 CURVE SMOOTH",
"855 141 OFFCURVE",
"817 114 OFFCURVE",
"773 114 CURVE SMOOTH",
"734 114 OFFCURVE",
"713 138 OFFCURVE",
"713 189 CURVE SMOOTH",
"713 302 OFFCURVE",
"779 622 OFFCURVE",
"795 769 CURVE SMOOTH",
"800 816 OFFCURVE",
"782 848 OFFCURVE",
"729 848 CURVE SMOOTH",
"684 848 OFFCURVE",
"655 828 OFFCURVE",
"647 767 CURVE SMOOTH",
"584 287 OFFCURVE",
"443 122 OFFCURVE",
"342 122 CURVE SMOOTH",
"287 122 OFFCURVE",
"262 151 OFFCURVE",
"262 216 CURVE SMOOTH",
"262 337 OFFCURVE",
"353 549 OFFCURVE",
"353 695 CURVE SMOOTH",
"353 801 OFFCURVE",
"298 840 OFFCURVE",
"215 840 CURVE SMOOTH",
"103 840 OFFCURVE",
"16 774 OFFCURVE",
"-32 708 CURVE SMOOTH",
"-53 679 OFFCURVE",
"-62 649 OFFCURVE",
"-62 626 CURVE SMOOTH",
"-62 601 OFFCURVE",
"-51 584 OFFCURVE",
"-35 584 CURVE SMOOTH",
"-24 584 OFFCURVE",
"-9 593 OFFCURVE",
"6 613 CURVE SMOOTH",
"65 691 OFFCURVE",
"121 729 OFFCURVE",
"156 729 CURVE SMOOTH",
"183 729 OFFCURVE",
"202 713 OFFCURVE",
"202 659 CURVE SMOOTH",
"202 560 OFFCURVE",
"111 326 OFFCURVE",
"111 186 CURVE SMOOTH",
"111 77 OFFCURVE",
"175 -5 OFFCURVE",
"294 -5 CURVE SMOOTH",
"424 -5 OFFCURVE",
"526 93 OFFCURVE",
"594 296 CURVE",
"581 234 OFFCURVE",
"575 195 OFFCURVE",
"575 148 CURVE SMOOTH",
"575 62 OFFCURVE",
"621 -5 OFFCURVE",
"728 -5 CURVE SMOOTH",
"804 -5 OFFCURVE",
"891 38 OFFCURVE",
"938 124 CURVE SMOOTH",
"950 146 OFFCURVE",
"955 164 OFFCURVE",
"955 187 CURVE SMOOTH",
"955 210 OFFCURVE",
"947 227 OFFCURVE",
"934 227 CURVE SMOOTH"
);
}
);
width = 823;
}
);
note = U;
unicode = 0055;
},
{
color = 4;
glyphname = V;
lastChange = "2016-07-26 12:53:37 +0000";
layers = (
{
background = {
paths = (
{
closed = 1;
nodes = (
"1665 -5 OFFCURVE",
"1898 439 OFFCURVE",
"1898 702 CURVE SMOOTH",
"1898 800 OFFCURVE",
"1852 864 OFFCURVE",
"1772 864 CURVE SMOOTH",
"1673 864 OFFCURVE",
"1569 769 OFFCURVE",
"1569 548 CURVE SMOOTH",
"1569 338 OFFCURVE",
"1689 202 OFFCURVE",
"1892 202 CURVE SMOOTH",
"2007 202 OFFCURVE",
"2039 304 OFFCURVE",
"1955 304 CURVE SMOOTH",
"1758 304 OFFCURVE",
"1670 386 OFFCURVE",
"1670 560 CURVE SMOOTH",
"1670 676 OFFCURVE",
"1708 744 OFFCURVE",
"1743 744 CURVE SMOOTH",
"1765 744 OFFCURVE",
"1772 725 OFFCURVE",
"1772 669 CURVE SMOOTH",
"1772 529 OFFCURVE",
"1605 136 OFFCURVE",
"1467 136 CURVE SMOOTH",
"1407 136 OFFCURVE",
"1373 245 OFFCURVE",
"1373 443 CURVE SMOOTH",
"1373 537 OFFCURVE",
"1380 647 OFFCURVE",
"1403 769 CURVE SMOOTH",
"1413 822 OFFCURVE",
"1396 848 OFFCURVE",
"1335 848 CURVE SMOOTH",
"1282 848 OFFCURVE",
"1257 826 OFFCURVE",
"1244 759 CURVE SMOOTH",
"1222 647 OFFCURVE",
"1216 540 OFFCURVE",
"1216 443 CURVE SMOOTH",
"1216 182 OFFCURVE",
"1277 -5 OFFCURVE",
"1430 -5 CURVE SMOOTH"
);
},
{
closed = 1;
nodes = (
"560 -5 OFFCURVE",
"798 420 OFFCURVE",
"798 692 CURVE SMOOTH",
"798 800 OFFCURVE",
"742 864 OFFCURVE",
"655 864 CURVE SMOOTH",
"553 864 OFFCURVE",
"469 786 OFFCURVE",
"469 622 CURVE SMOOTH",
"469 447 OFFCURVE",
"589 332 OFFCURVE",
"792 332 CURVE SMOOTH",
"907 332 OFFCURVE",
"939 432 OFFCURVE",
"855 432 CURVE SMOOTH",
"658 432 OFFCURVE",
"570 494 OFFCURVE",
"570 629 CURVE SMOOTH",
"570 704 OFFCURVE",
"597 747 OFFCURVE",
"631 747 CURVE SMOOTH",
"654 747 OFFCURVE",
"672 723 OFFCURVE",
"672 669 CURVE SMOOTH",
"672 501 OFFCURVE",
"497 136 OFFCURVE",
"367 136 CURVE SMOOTH",
"307 136 OFFCURVE",
"273 245 OFFCURVE",
"273 443 CURVE SMOOTH",
"273 537 OFFCURVE",
"281 647 OFFCURVE",
"303 769 CURVE SMOOTH",
"313 822 OFFCURVE",
"296 848 OFFCURVE",
"235 848 CURVE SMOOTH",
"182 848 OFFCURVE",
"157 826 OFFCURVE",
"144 759 CURVE SMOOTH",
"123 647 OFFCURVE",
"116 540 OFFCURVE",
"116 443 CURVE SMOOTH",
"116 182 OFFCURVE",
"177 -5 OFFCURVE",
"330 -5 CURVE SMOOTH"
);
}
);
};
layerId = "ECEFE970-1BBB-4E0A-A452-CEB55884B4A3";
paths = (
{
closed = 1;
nodes = (
"560 -5 OFFCURVE",
"798 420 OFFCURVE",
"798 692 CURVE SMOOTH",
"798 800 OFFCURVE",
"742 864 OFFCURVE",
"655 864 CURVE SMOOTH",
"553 864 OFFCURVE",
"469 786 OFFCURVE",
"469 622 CURVE SMOOTH",
"469 442 OFFCURVE",
"589 332 OFFCURVE",
"812 332 CURVE SMOOTH",
"927 332 OFFCURVE",
"959 432 OFFCURVE",
"875 432 CURVE SMOOTH",
"658 432 OFFCURVE",
"570 489 OFFCURVE",
"570 629 CURVE SMOOTH",
"570 704 OFFCURVE",
"597 747 OFFCURVE",
"631 747 CURVE SMOOTH",
"654 747 OFFCURVE",
"672 723 OFFCURVE",
"672 669 CURVE SMOOTH",
"672 501 OFFCURVE",
"497 136 OFFCURVE",
"367 136 CURVE SMOOTH",
"307 136 OFFCURVE",
"273 245 OFFCURVE",
"273 443 CURVE SMOOTH",
"273 537 OFFCURVE",
"281 647 OFFCURVE",
"303 769 CURVE SMOOTH",
"313 822 OFFCURVE",
"296 848 OFFCURVE",
"235 848 CURVE SMOOTH",
"182 848 OFFCURVE",
"157 826 OFFCURVE",
"144 759 CURVE SMOOTH",
"123 647 OFFCURVE",
"116 540 OFFCURVE",
"116 443 CURVE SMOOTH",
"116 182 OFFCURVE",
"177 -5 OFFCURVE",
"330 -5 CURVE SMOOTH"
);
}
);
width = 746;
}
);
note = V;
unicode = 0056;
},
{
color = 4;
glyphname = W;
lastChange = "2016-07-26 12:53:37 +0000";
layers = (
{
background = {
paths = (
{
closed = 1;
nodes = (
"2315 -5 OFFCURVE",
"2550 439 OFFCURVE",
"2550 702 CURVE SMOOTH",
"2550 800 OFFCURVE",
"2504 864 OFFCURVE",
"2424 864 CURVE SMOOTH",
"2325 864 OFFCURVE",
"2221 769 OFFCURVE",
"2221 548 CURVE SMOOTH",
"2221 338 OFFCURVE",
"2341 202 OFFCURVE",
"2544 202 CURVE SMOOTH",
"2659 202 OFFCURVE",
"2691 304 OFFCURVE",
"2607 304 CURVE SMOOTH",
"2410 304 OFFCURVE",
"2322 386 OFFCURVE",
"2322 560 CURVE SMOOTH",
"2322 676 OFFCURVE",
"2360 744 OFFCURVE",
"2395 744 CURVE SMOOTH",
"2417 744 OFFCURVE",
"2424 725 OFFCURVE",
"2424 669 CURVE SMOOTH",
"2424 530 OFFCURVE",
"2257 136 OFFCURVE",
"2129 136 CURVE SMOOTH",
"2052 136 OFFCURVE",
"2038 245 OFFCURVE",
"2038 443 CURVE SMOOTH",
"2038 537 OFFCURVE",
"2045 647 OFFCURVE",
"2068 769 CURVE SMOOTH",
"2078 822 OFFCURVE",
"2061 848 OFFCURVE",
"2000 848 CURVE",
"1947 759 LINE",
"1878 411 OFFCURVE",
"1886 -5 OFFCURVE",
"2092 -5 CURVE SMOOTH"
);
},
{
closed = 1;
nodes = (
"1774 -5 OFFCURVE",
"1934 221 OFFCURVE",
"2020 763 CURVE",
"2000 848 LINE",
"1947 848 OFFCURVE",
"1916 832 OFFCURVE",
"1905 767 CURVE SMOOTH",
"1834 345 OFFCURVE",
"1712 136 OFFCURVE",
"1646 136 CURVE SMOOTH",
"1577 136 OFFCURVE",
"1539 361 OFFCURVE",
"1599 760 CURVE SMOOTH",
"1610 833 OFFCURVE",
"1578 848 OFFCURVE",
"1530 848 CURVE SMOOTH",
"1477 848 OFFCURVE",
"1452 826 OFFCURVE",
"1442 759 CURVE SMOOTH",
"1380 341 OFFCURVE",
"1426 -5 OFFCURVE",
"1614 -5 CURVE SMOOTH"
);
},
{
closed = 1;
nodes = (
"1012 -5 OFFCURVE",
"1250 420 OFFCURVE",
"1250 692 CURVE SMOOTH",
"1250 800 OFFCURVE",
"1194 864 OFFCURVE",
"1107 864 CURVE SMOOTH",
"1005 864 OFFCURVE",
"921 786 OFFCURVE",
"921 622 CURVE SMOOTH",
"921 447 OFFCURVE",
"1041 332 OFFCURVE",
"1244 332 CURVE SMOOTH",
"1359 332 OFFCURVE",
"1391 432 OFFCURVE",
"1307 432 CURVE SMOOTH",
"1110 432 OFFCURVE",
"1022 494 OFFCURVE",
"1022 629 CURVE SMOOTH",
"1022 704 OFFCURVE",
"1049 747 OFFCURVE",
"1083 747 CURVE SMOOTH",
"1106 747 OFFCURVE",
"1124 723 OFFCURVE",
"1124 669 CURVE SMOOTH",
"1124 501 OFFCURVE",
"949 136 OFFCURVE",
"829 136 CURVE",
"792 -5 LINE"
);
}
);
};
layerId = "ECEFE970-1BBB-4E0A-A452-CEB55884B4A3";
paths = (
{
closed = 1;
nodes = (
"474 -5 OFFCURVE",
"634 221 OFFCURVE",
"720 763 CURVE",
"700 848 LINE",
"647 848 OFFCURVE",
"616 832 OFFCURVE",
"605 767 CURVE SMOOTH",
"534 345 OFFCURVE",
"412 136 OFFCURVE",
"346 136 CURVE SMOOTH",
"277 136 OFFCURVE",
"239 361 OFFCURVE",
"299 760 CURVE SMOOTH",
"310 833 OFFCURVE",
"278 848 OFFCURVE",
"230 848 CURVE SMOOTH",
"177 848 OFFCURVE",
"152 826 OFFCURVE",
"142 759 CURVE SMOOTH",
"80 341 OFFCURVE",
"126 -5 OFFCURVE",
"314 -5 CURVE SMOOTH"
);
},
{
closed = 1;
nodes = (
"1012 -5 OFFCURVE",
"1250 420 OFFCURVE",
"1250 692 CURVE SMOOTH",
"1250 800 OFFCURVE",
"1194 864 OFFCURVE",
"1107 864 CURVE SMOOTH",
"1005 864 OFFCURVE",
"921 786 OFFCURVE",
"921 622 CURVE SMOOTH",
"921 442 OFFCURVE",
"1041 332 OFFCURVE",
"1264 332 CURVE SMOOTH",
"1379 332 OFFCURVE",
"1391 432 OFFCURVE",
"1327 432 CURVE SMOOTH",
"1110 432 OFFCURVE",
"1022 489 OFFCURVE",
"1022 629 CURVE SMOOTH",
"1022 704 OFFCURVE",
"1049 747 OFFCURVE",
"1083 747 CURVE SMOOTH",
"1106 747 OFFCURVE",
"1124 723 OFFCURVE",
"1124 669 CURVE SMOOTH",
"1124 501 OFFCURVE",
"949 136 OFFCURVE",
"829 136 CURVE SMOOTH",
"752 136 OFFCURVE",
"738 245 OFFCURVE",
"738 443 CURVE SMOOTH",
"738 537 OFFCURVE",
"745 647 OFFCURVE",
"768 769 CURVE SMOOTH",
"778 822 OFFCURVE",
"761 848 OFFCURVE",
"700 848 CURVE",
"647 759 LINE",
"578 411 OFFCURVE",
"586 -5 OFFCURVE",
"792 -5 CURVE SMOOTH"
);
}
);
width = 1189;
}
);
leftMetricsKey = V;
note = W;
rightMetricsKey = V;
unicode = 0057;
},
{
glyphname = X;
lastChange = "2016-07-18 14:46:18 +0000";
layers = (
{
layerId = "ECEFE970-1BBB-4E0A-A452-CEB55884B4A3";
paths = (
{
closed = 1;
nodes = (
"467 441 OFFCURVE",
"464 437 OFFCURVE",
"457 428 CURVE SMOOTH",
"449 419 OFFCURVE",
"439 407 OFFCURVE",
"426 392 CURVE SMOOTH",
"414 376 OFFCURVE",
"399 358 OFFCURVE",
"383 338 CURVE SMOOTH",
"366 318 OFFCURVE",
"349 296 OFFCURVE",
"331 274 CURVE SMOOTH",
"313 252 OFFCURVE",
"294 230 OFFCURVE",
"276 208 CURVE SMOOTH",
"239 162 OFFCURVE",
"206 122 OFFCURVE",
"181 90 CURVE SMOOTH",
"155 59 OFFCURVE",
"128 32 OFFCURVE",
"128 -2 CURVE SMOOTH",
"128 -31 OFFCURVE",
"150 -51 OFFCURVE",
"195 -51 CURVE SMOOTH",
"227 -51 OFFCURVE",
"259 -37 OFFCURVE",
"274 -15 CURVE SMOOTH",
"286 0 OFFCURVE",
"305 29 OFFCURVE",
"329 64 CURVE SMOOTH",
"353 100 OFFCURVE",
"380 141 OFFCURVE",
"406 180 CURVE SMOOTH",
"437 226 OFFCURVE",
"470 275 OFFCURVE",
"505 328 CURVE",
"526 227 OFFCURVE",
"544 153 OFFCURVE",
"564 100 CURVE SMOOTH",
"583 47 OFFCURVE",
"603 14 OFFCURVE",
"627 -5 CURVE SMOOTH",
"651 -25 OFFCURVE",
"680 -31 OFFCURVE",
"716 -31 CURVE SMOOTH",
"748 -31 OFFCURVE",
"787 -18 OFFCURVE",
"829 9 CURVE SMOOTH",
"870 35 OFFCURVE",
"915 74 OFFCURVE",
"958 125 CURVE",
"965 133 OFFCURVE",
"969 141 OFFCURVE",
"969 151 CURVE SMOOTH",
"969 165 OFFCURVE",
"963 180 OFFCURVE",
"954 191 CURVE SMOOTH",
"945 203 OFFCURVE",
"934 210 OFFCURVE",
"922 210 CURVE SMOOTH",
"916 210 OFFCURVE",
"911 208 OFFCURVE",
"906 203 CURVE",
"848 114 OFFCURVE",
"799 78 OFFCURVE",
"759 78 CURVE SMOOTH",
"744 78 OFFCURVE",
"731 81 OFFCURVE",
"721 88 CURVE SMOOTH",
"700 102 OFFCURVE",
"686 130 OFFCURVE",
"676 171 CURVE SMOOTH",
"666 211 OFFCURVE",
"655 265 OFFCURVE",
"641 332 CURVE SMOOTH",
"634 365 OFFCURVE",
"625 401 OFFCURVE",
"615 440 CURVE",
"643 480 OFFCURVE",
"671 521 OFFCURVE",
"699 559 CURVE SMOOTH",
"727 596 OFFCURVE",
"754 628 OFFCURVE",
"777 652 CURVE SMOOTH",
"800 675 OFFCURVE",
"818 689 OFFCURVE",
"832 689 CURVE SMOOTH",
"834 689 OFFCURVE",
"836 688 OFFCURVE",
"838 684 CURVE",
"840 676 OFFCURVE",
"841 665 OFFCURVE",
"841 652 CURVE",
"840 645 OFFCURVE",
"840 639 OFFCURVE",
"841 633 CURVE",
"841 622 OFFCURVE",
"844 614 OFFCURVE",
"850 614 CURVE SMOOTH",
"905 614 OFFCURVE",
"943 646 OFFCURVE",
"943 708 CURVE SMOOTH",
"943 739 OFFCURVE",
"936 771 OFFCURVE",
"924 795 CURVE SMOOTH",
"912 819 OFFCURVE",
"895 835 OFFCURVE",
"875 835 CURVE SMOOTH",
"853 835 OFFCURVE",
"824 819 OFFCURVE",
"791 792 CURVE SMOOTH",
"758 765 OFFCURVE",
"721 727 OFFCURVE",
"684 684 CURVE SMOOTH",
"647 641 OFFCURVE",
"610 593 OFFCURVE",
"579 545 CURVE",
"561 633 OFFCURVE",
"536 695 OFFCURVE",
"507 740 CURVE SMOOTH",
"478 784 OFFCURVE",
"446 811 OFFCURVE",
"413 825 CURVE SMOOTH",
"379 840 OFFCURVE",
"345 844 OFFCURVE",
"313 844 CURVE SMOOTH",
"275 844 OFFCURVE",
"243 832 OFFCURVE",
"220 809 CURVE SMOOTH",
"196 785 OFFCURVE",
"183 750 OFFCURVE",
"183 701 CURVE SMOOTH",
"183 694 OFFCURVE",
"184 680 OFFCURVE",
"187 664 CURVE SMOOTH",
"188 648 OFFCURVE",
"192 630 OFFCURVE",
"197 616 CURVE SMOOTH",
"201 603 OFFCURVE",
"208 593 OFFCURVE",
"214 593 CURVE SMOOTH",
"218 593 OFFCURVE",
"223 598 OFFCURVE",
"229 607 CURVE SMOOTH",
"236 623 OFFCURVE",
"245 637 OFFCURVE",
"254 650 CURVE SMOOTH",
"273 677 OFFCURVE",
"291 698 OFFCURVE",
"305 710 CURVE",
"311 716 OFFCURVE",
"315 719 OFFCURVE",
"317 719 CURVE SMOOTH",
"350 719 OFFCURVE",
"375 702 OFFCURVE",
"396 675 CURVE SMOOTH",
"415 647 OFFCURVE",
"430 611 OFFCURVE",
"440 572 CURVE SMOOTH",
"450 533 OFFCURVE",
"457 492 OFFCURVE",
"462 456 CURVE",
"467 441 LINE"
);
}
);
width = 828;
}
);
note = X;
unicode = 0058;
},
{
color = 4;
glyphname = Y;
lastChange = "2016-07-26 15:18:41 +0000";
layers = (
{
background = {
paths = (
{
closed = 1;
nodes = (
"540 -117 OFFCURVE",
"479 -225 OFFCURVE",
"386 -225 CURVE SMOOTH",
"342 -225 OFFCURVE",
"319 -198 OFFCURVE",
"320 -156 CURVE SMOOTH",
"323 -39 OFFCURVE",
"489 26 OFFCURVE",
"841 122 CURVE SMOOTH",
"912 141 OFFCURVE",
"903 246 OFFCURVE",
"828 224 CURVE SMOOTH",
"409 100 OFFCURVE",
"191 3 OFFCURVE",
"191 -177 CURVE SMOOTH",
"191 -260 OFFCURVE",
"264 -327 OFFCURVE",
"367 -327 CURVE SMOOTH",
"583 -327 OFFCURVE",
"674 -135 OFFCURVE",
"739 339 CURVE SMOOTH",
"760 491 OFFCURVE",
"777 622 OFFCURVE",
"795 769 CURVE SMOOTH",
"801 816 OFFCURVE",
"782 848 OFFCURVE",
"729 848 CURVE SMOOTH",
"685 848 OFFCURVE",
"655 828 OFFCURVE",
"648 767 CURVE SMOOTH",
"606 397 OFFCURVE",
"471 232 OFFCURVE",
"370 232 CURVE SMOOTH",
"314 232 OFFCURVE",
"289 261 OFFCURVE",
"289 326 CURVE SMOOTH",
"289 417 OFFCURVE",
"352 569 OFFCURVE",
"352 695 CURVE SMOOTH",
"352 801 OFFCURVE",
"297 840 OFFCURVE",
"215 840 CURVE SMOOTH",
"103 840 OFFCURVE",
"16 774 OFFCURVE",
"-32 708 CURVE SMOOTH",
"-53 679 OFFCURVE",
"-62 649 OFFCURVE",
"-62 626 CURVE SMOOTH",
"-62 601 OFFCURVE",
"-51 584 OFFCURVE",
"-35 584 CURVE SMOOTH",
"-24 584 OFFCURVE",
"-9 593 OFFCURVE",
"6 613 CURVE SMOOTH",
"65 691 OFFCURVE",
"121 729 OFFCURVE",
"156 729 CURVE SMOOTH",
"183 729 OFFCURVE",
"202 713 OFFCURVE",
"202 659 CURVE SMOOTH",
"202 580 OFFCURVE",
"139 406 OFFCURVE",
"139 296 CURVE SMOOTH",
"139 187 OFFCURVE",
"203 105 OFFCURVE",
"322 105 CURVE SMOOTH",
"439 105 OFFCURVE",
"540 185 OFFCURVE",
"602 354 CURVE"
);
}
);
};
layerId = "ECEFE970-1BBB-4E0A-A452-CEB55884B4A3";
paths = (
{
closed = 1;
nodes = (
"589 257 OFFCURVE",
"576 176 OFFCURVE",
"561 37 CURVE SMOOTH",
"539 -157 OFFCURVE",
"467 -225 OFFCURVE",
"385 -225 CURVE SMOOTH",
"340 -225 OFFCURVE",
"317 -194 OFFCURVE",
"318 -158 CURVE SMOOTH",
"321 -39 OFFCURVE",
"489 41 OFFCURVE",
"841 122 CURVE SMOOTH",
"912 138 OFFCURVE",
"904 243 OFFCURVE",
"829 224 CURVE SMOOTH",
"409 120 OFFCURVE",
"190 3 OFFCURVE",
"190 -183 CURVE SMOOTH",
"190 -266 OFFCURVE",
"255 -327 OFFCURVE",
"370 -327 CURVE SMOOTH",
"530 -327 OFFCURVE",
"665 -213 OFFCURVE",
"701 59 CURVE SMOOTH",
"757 491 OFFCURVE",
"777 622 OFFCURVE",
"795 769 CURVE SMOOTH",
"801 816 OFFCURVE",
"782 848 OFFCURVE",
"729 848 CURVE SMOOTH",
"685 848 OFFCURVE",
"655 828 OFFCURVE",
"648 767 CURVE SMOOTH",
"606 397 OFFCURVE",
"471 232 OFFCURVE",
"370 232 CURVE SMOOTH",
"314 232 OFFCURVE",
"289 261 OFFCURVE",
"289 326 CURVE SMOOTH",
"289 417 OFFCURVE",
"352 569 OFFCURVE",
"352 695 CURVE SMOOTH",
"352 801 OFFCURVE",
"297 840 OFFCURVE",
"215 840 CURVE SMOOTH",
"103 840 OFFCURVE",
"16 774 OFFCURVE",
"-32 708 CURVE SMOOTH",
"-53 679 OFFCURVE",
"-62 649 OFFCURVE",
"-62 626 CURVE SMOOTH",
"-62 601 OFFCURVE",
"-51 584 OFFCURVE",
"-35 584 CURVE SMOOTH",
"-24 584 OFFCURVE",
"-9 593 OFFCURVE",
"6 613 CURVE SMOOTH",
"65 691 OFFCURVE",
"121 729 OFFCURVE",
"156 729 CURVE SMOOTH",
"183 729 OFFCURVE",
"202 713 OFFCURVE",
"202 659 CURVE SMOOTH",
"202 580 OFFCURVE",
"139 406 OFFCURVE",
"139 296 CURVE SMOOTH",
"139 187 OFFCURVE",
"203 105 OFFCURVE",
"322 105 CURVE SMOOTH",
"439 105 OFFCURVE",
"540 185 OFFCURVE",
"602 354 CURVE"
);
}
);
width = 762;
}
);
note = Y;
unicode = 0059;
},
{
color = 3;
glyphname = Z;
lastChange = "2016-07-27 08:35:21 +0000";
layers = (
{
background = {
paths = (
{
closed = 1;
nodes = (
"152 494 OFFCURVE",
"167 489 OFFCURVE",
"182 489 CURVE SMOOTH",
"213 489 OFFCURVE",
"243 508 OFFCURVE",
"243 536 CURVE SMOOTH",
"243 556 OFFCURVE",
"218 576 OFFCURVE",
"218 619 CURVE SMOOTH",
"218 694 OFFCURVE",
"286 726 OFFCURVE",
"489 726 CURVE SMOOTH",
"661 726 OFFCURVE",
"741 688 OFFCURVE",
"814 688 CURVE SMOOTH",
"858 688 OFFCURVE",
"877 712 OFFCURVE",
"877 748 CURVE SMOOTH",
"877 775 OFFCURVE",
"860 796 OFFCURVE",
"817 808 CURVE SMOOTH",
"714 837 OFFCURVE",
"594 846 OFFCURVE",
"501 846 CURVE SMOOTH",
"254 846 OFFCURVE",
"99 781 OFFCURVE",
"99 617 CURVE SMOOTH",
"99 566 OFFCURVE",
"117 526 OFFCURVE",
"141 504 CURVE SMOOTH"
);
},
{
closed = 1;
nodes = (
"763 -5 OFFCURVE",
"844 43 OFFCURVE",
"910 137 CURVE SMOOTH",
"958 206 OFFCURVE",
"935 278 OFFCURVE",
"879 222 CURVE SMOOTH",
"818 161 OFFCURVE",
"770 135 OFFCURVE",
"713 135 CURVE SMOOTH",
"622 135 OFFCURVE",
"417 282 OFFCURVE",
"224 282 CURVE",
"203 191 LINE",
"322 191 OFFCURVE",
"501 -5 OFFCURVE",
"686 -5 CURVE SMOOTH"
);
},
{
closed = 1;
nodes = (
"653 745 LINE",
"541 558 OFFCURVE",
"417 364 OFFCURVE",
"303 189 CURVE SMOOTH",
"252 111 OFFCURVE",
"219 88 OFFCURVE",
"188 88 CURVE SMOOTH",
"156 88 OFFCURVE",
"137 108 OFFCURVE",
"137 134 CURVE SMOOTH",
"137 169 OFFCURVE",
"164 191 OFFCURVE",
"203 191 CURVE",
"224 282 LINE",
"95 282 OFFCURVE",
"26 211 OFFCURVE",
"26 126 CURVE SMOOTH",
"26 46 OFFCURVE",
"95 -5 OFFCURVE",
"193 -5 CURVE SMOOTH",
"292 -5 OFFCURVE",
"374 45 OFFCURVE",
"464 175 CURVE SMOOTH",
"564 320 OFFCURVE",
"689 514 OFFCURVE",
"823 738 CURVE"
);
}
);
};
layerId = "ECEFE970-1BBB-4E0A-A452-CEB55884B4A3";
paths = (
{
closed = 1;
nodes = (
"151 494 OFFCURVE",
"166 489 OFFCURVE",
"181 489 CURVE SMOOTH",
"212 489 OFFCURVE",
"242 508 OFFCURVE",
"242 536 CURVE SMOOTH",
"242 556 OFFCURVE",
"217 576 OFFCURVE",
"217 619 CURVE SMOOTH",
"217 694 OFFCURVE",
"285 726 OFFCURVE",
"489 726 CURVE SMOOTH",
"661 726 OFFCURVE",
"741 688 OFFCURVE",
"814 688 CURVE SMOOTH",
"858 688 OFFCURVE",
"877 712 OFFCURVE",
"877 748 CURVE SMOOTH",
"877 775 OFFCURVE",
"860 796 OFFCURVE",
"817 808 CURVE SMOOTH",
"714 837 OFFCURVE",
"594 846 OFFCURVE",
"501 846 CURVE SMOOTH",
"253 846 OFFCURVE",
"98 781 OFFCURVE",
"98 617 CURVE SMOOTH",
"98 566 OFFCURVE",
"116 526 OFFCURVE",
"140 504 CURVE SMOOTH"
);
},
{
closed = 1;
nodes = (
"763 -5 OFFCURVE",
"844 43 OFFCURVE",
"910 137 CURVE SMOOTH",
"958 206 OFFCURVE",
"935 278 OFFCURVE",
"879 222 CURVE SMOOTH",
"818 161 OFFCURVE",
"770 135 OFFCURVE",
"713 135 CURVE SMOOTH",
"592 135 OFFCURVE",
"407 281 OFFCURVE",
"224 281 CURVE",
"203 190 LINE",
"322 190 OFFCURVE",
"481 -5 OFFCURVE",
"686 -5 CURVE SMOOTH"
);
},
{
closed = 1;
nodes = (
"653 745 LINE",
"541 558 OFFCURVE",
"417 364 OFFCURVE",
"303 189 CURVE SMOOTH",
"252 111 OFFCURVE",
"219 87 OFFCURVE",
"188 87 CURVE SMOOTH",
"156 87 OFFCURVE",
"138 107 OFFCURVE",
"138 133 CURVE SMOOTH",
"138 168 OFFCURVE",
"164 190 OFFCURVE",
"203 190 CURVE",
"224 281 LINE",
"96 281 OFFCURVE",
"27 211 OFFCURVE",
"27 126 CURVE SMOOTH",
"27 46 OFFCURVE",
"96 -5 OFFCURVE",
"193 -5 CURVE SMOOTH",
"292 -5 OFFCURVE",
"374 45 OFFCURVE",
"464 175 CURVE SMOOTH",
"564 320 OFFCURVE",
"689 514 OFFCURVE",
"823 738 CURVE"
);
}
);
width = 824;
}
);
note = Z;
unicode = 005A;
},
{
color = 9;
glyphname = A.ss01;
lastChange = "2016-07-25 22:12:37 +0000";
layers = (
{
background = {
paths = (
{
closed = 1;
nodes = (
"438 -4 OFFCURVE",
"517 82 OFFCURVE",
"565 237 CURVE",
"679 626 LINE",
"578 513 LINE",
"511 220 OFFCURVE",
"444 117 OFFCURVE",
"338 117 CURVE SMOOTH",
"270 117 OFFCURVE",
"217 167 OFFCURVE",
"217 290 CURVE SMOOTH",
"217 514 OFFCURVE",
"346 728 OFFCURVE",
"618 728 CURVE SMOOTH",
"665 728 OFFCURVE",
"702 724 OFFCURVE",
"748 715 CURVE SMOOTH",
"839 697 OFFCURVE",
"867 805 OFFCURVE",
"806 824 CURVE SMOOTH",
"750 841 OFFCURVE",
"687 848 OFFCURVE",
"630 848 CURVE SMOOTH",
"255 848 OFFCURVE",
"65 576 OFFCURVE",
"65 280 CURVE SMOOTH",
"65 102 OFFCURVE",
"166 -4 OFFCURVE",
"312 -4 CURVE SMOOTH"
);
},
{
closed = 1;
nodes = (
"617 -52 OFFCURVE",
"664 -33 OFFCURVE",
"664 18 CURVE",
"666 47 LINE",
"673 224 OFFCURVE",
"719 492 OFFCURVE",
"755 611 CURVE SMOOTH",
"757 617 OFFCURVE",
"758 623 OFFCURVE",
"758 628 CURVE SMOOTH",
"758 661 OFFCURVE",
"725 672 OFFCURVE",
"695 672 CURVE SMOOTH",
"658 672 OFFCURVE",
"616 659 OFFCURVE",
"606 623 CURVE SMOOTH",
"596 588 OFFCURVE",
"587 551 OFFCURVE",
"578 513 CURVE SMOOTH",
"539 347 OFFCURVE",
"520 165 OFFCURVE",
"508 13 CURVE SMOOTH",
"505 -26 OFFCURVE",
"523 -52 OFFCURVE",
"575 -52 CURVE SMOOTH"
);
}
);
};
guideLines = (
{
angle = 255.7189;
position = "{592, 568}";
}
);
layerId = "ECEFE970-1BBB-4E0A-A452-CEB55884B4A3";
paths = (
{
closed = 1;
nodes = (
"438 -4 OFFCURVE",
"514 82 OFFCURVE",
"557 237 CURVE",
"679 626 LINE",
"559 437 LINE",
"501 211 OFFCURVE",
"441 117 OFFCURVE",
"337 117 CURVE SMOOTH",
"268 117 OFFCURVE",
"217 167 OFFCURVE",
"217 290 CURVE SMOOTH",
"217 514 OFFCURVE",
"346 728 OFFCURVE",
"618 728 CURVE SMOOTH",
"665 728 OFFCURVE",
"702 724 OFFCURVE",
"748 715 CURVE SMOOTH",
"839 697 OFFCURVE",
"867 805 OFFCURVE",
"806 824 CURVE SMOOTH",
"750 841 OFFCURVE",
"687 848 OFFCURVE",
"630 848 CURVE SMOOTH",
"255 848 OFFCURVE",
"65 576 OFFCURVE",
"65 280 CURVE SMOOTH",
"65 75 OFFCURVE",
"194 -4 OFFCURVE",
"310 -4 CURVE SMOOTH"
);
},
{
closed = 1;
nodes = (
"619 -5 OFFCURVE",
"666 14 OFFCURVE",
"666 65 CURVE",
"669 94 LINE",
"675 231 OFFCURVE",
"719 492 OFFCURVE",
"755 611 CURVE SMOOTH",
"757 617 OFFCURVE",
"758 623 OFFCURVE",
"758 628 CURVE SMOOTH",
"758 661 OFFCURVE",
"725 672 OFFCURVE",
"695 672 CURVE SMOOTH",
"658 672 OFFCURVE",
"615 659 OFFCURVE",
"606 623 CURVE SMOOTH",
"559 437 LINE",
"542 347 OFFCURVE",
"522 172 OFFCURVE",
"511 60 CURVE SMOOTH",
"507 21 OFFCURVE",
"525 -5 OFFCURVE",
"577 -5 CURVE SMOOTH"
);
}
);
width = 773;
}
);
leftMetricsKey = A;
note = A;
},
{
color = 9;
glyphname = AE.ss01;
lastChange = "2016-07-25 22:12:37 +0000";
layers = (
{
background = {
paths = (
{
closed = 1;
nodes = (
"438 -4 OFFCURVE",
"529 64 OFFCURVE",
"583 237 CURVE",
"679 626 LINE",
"556 431 LINE",
"498 220 OFFCURVE",
"434 117 OFFCURVE",
"336 117 CURVE SMOOTH",
"270 117 OFFCURVE",
"217 167 OFFCURVE",
"217 290 CURVE SMOOTH",
"217 514 OFFCURVE",
"337 698 OFFCURVE",
"568 726 CURVE SMOOTH",
"625 733 OFFCURVE",
"647 857 OFFCURVE",
"530 843 CURVE SMOOTH",
"246 809 OFFCURVE",
"65 576 OFFCURVE",
"65 280 CURVE SMOOTH",
"65 97 OFFCURVE",
"166 -4 OFFCURVE",
"315 -4 CURVE SMOOTH"
);
},
{
closed = 1;
nodes = (
"1059 720 OFFCURVE",
"1089 751 OFFCURVE",
"1089 787 CURVE SMOOTH",
"1089 824 OFFCURVE",
"1064 849 OFFCURVE",
"1005 849 CURVE SMOOTH",
"929 849 OFFCURVE",
"859 845 OFFCURVE",
"805 842 CURVE SMOOTH",
"718 837 OFFCURVE",
"657 801 OFFCURVE",
"627 691 CURVE SMOOTH",
"556 431 LINE",
"547 264 LINE",
"541 121 OFFCURVE",
"623 -5 OFFCURVE",
"848 -5 CURVE SMOOTH",
"939 -5 OFFCURVE",
"1022 20 OFFCURVE",
"1098 59 CURVE SMOOTH",
"1182 102 OFFCURVE",
"1179 199 OFFCURVE",
"1100 174 CURVE SMOOTH",
"1029 151 OFFCURVE",
"955 120 OFFCURVE",
"871 120 CURVE SMOOTH",
"704 120 OFFCURVE",
"668 212 OFFCURVE",
"702 361 CURVE",
"811 363 OFFCURVE",
"859 365 OFFCURVE",
"937 367 CURVE SMOOTH",
"1000 369 OFFCURVE",
"1023 396 OFFCURVE",
"1023 436 CURVE SMOOTH",
"1023 464 OFFCURVE",
"1008 490 OFFCURVE",
"959 490 CURVE SMOOTH",
"888 490 OFFCURVE",
"815 486 OFFCURVE",
"726 483 CURVE",
"742 556 OFFCURVE",
"764 651 OFFCURVE",
"784 713 CURVE",
"825 716 OFFCURVE",
"925 720 OFFCURVE",
"977 720 CURVE SMOOTH"
);
}
);
};
guideLines = (
{
angle = 254.6088;
position = "{1073, 602}";
}
);
layerId = "ECEFE970-1BBB-4E0A-A452-CEB55884B4A3";
paths = (
{
closed = 1;
nodes = (
"438 -4 OFFCURVE",
"529 64 OFFCURVE",
"583 237 CURVE",
"679 626 LINE",
"556 431 LINE",
"498 220 OFFCURVE",
"434 117 OFFCURVE",
"336 117 CURVE SMOOTH",
"270 117 OFFCURVE",
"217 167 OFFCURVE",
"217 290 CURVE SMOOTH",
"217 514 OFFCURVE",
"337 698 OFFCURVE",
"568 726 CURVE SMOOTH",
"625 733 OFFCURVE",
"647 857 OFFCURVE",
"530 843 CURVE SMOOTH",
"246 809 OFFCURVE",
"65 576 OFFCURVE",
"65 280 CURVE SMOOTH",
"65 97 OFFCURVE",
"166 -4 OFFCURVE",
"315 -4 CURVE SMOOTH"
);
},
{
closed = 1;
nodes = (
"1048 48 OFFCURVE",
"1065 79 OFFCURVE",
"1065 108 CURVE SMOOTH",
"1065 136 OFFCURVE",
"1043 151 OFFCURVE",
"997 139 CURVE SMOOTH",
"952 128 OFFCURVE",
"913 120 OFFCURVE",
"861 120 CURVE SMOOTH",
"704 120 OFFCURVE",
"668 212 OFFCURVE",
"702 361 CURVE",
"811 363 OFFCURVE",
"859 365 OFFCURVE",
"937 367 CURVE SMOOTH",
"1000 369 OFFCURVE",
"1023 396 OFFCURVE",
"1023 436 CURVE SMOOTH",
"1023 464 OFFCURVE",
"1008 490 OFFCURVE",
"959 490 CURVE SMOOTH",
"888 490 OFFCURVE",
"815 486 OFFCURVE",
"726 483 CURVE",
"742 556 OFFCURVE",
"764 651 OFFCURVE",
"784 713 CURVE",
"825 716 OFFCURVE",
"925 720 OFFCURVE",
"977 720 CURVE SMOOTH",
"1059 720 OFFCURVE",
"1089 751 OFFCURVE",
"1089 787 CURVE SMOOTH",
"1089 824 OFFCURVE",
"1064 849 OFFCURVE",
"1005 849 CURVE SMOOTH",
"929 849 OFFCURVE",
"859 845 OFFCURVE",
"805 842 CURVE SMOOTH",
"718 837 OFFCURVE",
"657 801 OFFCURVE",
"627 691 CURVE SMOOTH",
"556 431 LINE",
"547 264 LINE",
"541 121 OFFCURVE",
"623 -5 OFFCURVE",
"838 -5 CURVE SMOOTH",
"905 -5 OFFCURVE",
"959 6 OFFCURVE",
"1006 28 CURVE SMOOTH"
);
}
);
width = 1049;
}
);
leftMetricsKey = A;
note = AE;
},
{
color = 9;
glyphname = B.ss01;
lastChange = "2016-07-25 22:12:37 +0000";
layers = (
{
background = {
paths = (
{
closed = 1;
nodes = (
"174 7 LINE",
"192 6 OFFCURVE",
"210 3 OFFCURVE",
"269 3 CURVE SMOOTH",
"560 3 OFFCURVE",
"712 104 OFFCURVE",
"712 251 CURVE SMOOTH",
"712 338 OFFCURVE",
"651 394 OFFCURVE",
"545 414 CURVE",
"544 395 LINE",
"723 423 OFFCURVE",
"822 516 OFFCURVE",
"822 640 CURVE SMOOTH",
"822 765 OFFCURVE",
"702 862 OFFCURVE",
"462 862 CURVE SMOOTH",
"305 862 OFFCURVE",
"146 825 OFFCURVE",
"41 764 CURVE SMOOTH",
"-9 735 OFFCURVE",
"-27 704 OFFCURVE",
"-27 675 CURVE SMOOTH",
"-27 638 OFFCURVE",
"12 616 OFFCURVE",
"71 651 CURVE SMOOTH",
"150 698 OFFCURVE",
"289 744 OFFCURVE",
"441 744 CURVE SMOOTH",
"598 744 OFFCURVE",
"663 692 OFFCURVE",
"663 623 CURVE SMOOTH",
"663 529 OFFCURVE",
"555 474 OFFCURVE",
"421 470 CURVE SMOOTH",
"382 469 OFFCURVE",
"363 438 OFFCURVE",
"362 406 CURVE SMOOTH",
"361 375 OFFCURVE",
"371 362 OFFCURVE",
"401 361 CURVE SMOOTH",
"521 357 OFFCURVE",
"554 307 OFFCURVE",
"554 260 CURVE SMOOTH",
"554 181 OFFCURVE",
"484 112 OFFCURVE",
"273 112 CURVE SMOOTH",
"249 112 OFFCURVE",
"201 117 OFFCURVE",
"176 119 CURVE"
);
},
{
closed = 1;
nodes = (
"174 -52 OFFCURVE",
"221 -33 OFFCURVE",
"221 18 CURVE SMOOTH",
"221 25 OFFCURVE",
"222 20 OFFCURVE",
"223 47 CURVE SMOOTH",
"230 227 OFFCURVE",
"279 472 OFFCURVE",
"319 591 CURVE SMOOTH",
"321 597 OFFCURVE",
"322 603 OFFCURVE",
"322 608 CURVE SMOOTH",
"322 641 OFFCURVE",
"285 652 OFFCURVE",
"265 652 CURVE SMOOTH",
"218 652 OFFCURVE",
"176 639 OFFCURVE",
"166 603 CURVE SMOOTH",
"113 411 OFFCURVE",
"77 199 OFFCURVE",
"65 13 CURVE SMOOTH",
"62 -26 OFFCURVE",
"80 -52 OFFCURVE",
"132 -52 CURVE SMOOTH"
);
}
);
};
layerId = "ECEFE970-1BBB-4E0A-A452-CEB55884B4A3";
paths = (
{
closed = 1;
nodes = (
"175 817 OFFCURVE",
"149 789 OFFCURVE",
"149 748 CURVE SMOOTH",
"149 719 OFFCURVE",
"171 698 OFFCURVE",
"215 710 CURVE SMOOTH",
"282 728 OFFCURVE",
"360 744 OFFCURVE",
"441 744 CURVE SMOOTH",
"578 744 OFFCURVE",
"638 692 OFFCURVE",
"638 623 CURVE SMOOTH",
"638 529 OFFCURVE",
"535 474 OFFCURVE",
"421 470 CURVE SMOOTH",
"382 469 OFFCURVE",
"363 438 OFFCURVE",
"362 406 CURVE SMOOTH",
"361 375 OFFCURVE",
"371 361 OFFCURVE",
"401 361 CURVE SMOOTH",
"538 359 OFFCURVE",
"571 317 OFFCURVE",
"571 260 CURVE SMOOTH",
"571 181 OFFCURVE",
"501 112 OFFCURVE",
"313 112 CURVE SMOOTH",
"262 112 OFFCURVE",
"245 113 OFFCURVE",
"227 115 CURVE",
"242 284 OFFCURVE",
"284 486 OFFCURVE",
"319 591 CURVE SMOOTH",
"321 597 OFFCURVE",
"322 603 OFFCURVE",
"322 608 CURVE SMOOTH",
"322 641 OFFCURVE",
"285 652 OFFCURVE",
"265 652 CURVE SMOOTH",
"218 652 OFFCURVE",
"176 639 OFFCURVE",
"166 603 CURVE SMOOTH",
"113 411 OFFCURVE",
"87 262 OFFCURVE",
"73 76 CURVE SMOOTH",
"70 37 OFFCURVE",
"88 19 OFFCURVE",
"140 13 CURVE SMOOTH",
"191 7 OFFCURVE",
"220 3 OFFCURVE",
"309 3 CURVE SMOOTH",
"577 3 OFFCURVE",
"729 104 OFFCURVE",
"729 251 CURVE SMOOTH",
"729 337 OFFCURVE",
"670 399 OFFCURVE",
"539 419 CURVE",
"536 402 LINE",
"705 432 OFFCURVE",
"797 517 OFFCURVE",
"797 640 CURVE SMOOTH",
"797 765 OFFCURVE",
"682 862 OFFCURVE",
"462 862 CURVE SMOOTH",
"369 862 OFFCURVE",
"273 844 OFFCURVE",
"236 834 CURVE SMOOTH"
);
}
);
width = 784;
}
);
note = B;
},
{
color = 9;
glyphname = C.ss01;
lastChange = "2016-07-25 22:12:37 +0000";
layers = (
{
background = {
paths = (
{
closed = 1;
nodes = (
"2010 121 OFFCURVE",
"1920 221 OFFCURVE",
"1920 383 CURVE SMOOTH",
"1920 604 OFFCURVE",
"2057 730 OFFCURVE",
"2181 730 CURVE SMOOTH",
"2242 730 OFFCURVE",
"2269 694 OFFCURVE",
"2269 635 CURVE SMOOTH",
"2269 611 OFFCURVE",
"2259 584 OFFCURVE",
"2259 562 CURVE SMOOTH",
"2259 526 OFFCURVE",
"2283 506 OFFCURVE",
"2319 506 CURVE SMOOTH",
"2386 506 OFFCURVE",
"2414 567 OFFCURVE",
"2414 646 CURVE SMOOTH",
"2414 762 OFFCURVE",
"2342 848 OFFCURVE",
"2200 848 CURVE SMOOTH",
"1976 848 OFFCURVE",
"1769 663 OFFCURVE",
"1769 361 CURVE SMOOTH",
"1769 146 OFFCURVE",
"1910 -5 OFFCURVE",
"2145 -5 CURVE SMOOTH",
"2258 -5 OFFCURVE",
"2388 29 OFFCURVE",
"2504 121 CURVE SMOOTH",
"2562 167 OFFCURVE",
"2535 265 OFFCURVE",
"2467 218 CURVE SMOOTH",
"2372 152 OFFCURVE",
"2268 121 OFFCURVE",
"2168 121 CURVE SMOOTH"
);
},
{
closed = 1;
nodes = (
"1417 -5 OFFCURVE",
"1603 217 OFFCURVE",
"1603 505 CURVE SMOOTH",
"1603 724 OFFCURVE",
"1461 848 OFFCURVE",
"1287 848 CURVE SMOOTH",
"1012 848 OFFCURVE",
"869 592 OFFCURVE",
"869 338 CURVE SMOOTH",
"869 119 OFFCURVE",
"1001 -5 OFFCURVE",
"1185 -5 CURVE SMOOTH"
);
},
{
closed = 1;
nodes = (
"1096 115 OFFCURVE",
"1018 191 OFFCURVE",
"1018 356 CURVE SMOOTH",
"1018 570 OFFCURVE",
"1122 728 OFFCURVE",
"1276 728 CURVE SMOOTH",
"1376 728 OFFCURVE",
"1454 651 OFFCURVE",
"1454 487 CURVE SMOOTH",
"1454 245 OFFCURVE",
"1332 115 OFFCURVE",
"1196 115 CURVE SMOOTH"
);
},
{
closed = 1;
nodes = (
"296 121 OFFCURVE",
"220 193 OFFCURVE",
"220 357 CURVE SMOOTH",
"220 604 OFFCURVE",
"347 730 OFFCURVE",
"479 730 CURVE SMOOTH",
"542 730 OFFCURVE",
"569 694 OFFCURVE",
"569 635 CURVE SMOOTH",
"569 611 OFFCURVE",
"559 584 OFFCURVE",
"559 562 CURVE SMOOTH",
"559 526 OFFCURVE",
"583 506 OFFCURVE",
"619 506 CURVE SMOOTH",
"686 506 OFFCURVE",
"714 567 OFFCURVE",
"714 646 CURVE SMOOTH",
"714 762 OFFCURVE",
"642 848 OFFCURVE",
"489 848 CURVE SMOOTH",
"268 848 OFFCURVE",
"69 663 OFFCURVE",
"69 340 CURVE SMOOTH",
"69 119 OFFCURVE",
"201 -5 OFFCURVE",
"395 -5 CURVE SMOOTH",
"478 -5 OFFCURVE",
"591 34 OFFCURVE",
"672 121 CURVE SMOOTH",
"723 175 OFFCURVE",
"697 273 OFFCURVE",
"635 218 CURVE SMOOTH",
"560 152 OFFCURVE",
"496 121 OFFCURVE",
"415 121 CURVE SMOOTH"
);
}
);
};
layerId = "ECEFE970-1BBB-4E0A-A452-CEB55884B4A3";
paths = (
{
closed = 1;
nodes = (
"296 121 OFFCURVE",
"220 197 OFFCURVE",
"220 367 CURVE SMOOTH",
"220 604 OFFCURVE",
"347 730 OFFCURVE",
"483 730 CURVE SMOOTH",
"550 730 OFFCURVE",
"578 694 OFFCURVE",
"578 635 CURVE SMOOTH",
"578 611 OFFCURVE",
"568 584 OFFCURVE",
"568 562 CURVE SMOOTH",
"568 526 OFFCURVE",
"592 506 OFFCURVE",
"628 506 CURVE SMOOTH",
"695 506 OFFCURVE",
"723 567 OFFCURVE",
"723 646 CURVE SMOOTH",
"723 762 OFFCURVE",
"650 848 OFFCURVE",
"493 848 CURVE SMOOTH",
"268 848 OFFCURVE",
"69 663 OFFCURVE",
"69 350 CURVE SMOOTH",
"69 119 OFFCURVE",
"201 -5 OFFCURVE",
"399 -5 CURVE SMOOTH",
"486 -5 OFFCURVE",
"599 34 OFFCURVE",
"680 121 CURVE SMOOTH",
"731 175 OFFCURVE",
"705 273 OFFCURVE",
"643 218 CURVE SMOOTH",
"568 152 OFFCURVE",
"504 121 OFFCURVE",
"419 121 CURVE SMOOTH"
);
}
);
width = 692;
}
);
note = C;
},
{
color = 9;
glyphname = D.ss01;
lastChange = "2016-07-25 22:12:37 +0000";
layers = (
{
background = {
paths = (
{
closed = 1;
nodes = (
"175 -52 OFFCURVE",
"222 -33 OFFCURVE",
"222 18 CURVE SMOOTH",
"222 25 OFFCURVE",
"223 20 OFFCURVE",
"224 47 CURVE SMOOTH",
"231 227 OFFCURVE",
"280 472 OFFCURVE",
"320 591 CURVE SMOOTH",
"322 597 OFFCURVE",
"323 603 OFFCURVE",
"323 608 CURVE SMOOTH",
"323 641 OFFCURVE",
"286 652 OFFCURVE",
"266 652 CURVE SMOOTH",
"219 652 OFFCURVE",
"177 639 OFFCURVE",
"167 603 CURVE SMOOTH",
"114 411 OFFCURVE",
"80 199 OFFCURVE",
"66 13 CURVE SMOOTH",
"63 -26 OFFCURVE",
"81 -52 OFFCURVE",
"133 -52 CURVE SMOOTH"
);
},
{
closed = 1;
nodes = (
"276 860 OFFCURVE",
"147 830 OFFCURVE",
"42 764 CURVE SMOOTH",
"-63 698 OFFCURVE",
"-35 582 OFFCURVE",
"72 651 CURVE SMOOTH",
"151 702 OFFCURVE",
"260 742 OFFCURVE",
"382 742 CURVE SMOOTH",
"541 742 OFFCURVE",
"630 655 OFFCURVE",
"630 480 CURVE SMOOTH",
"630 255 OFFCURVE",
"491 120 OFFCURVE",
"284 120 CURVE SMOOTH",
"250 120 OFFCURVE",
"202 125 OFFCURVE",
"177 127 CURVE",
"175 7 LINE",
"193 5 OFFCURVE",
"211 1 OFFCURVE",
"270 1 CURVE SMOOTH",
"590 1 OFFCURVE",
"779 217 OFFCURVE",
"779 495 CURVE SMOOTH",
"779 704 OFFCURVE",
"655 860 OFFCURVE",
"383 860 CURVE SMOOTH"
);
}
);
};
layerId = "ECEFE970-1BBB-4E0A-A452-CEB55884B4A3";
paths = (
{
closed = 1;
nodes = (
"336 860 OFFCURVE",
"277 850 OFFCURVE",
"232 834 CURVE SMOOTH",
"172 813 OFFCURVE",
"145 789 OFFCURVE",
"145 748 CURVE SMOOTH",
"145 719 OFFCURVE",
"167 696 OFFCURVE",
"211 710 CURVE SMOOTH",
"292 736 OFFCURVE",
"340 742 OFFCURVE",
"390 742 CURVE SMOOTH",
"533 742 OFFCURVE",
"630 665 OFFCURVE",
"630 479 CURVE SMOOTH",
"630 247 OFFCURVE",
"491 112 OFFCURVE",
"284 112 CURVE SMOOTH",
"268 112 OFFCURVE",
"248 113 OFFCURVE",
"227 115 CURVE",
"241 276 OFFCURVE",
"283 488 OFFCURVE",
"318 591 CURVE SMOOTH",
"320 597 OFFCURVE",
"321 603 OFFCURVE",
"321 608 CURVE SMOOTH",
"321 641 OFFCURVE",
"284 652 OFFCURVE",
"264 652 CURVE SMOOTH",
"217 652 OFFCURVE",
"175 639 OFFCURVE",
"165 603 CURVE SMOOTH",
"112 411 OFFCURVE",
"86 254 OFFCURVE",
"72 68 CURVE SMOOTH",
"69 29 OFFCURVE",
"86 12 OFFCURVE",
"139 5 CURVE SMOOTH",
"190 -2 OFFCURVE",
"219 -5 OFFCURVE",
"270 -5 CURVE SMOOTH",
"590 -5 OFFCURVE",
"779 209 OFFCURVE",
"779 494 CURVE SMOOTH",
"779 714 OFFCURVE",
"643 860 OFFCURVE",
"403 860 CURVE SMOOTH"
);
}
);
width = 790;
}
);
note = D;
},
{
color = 9;
glyphname = E.ss01;
lastChange = "2016-07-25 22:12:37 +0000";
layers = (
{
background = {
paths = (
{
closed = 1;
nodes = (
"523 733 OFFCURVE",
"560 705 OFFCURVE",
"587 653 CURVE SMOOTH",
"608 613 OFFCURVE",
"627 596 OFFCURVE",
"666 596 CURVE SMOOTH",
"708 596 OFFCURVE",
"732 625 OFFCURVE",
"732 664 CURVE SMOOTH",
"732 754 OFFCURVE",
"639 848 OFFCURVE",
"459 848 CURVE SMOOTH",
"278 848 OFFCURVE",
"134 753 OFFCURVE",
"134 603 CURVE SMOOTH",
"134 527 OFFCURVE",
"193 450 OFFCURVE",
"302 441 CURVE",
"303 460 LINE",
"131 432 OFFCURVE",
"37 341 OFFCURVE",
"37 215 CURVE SMOOTH",
"37 90 OFFCURVE",
"156 -7 OFFCURVE",
"400 -7 CURVE SMOOTH",
"542 -7 OFFCURVE",
"693 46 OFFCURVE",
"788 121 CURVE SMOOTH",
"846 167 OFFCURVE",
"819 265 OFFCURVE",
"751 218 CURVE SMOOTH",
"675 166 OFFCURVE",
"552 119 OFFCURVE",
"411 119 CURVE SMOOTH",
"262 119 OFFCURVE",
"196 165 OFFCURVE",
"196 239 CURVE SMOOTH",
"196 309 OFFCURVE",
"258 380 OFFCURVE",
"427 384 CURVE SMOOTH",
"466 385 OFFCURVE",
"485 417 OFFCURVE",
"486 449 CURVE SMOOTH",
"487 480 OFFCURVE",
"477 494 OFFCURVE",
"447 495 CURVE SMOOTH",
"323 499 OFFCURVE",
"288 548 OFFCURVE",
"288 600 CURVE SMOOTH",
"288 677 OFFCURVE",
"355 733 OFFCURVE",
"453 733 CURVE SMOOTH"
);
}
);
};
layerId = "ECEFE970-1BBB-4E0A-A452-CEB55884B4A3";
paths = (
{
closed = 1;
nodes = (
"514 733 OFFCURVE",
"551 705 OFFCURVE",
"578 653 CURVE SMOOTH",
"599 613 OFFCURVE",
"618 596 OFFCURVE",
"657 596 CURVE SMOOTH",
"699 596 OFFCURVE",
"723 625 OFFCURVE",
"723 664 CURVE SMOOTH",
"723 754 OFFCURVE",
"630 848 OFFCURVE",
"453 848 CURVE SMOOTH",
"265 848 OFFCURVE",
"121 753 OFFCURVE",
"121 607 CURVE SMOOTH",
"121 527 OFFCURVE",
"183 446 OFFCURVE",
"302 439 CURVE",
"303 458 LINE",
"141 430 OFFCURVE",
"51 341 OFFCURVE",
"51 215 CURVE SMOOTH",
"51 90 OFFCURVE",
"168 -5 OFFCURVE",
"364 -5 CURVE SMOOTH",
"481 -5 OFFCURVE",
"603 35 OFFCURVE",
"687 121 CURVE SMOOTH",
"739 174 OFFCURVE",
"713 272 OFFCURVE",
"650 218 CURVE SMOOTH",
"573 152 OFFCURVE",
"489 121 OFFCURVE",
"391 121 CURVE SMOOTH",
"275 121 OFFCURVE",
"210 165 OFFCURVE",
"210 239 CURVE SMOOTH",
"210 309 OFFCURVE",
"271 380 OFFCURVE",
"426 384 CURVE SMOOTH",
"466 385 OFFCURVE",
"485 417 OFFCURVE",
"486 449 CURVE SMOOTH",
"487 480 OFFCURVE",
"477 494 OFFCURVE",
"442 495 CURVE SMOOTH",
"311 499 OFFCURVE",
"275 548 OFFCURVE",
"275 603 CURVE SMOOTH",
"275 677 OFFCURVE",
"342 733 OFFCURVE",
"447 733 CURVE SMOOTH"
);
}
);
width = 688;
}
);
note = E;
},
{
color = 9;
glyphname = F.ss01;
lastChange = "2016-07-25 22:12:37 +0000";
layers = (
{
background = {
paths = (
{
closed = 1;
nodes = (
"185 336 OFFCURVE",
"288 341 OFFCURVE",
"333 341 CURVE SMOOTH",
"370 341 OFFCURVE",
"528 340 OFFCURVE",
"573 340 CURVE SMOOTH",
"624 340 OFFCURVE",
"650 369 OFFCURVE",
"650 413 CURVE SMOOTH",
"650 438 OFFCURVE",
"623 461 OFFCURVE",
"588 461 CURVE SMOOTH",
"545 461 OFFCURVE",
"202 454 OFFCURVE",
"168 454 CURVE SMOOTH",
"125 454 OFFCURVE",
"100 425 OFFCURVE",
"100 381 CURVE SMOOTH",
"100 337 OFFCURVE",
"130 333 OFFCURVE",
"151 334 CURVE SMOOTH"
);
},
{
closed = 1;
nodes = (
"285 719 OFFCURVE",
"361 716 OFFCURVE",
"462 716 CURVE SMOOTH",
"540 716 OFFCURVE",
"658 719 OFFCURVE",
"722 731 CURVE SMOOTH",
"766 739 OFFCURVE",
"784 764 OFFCURVE",
"784 796 CURVE SMOOTH",
"784 832 OFFCURVE",
"761 855 OFFCURVE",
"707 851 CURVE SMOOTH",
"603 843 OFFCURVE",
"531 840 OFFCURVE",
"442 840 CURVE SMOOTH",
"361 840 OFFCURVE",
"286 848 OFFCURVE",
"205 848 CURVE SMOOTH",
"152 848 OFFCURVE",
"129 834 OFFCURVE",
"129 796 CURVE SMOOTH",
"129 750 OFFCURVE",
"162 729 OFFCURVE",
"224 724 CURVE SMOOTH"
);
},
{
closed = 1;
nodes = (
"256 601 OFFCURVE",
"243 527 OFFCURVE",
"210 347 CURVE SMOOTH",
"187 220 OFFCURVE",
"165 105 OFFCURVE",
"165 50 CURVE SMOOTH",
"165 15 OFFCURVE",
"188 -5 OFFCURVE",
"240 -5 CURVE SMOOTH",
"282 -5 OFFCURVE",
"321 14 OFFCURVE",
"321 55 CURVE SMOOTH",
"321 108 OFFCURVE",
"343 267 OFFCURVE",
"360 357 CURVE SMOOTH",
"389 521 OFFCURVE",
"402 598 OFFCURVE",
"434 765 CURVE",
"284 754 LINE"
);
}
);
};
layerId = "ECEFE970-1BBB-4E0A-A452-CEB55884B4A3";
paths = (
{
closed = 1;
nodes = (
"185 336 OFFCURVE",
"288 341 OFFCURVE",
"333 341 CURVE SMOOTH",
"370 341 OFFCURVE",
"528 340 OFFCURVE",
"573 340 CURVE SMOOTH",
"624 340 OFFCURVE",
"650 369 OFFCURVE",
"650 413 CURVE SMOOTH",
"650 438 OFFCURVE",
"623 461 OFFCURVE",
"588 461 CURVE SMOOTH",
"545 461 OFFCURVE",
"202 454 OFFCURVE",
"168 454 CURVE SMOOTH",
"125 454 OFFCURVE",
"100 425 OFFCURVE",
"100 381 CURVE SMOOTH",
"100 337 OFFCURVE",
"130 333 OFFCURVE",
"151 334 CURVE SMOOTH"
);
},
{
closed = 1;
nodes = (
"285 719 OFFCURVE",
"361 716 OFFCURVE",
"462 716 CURVE SMOOTH",
"540 716 OFFCURVE",
"658 719 OFFCURVE",
"722 731 CURVE SMOOTH",
"766 739 OFFCURVE",
"784 764 OFFCURVE",
"784 796 CURVE SMOOTH",
"784 832 OFFCURVE",
"761 855 OFFCURVE",
"707 851 CURVE SMOOTH",
"603 843 OFFCURVE",
"531 840 OFFCURVE",
"442 840 CURVE SMOOTH",
"361 840 OFFCURVE",
"286 848 OFFCURVE",
"205 848 CURVE SMOOTH",
"152 848 OFFCURVE",
"129 834 OFFCURVE",
"129 796 CURVE SMOOTH",
"129 750 OFFCURVE",
"162 729 OFFCURVE",
"224 724 CURVE SMOOTH"
);
},
{
closed = 1;
nodes = (
"260 620 OFFCURVE",
"238 515 OFFCURVE",
"212 355 CURVE SMOOTH",
"191 228 OFFCURVE",
"168 105 OFFCURVE",
"168 55 CURVE SMOOTH",
"168 19 OFFCURVE",
"192 -5 OFFCURVE",
"241 -5 CURVE SMOOTH",
"283 -5 OFFCURVE",
"319 14 OFFCURVE",
"322 55 CURVE SMOOTH",
"327 128 OFFCURVE",
"346 267 OFFCURVE",
"361 357 CURVE SMOOTH",
"388 521 OFFCURVE",
"409 627 OFFCURVE",
"437 765 CURVE",
"287 754 LINE"
);
}
);
width = 714;
}
);
note = F;
},
{
color = 9;
glyphname = G.ss01;
lastChange = "2016-07-26 12:12:27 +0000";
layers = (
{
background = {
paths = (
{
closed = 1;
nodes = (
"1630 156 LINE",
"1575 126 OFFCURVE",
"1513 118 OFFCURVE",
"1471 118 CURVE SMOOTH",
"1310 118 OFFCURVE",
"1220 218 OFFCURVE",
"1220 383 CURVE SMOOTH",
"1220 604 OFFCURVE",
"1355 730 OFFCURVE",
"1495 730 CURVE SMOOTH",
"1568 730 OFFCURVE",
"1603 701 OFFCURVE",
"1603 650 CURVE SMOOTH",
"1603 624 OFFCURVE",
"1596 601 OFFCURVE",
"1596 585 CURVE SMOOTH",
"1596 547 OFFCURVE",
"1621 527 OFFCURVE",
"1657 527 CURVE SMOOTH",
"1707 527 OFFCURVE",
"1740 570 OFFCURVE",
"1740 654 CURVE SMOOTH",
"1740 770 OFFCURVE",
"1668 848 OFFCURVE",
"1504 848 CURVE SMOOTH",
"1276 848 OFFCURVE",
"1069 663 OFFCURVE",
"1069 363 CURVE SMOOTH",
"1069 143 OFFCURVE",
"1210 -5 OFFCURVE",
"1435 -5 CURVE SMOOTH",
"1494 -5 OFFCURVE",
"1561 10 OFFCURVE",
"1620 39 CURVE"
);
},
{
closed = 1;
nodes = (
"1492 389 OFFCURVE",
"1449 358 OFFCURVE",
"1449 316 CURVE SMOOTH",
"1449 278 OFFCURVE",
"1479 267 OFFCURVE",
"1527 268 CURVE SMOOTH",
"1562 269 LINE SMOOTH",
"1602 270 OFFCURVE",
"1622 262 OFFCURVE",
"1619 223 CURVE SMOOTH",
"1604 31 OFFCURVE",
"1591 -29 OFFCURVE",
"1573 -145 CURVE SMOOTH",
"1565 -197 OFFCURVE",
"1585 -216 OFFCURVE",
"1623 -216 CURVE SMOOTH",
"1664 -216 OFFCURVE",
"1702 -203 OFFCURVE",
"1714 -137 CURVE SMOOTH",
"1726 -72 OFFCURVE",
"1746 41 OFFCURVE",
"1762 207 CURVE SMOOTH",
"1774 334 OFFCURVE",
"1730 387 OFFCURVE",
"1602 388 CURVE SMOOTH"
);
},
{
closed = 1;
nodes = (
"625 238 OFFCURVE",
"618 172 OFFCURVE",
"603 60 CURVE SMOOTH",
"559 -266 OFFCURVE",
"497 -355 OFFCURVE",
"461 -355 CURVE SMOOTH",
"440 -355 OFFCURVE",
"432 -337 OFFCURVE",
"433 -315 CURVE SMOOTH",
"436 -259 OFFCURVE",
"480 -175 OFFCURVE",
"666 -39 CURVE",
"734 8 OFFCURVE",
"817 64 OFFCURVE",
"898 118 CURVE SMOOTH",
"958 158 OFFCURVE",
"947 260 OFFCURVE",
"876 213 CURVE SMOOTH",
"796 160 OFFCURVE",
"726 108 OFFCURVE",
"666 61 CURVE",
"395 -136 OFFCURVE",
"335 -250 OFFCURVE",
"335 -344 CURVE SMOOTH",
"335 -413 OFFCURVE",
"381 -455 OFFCURVE",
"450 -455 CURVE SMOOTH",
"615 -455 OFFCURVE",
"705 -181 OFFCURVE",
"749 102 CURVE SMOOTH",
"769 231 OFFCURVE",
"776 290 OFFCURVE",
"779 330 CURVE SMOOTH",
"782 368 OFFCURVE",
"756 386 OFFCURVE",
"700 386 CURVE SMOOTH",
"572 386 LINE SMOOTH",
"502 386 OFFCURVE",
"469 358 OFFCURVE",
"469 316 CURVE SMOOTH",
"469 278 OFFCURVE",
"499 268 OFFCURVE",
"547 268 CURVE SMOOTH",
"672 268 LINE",
"630 290 LINE"
);
}
);
};
layerId = "ECEFE970-1BBB-4E0A-A452-CEB55884B4A3";
paths = (
{
closed = 1;
nodes = (
"630 156 LINE",
"575 126 OFFCURVE",
"513 118 OFFCURVE",
"471 118 CURVE SMOOTH",
"310 118 OFFCURVE",
"220 218 OFFCURVE",
"220 383 CURVE SMOOTH",
"220 604 OFFCURVE",
"355 730 OFFCURVE",
"495 730 CURVE SMOOTH",
"568 730 OFFCURVE",
"603 701 OFFCURVE",
"603 650 CURVE SMOOTH",
"603 624 OFFCURVE",
"596 601 OFFCURVE",
"596 585 CURVE SMOOTH",
"596 547 OFFCURVE",
"621 527 OFFCURVE",
"657 527 CURVE SMOOTH",
"707 527 OFFCURVE",
"740 570 OFFCURVE",
"740 654 CURVE SMOOTH",
"740 770 OFFCURVE",
"668 848 OFFCURVE",
"504 848 CURVE SMOOTH",
"276 848 OFFCURVE",
"69 663 OFFCURVE",
"69 363 CURVE SMOOTH",
"69 143 OFFCURVE",
"210 -5 OFFCURVE",
"435 -5 CURVE SMOOTH",
"494 -5 OFFCURVE",
"561 11 OFFCURVE",
"620 41 CURVE"
);
},
{
closed = 1;
nodes = (
"572 386 LINE SMOOTH",
"502 386 OFFCURVE",
"469 358 OFFCURVE",
"469 316 CURVE SMOOTH",
"469 278 OFFCURVE",
"499 268 OFFCURVE",
"547 268 CURVE SMOOTH",
"628 268 LINE",
"623 222 OFFCURVE",
"617 163 OFFCURVE",
"605 75 CURVE SMOOTH",
"589 -42 OFFCURVE",
"572 -149 OFFCURVE",
"572 -195 CURVE SMOOTH",
"572 -231 OFFCURVE",
"590 -255 OFFCURVE",
"639 -255 CURVE SMOOTH",
"677 -255 OFFCURVE",
"704 -236 OFFCURVE",
"711 -195 CURVE SMOOTH",
"724 -122 OFFCURVE",
"737 -18 OFFCURVE",
"749 87 CURVE SMOOTH",
"758 167 OFFCURVE",
"775 260 OFFCURVE",
"781 330 CURVE SMOOTH",
"784 368 OFFCURVE",
"758 386 OFFCURVE",
"702 386 CURVE SMOOTH"
);
}
);
width = 798;
}
);
note = G;
},
{
color = 9;
glyphname = H.ss01;
lastChange = "2016-07-26 11:42:49 +0000";
layers = (
{
background = {
paths = (
{
closed = 1;
nodes = (
"111 848 OFFCURVE",
"14 786 OFFCURVE",
"-42 708 CURVE SMOOTH",
"-63 679 OFFCURVE",
"-72 649 OFFCURVE",
"-72 626 CURVE SMOOTH",
"-72 601 OFFCURVE",
"-61 584 OFFCURVE",
"-45 584 CURVE SMOOTH",
"-34 584 OFFCURVE",
"-19 593 OFFCURVE",
"-4 613 CURVE SMOOTH",
"55 691 OFFCURVE",
"111 729 OFFCURVE",
"146 729 CURVE SMOOTH",
"170 729 OFFCURVE",
"192 718 OFFCURVE",
"192 669 CURVE SMOOTH",
"192 571 OFFCURVE",
"106 224 OFFCURVE",
"96 78 CURVE SMOOTH",
"91 19 OFFCURVE",
"111 -7 OFFCURVE",
"163 -7 CURVE SMOOTH",
"205 -7 OFFCURVE",
"242 12 OFFCURVE",
"249 83 CURVE SMOOTH",
"264 234 OFFCURVE",
"337 584 OFFCURVE",
"337 695 CURVE SMOOTH",
"337 801 OFFCURVE",
"291 848 OFFCURVE",
"206 848 CURVE SMOOTH"
);
},
{
closed = 1;
nodes = (
"824 -5 OFFCURVE",
"911 38 OFFCURVE",
"958 124 CURVE SMOOTH",
"970 146 OFFCURVE",
"975 164 OFFCURVE",
"975 187 CURVE SMOOTH",
"975 212 OFFCURVE",
"967 227 OFFCURVE",
"954 227 CURVE SMOOTH",
"947 227 OFFCURVE",
"937 222 OFFCURVE",
"927 209 CURVE SMOOTH",
"875 141 OFFCURVE",
"837 114 OFFCURVE",
"793 114 CURVE SMOOTH",
"749 114 OFFCURVE",
"719 141 OFFCURVE",
"719 194 CURVE SMOOTH",
"719 297 OFFCURVE",
"793 617 OFFCURVE",
"810 783 CURVE SMOOTH",
"814 822 OFFCURVE",
"795 848 OFFCURVE",
"744 848 CURVE SMOOTH",
"702 848 OFFCURVE",
"663 829 OFFCURVE",
"659 778 CURVE SMOOTH",
"645 617 OFFCURVE",
"569 287 OFFCURVE",
"568 166 CURVE SMOOTH",
"567 59 OFFCURVE",
"634 -5 OFFCURVE",
"738 -5 CURVE SMOOTH"
);
},
{
closed = 1;
nodes = (
"169 365 OFFCURVE",
"351 371 OFFCURVE",
"421 371 CURVE SMOOTH",
"479 371 OFFCURVE",
"682 370 OFFCURVE",
"766 370 CURVE SMOOTH",
"836 370 OFFCURVE",
"857 399 OFFCURVE",
"857 443 CURVE SMOOTH",
"857 468 OFFCURVE",
"835 491 OFFCURVE",
"790 491 CURVE SMOOTH",
"747 491 OFFCURVE",
"580 487 OFFCURVE",
"439 485 CURVE SMOOTH",
"301 484 OFFCURVE",
"169 484 OFFCURVE",
"143 484 CURVE SMOOTH",
"75 484 OFFCURVE",
"56 455 OFFCURVE",
"56 411 CURVE SMOOTH",
"56 374 OFFCURVE",
"80 363 OFFCURVE",
"116 364 CURVE SMOOTH"
);
}
);
};
layerId = "ECEFE970-1BBB-4E0A-A452-CEB55884B4A3";
paths = (
{
closed = 1;
nodes = (
"169 365 OFFCURVE",
"351 371 OFFCURVE",
"421 371 CURVE SMOOTH",
"479 371 OFFCURVE",
"682 370 OFFCURVE",
"766 370 CURVE SMOOTH",
"836 370 OFFCURVE",
"857 399 OFFCURVE",
"857 443 CURVE SMOOTH",
"857 468 OFFCURVE",
"835 491 OFFCURVE",
"790 491 CURVE SMOOTH",
"747 491 OFFCURVE",
"580 487 OFFCURVE",
"439 485 CURVE SMOOTH",
"301 484 OFFCURVE",
"169 484 OFFCURVE",
"143 484 CURVE SMOOTH",
"75 484 OFFCURVE",
"56 455 OFFCURVE",
"56 411 CURVE SMOOTH",
"56 374 OFFCURVE",
"80 363 OFFCURVE",
"116 364 CURVE SMOOTH"
);
},
{
closed = 1;
nodes = (
"683 848 OFFCURVE",
"657 829 OFFCURVE",
"653 778 CURVE SMOOTH",
"649 715 OFFCURVE",
"631 576 OFFCURVE",
"615 486 CURVE SMOOTH",
"608 446 OFFCURVE",
"600 403 OFFCURVE",
"592 355 CURVE SMOOTH",
"571 228 OFFCURVE",
"548 105 OFFCURVE",
"548 55 CURVE SMOOTH",
"548 19 OFFCURVE",
"572 -5 OFFCURVE",
"621 -5 CURVE SMOOTH",
"673 -5 OFFCURVE",
"699 14 OFFCURVE",
"703 65 CURVE SMOOTH",
"707 128 OFFCURVE",
"726 267 OFFCURVE",
"741 357 CURVE SMOOTH",
"763 488 LINE SMOOTH",
"784 615 OFFCURVE",
"808 738 OFFCURVE",
"808 788 CURVE SMOOTH",
"808 824 OFFCURVE",
"784 848 OFFCURVE",
"735 848 CURVE SMOOTH"
);
},
{
closed = 1;
nodes = (
"233 848 OFFCURVE",
"207 829 OFFCURVE",
"203 778 CURVE SMOOTH",
"199 715 OFFCURVE",
"181 576 OFFCURVE",
"165 486 CURVE SMOOTH",
"158 446 OFFCURVE",
"150 403 OFFCURVE",
"142 355 CURVE SMOOTH",
"121 228 OFFCURVE",
"98 105 OFFCURVE",
"98 55 CURVE SMOOTH",
"98 19 OFFCURVE",
"122 -5 OFFCURVE",
"171 -5 CURVE SMOOTH",
"223 -5 OFFCURVE",
"249 14 OFFCURVE",
"253 65 CURVE SMOOTH",
"257 128 OFFCURVE",
"276 267 OFFCURVE",
"291 357 CURVE SMOOTH",
"313 488 LINE SMOOTH",
"334 615 OFFCURVE",
"358 738 OFFCURVE",
"358 788 CURVE SMOOTH",
"358 824 OFFCURVE",
"334 848 OFFCURVE",
"285 848 CURVE SMOOTH"
);
}
);
width = 843;
}
);
note = H;
},
{
color = 9;
glyphname = J.ss01;
lastChange = "2016-07-25 22:12:37 +0000";
layers = (
{
background = {
paths = (
{
closed = 1;
nodes = (
"2042 -207 OFFCURVE",
"2062 -268 OFFCURVE",
"2094 -309 CURVE SMOOTH",
"2126 -350 OFFCURVE",
"2172 -371 OFFCURVE",
"2223 -371 CURVE SMOOTH",
"2273 -371 OFFCURVE",
"2327 -352 OFFCURVE",
"2382 -313 CURVE SMOOTH",
"2437 -274 OFFCURVE",
"2490 -215 OFFCURVE",
"2538 -135 CURVE SMOOTH",
"2585 -56 OFFCURVE",
"2626 44 OFFCURVE",
"2655 165 CURVE",
"2713 140 OFFCURVE",
"2763 125 OFFCURVE",
"2800 125 CURVE SMOOTH",
"2808 125 OFFCURVE",
"2816 126 OFFCURVE",
"2821 129 CURVE",
"2825 131 OFFCURVE",
"2833 135 OFFCURVE",
"2841 141 CURVE SMOOTH",
"2848 146 OFFCURVE",
"2855 153 OFFCURVE",
"2855 159 CURVE SMOOTH",
"2855 163 OFFCURVE",
"2853 166 OFFCURVE",
"2848 170 CURVE SMOOTH",
"2839 177 OFFCURVE",
"2827 187 OFFCURVE",
"2815 194 CURVE SMOOTH",
"2808 198 OFFCURVE",
"2803 201 OFFCURVE",
"2799 203 CURVE SMOOTH",
"2756 225 OFFCURVE",
"2716 250 OFFCURVE",
"2677 274 CURVE",
"2691 362 OFFCURVE",
"2699 457 OFFCURVE",
"2699 563 CURVE SMOOTH",
"2699 709 OFFCURVE",
"2671 812 OFFCURVE",
"2629 876 CURVE SMOOTH",
"2586 941 OFFCURVE",
"2530 970 OFFCURVE",
"2471 970 CURVE SMOOTH",
"2427 970 OFFCURVE",
"2383 954 OFFCURVE",
"2342 925 CURVE SMOOTH",
"2302 896 OFFCURVE",
"2265 854 OFFCURVE",
"2240 803 CURVE SMOOTH",
"2215 752 OFFCURVE",
"2199 691 OFFCURVE",
"2199 625 CURVE SMOOTH",
"2199 573 OFFCURVE",
"2220 521 OFFCURVE",
"2256 469 CURVE SMOOTH",
"2292 417 OFFCURVE",
"2342 367 OFFCURVE",
"2397 322 CURVE",
"2289 289 OFFCURVE",
"2201 221 OFFCURVE",
"2139 140 CURVE SMOOTH",
"2077 58 OFFCURVE",
"2042 -37 OFFCURVE",
"2042 -125 CURVE SMOOTH"
);
},
{
closed = 1;
nodes = (
"2167 -115 OFFCURVE",
"2184 -61 OFFCURVE",
"2214 -7 CURVE SMOOTH",
"2244 47 OFFCURVE",
"2285 102 OFFCURVE",
"2337 146 CURVE SMOOTH",
"2389 190 OFFCURVE",
"2449 225 OFFCURVE",
"2516 238 CURVE",
"2534 227 LINE",
"2499 59 OFFCURVE",
"2447 -62 OFFCURVE",
"2392 -141 CURVE SMOOTH",
"2337 -220 OFFCURVE",
"2281 -257 OFFCURVE",
"2238 -257 CURVE SMOOTH",
"2195 -257 OFFCURVE",
"2167 -223 OFFCURVE",
"2167 -156 CURVE SMOOTH"
);
},
{
closed = 1;
nodes = (
"2324 688 OFFCURVE",
"2333 722 OFFCURVE",
"2349 753 CURVE SMOOTH",
"2365 784 OFFCURVE",
"2386 812 OFFCURVE",
"2409 833 CURVE SMOOTH",
"2432 854 OFFCURVE",
"2458 865 OFFCURVE",
"2482 865 CURVE SMOOTH",
"2507 865 OFFCURVE",
"2530 852 OFFCURVE",
"2547 818 CURVE SMOOTH",
"2563 785 OFFCURVE",
"2574 733 OFFCURVE",
"2574 656 CURVE SMOOTH",
"2574 543 OFFCURVE",
"2567 444 OFFCURVE",
"2555 354 CURVE",
"2487 402 OFFCURVE",
"2429 452 OFFCURVE",
"2388 502 CURVE SMOOTH",
"2347 553 OFFCURVE",
"2324 604 OFFCURVE",
"2324 656 CURVE SMOOTH"
);
},
{
closed = 1;
nodes = (
"1685 -8 OFFCURVE",
"1774 79 OFFCURVE",
"1810 297 CURVE SMOOTH",
"1847 521 OFFCURVE",
"1856 593 OFFCURVE",
"1879 765 CURVE",
"1729 754 LINE",
"1709 601 OFFCURVE",
"1700 525 OFFCURVE",
"1660 285 CURVE SMOOTH",
"1637 148 OFFCURVE",
"1592 99 OFFCURVE",
"1522 98 CURVE SMOOTH",
"1466 97 OFFCURVE",
"1412 136 OFFCURVE",
"1390 153 CURVE SMOOTH",
"1340 192 OFFCURVE",
"1293 106 OFFCURVE",
"1333 63 CURVE SMOOTH",
"1367 27 OFFCURVE",
"1447 -8 OFFCURVE",
"1532 -8 CURVE SMOOTH"
);
},
{
closed = 1;
nodes = (
"1105 460 OFFCURVE",
"1186 510 OFFCURVE",
"1162 548 CURVE SMOOTH",
"1153 562 OFFCURVE",
"1142 585 OFFCURVE",
"1142 613 CURVE SMOOTH",
"1142 695 OFFCURVE",
"1220 724 OFFCURVE",
"1513 724 CURVE SMOOTH",
"1632 724 OFFCURVE",
"1694 719 OFFCURVE",
"1798 711 CURVE SMOOTH",
"1852 707 OFFCURVE",
"1875 730 OFFCURVE",
"1875 774 CURVE SMOOTH",
"1875 798 OFFCURVE",
"1857 822 OFFCURVE",
"1813 830 CURVE SMOOTH",
"1749 842 OFFCURVE",
"1671 847 OFFCURVE",
"1563 847 CURVE SMOOTH",
"1188 847 OFFCURVE",
"1023 781 OFFCURVE",
"1023 611 CURVE SMOOTH",
"1023 556 OFFCURVE",
"1043 513 OFFCURVE",
"1069 491 CURVE SMOOTH"
);
},
{
closed = 1;
nodes = (
"483 -8 OFFCURVE",
"584 106 OFFCURVE",
"625 391 CURVE SMOOTH",
"647 521 OFFCURVE",
"656 593 OFFCURVE",
"679 765 CURVE",
"527 754 LINE",
"507 601 OFFCURVE",
"498 525 OFFCURVE",
"465 310 CURVE SMOOTH",
"436 127 OFFCURVE",
"376 98 OFFCURVE",
"316 96 CURVE SMOOTH",
"248 94 OFFCURVE",
"217 119 OFFCURVE",
"172 195 CURVE SMOOTH",
"160 215 OFFCURVE",
"144 224 OFFCURVE",
"127 224 CURVE SMOOTH",
"86 224 OFFCURVE",
"56 166 OFFCURVE",
"86 111 CURVE SMOOTH",
"123 43 OFFCURVE",
"213 -8 OFFCURVE",
"310 -8 CURVE SMOOTH"
);
},
{
closed = 1;
nodes = (
"92 438 OFFCURVE",
"198 493 OFFCURVE",
"166 548 CURVE SMOOTH",
"158 562 OFFCURVE",
"146 585 OFFCURVE",
"146 613 CURVE SMOOTH",
"146 696 OFFCURVE",
"234 724 OFFCURVE",
"397 724 CURVE SMOOTH",
"486 724 OFFCURVE",
"548 717 OFFCURVE",
"652 704 CURVE SMOOTH",
"706 697 OFFCURVE",
"729 723 OFFCURVE",
"729 767 CURVE SMOOTH",
"729 791 OFFCURVE",
"711 812 OFFCURVE",
"667 823 CURVE SMOOTH",
"603 839 OFFCURVE",
"525 847 OFFCURVE",
"447 847 CURVE SMOOTH",
"192 847 OFFCURVE",
"27 781 OFFCURVE",
"27 607 CURVE SMOOTH",
"27 566 OFFCURVE",
"38 528 OFFCURVE",
"55 500 CURVE SMOOTH"
);
}
);
};
layerId = "ECEFE970-1BBB-4E0A-A452-CEB55884B4A3";
paths = (
{
closed = 1;
nodes = (
"483 -8 OFFCURVE",
"584 106 OFFCURVE",
"625 391 CURVE SMOOTH",
"647 521 OFFCURVE",
"656 593 OFFCURVE",
"679 765 CURVE",
"527 754 LINE",
"507 601 OFFCURVE",
"498 525 OFFCURVE",
"465 310 CURVE SMOOTH",
"436 127 OFFCURVE",
"376 98 OFFCURVE",
"316 96 CURVE SMOOTH",
"248 94 OFFCURVE",
"217 119 OFFCURVE",
"172 195 CURVE SMOOTH",
"160 215 OFFCURVE",
"144 224 OFFCURVE",
"127 224 CURVE SMOOTH",
"86 224 OFFCURVE",
"56 166 OFFCURVE",
"86 111 CURVE SMOOTH",
"123 43 OFFCURVE",
"213 -8 OFFCURVE",
"310 -8 CURVE SMOOTH"
);
},
{
closed = 1;
nodes = (
"142 438 OFFCURVE",
"248 493 OFFCURVE",
"216 548 CURVE SMOOTH",
"208 562 OFFCURVE",
"196 585 OFFCURVE",
"196 613 CURVE SMOOTH",
"196 696 OFFCURVE",
"284 724 OFFCURVE",
"417 724 CURVE SMOOTH",
"496 724 OFFCURVE",
"548 717 OFFCURVE",
"652 704 CURVE SMOOTH",
"706 697 OFFCURVE",
"729 723 OFFCURVE",
"729 767 CURVE SMOOTH",
"729 791 OFFCURVE",
"711 812 OFFCURVE",
"667 823 CURVE SMOOTH",
"603 839 OFFCURVE",
"525 847 OFFCURVE",
"457 847 CURVE SMOOTH",
"242 847 OFFCURVE",
"77 781 OFFCURVE",
"77 607 CURVE SMOOTH",
"77 566 OFFCURVE",
"88 528 OFFCURVE",
"105 500 CURVE SMOOTH"
);
}
);
width = 684;
}
);
note = J;
},
{
color = 9;
glyphname = K.ss01;
lastChange = "2016-07-26 13:40:36 +0000";
layers = (
{
background = {
paths = (
{
closed = 1;
nodes = (
"181 -8 OFFCURVE",
"270 67 OFFCURVE",
"299 261 CURVE SMOOTH",
"331 473 OFFCURVE",
"350 593 OFFCURVE",
"373 765 CURVE",
"221 754 LINE",
"201 601 OFFCURVE",
"192 525 OFFCURVE",
"151 260 CURVE SMOOTH",
"133 147 OFFCURVE",
"94 95 OFFCURVE",
"42 93 CURVE SMOOTH",
"-6 91 OFFCURVE",
"-32 119 OFFCURVE",
"-72 195 CURVE SMOOTH",
"-83 216 OFFCURVE",
"-94 224 OFFCURVE",
"-111 224 CURVE SMOOTH",
"-152 224 OFFCURVE",
"-177 169 OFFCURVE",
"-154 111 CURVE SMOOTH",
"-127 43 OFFCURVE",
"-51 -8 OFFCURVE",
"43 -8 CURVE SMOOTH"
);
},
{
closed = 1;
nodes = (
"-60 438 OFFCURVE",
"44 493 OFFCURVE",
"18 548 CURVE SMOOTH",
"11 562 OFFCURVE",
"-2 585 OFFCURVE",
"-2 623 CURVE SMOOTH",
"-2 696 OFFCURVE",
"66 731 OFFCURVE",
"141 731 CURVE SMOOTH",
"190 731 OFFCURVE",
"242 721 OFFCURVE",
"346 707 CURVE SMOOTH",
"387 701 OFFCURVE",
"410 723 OFFCURVE",
"410 767 CURVE SMOOTH",
"410 796 OFFCURVE",
"393 813 OFFCURVE",
"361 823 CURVE SMOOTH",
"297 843 OFFCURVE",
"239 847 OFFCURVE",
"181 847 CURVE SMOOTH",
"-23 847 OFFCURVE",
"-121 738 OFFCURVE",
"-121 617 CURVE SMOOTH",
"-121 566 OFFCURVE",
"-108 528 OFFCURVE",
"-93 500 CURVE SMOOTH"
);
},
{
closed = 1;
nodes = (
"726 -5 OFFCURVE",
"813 38 OFFCURVE",
"860 124 CURVE SMOOTH",
"872 146 OFFCURVE",
"877 169 OFFCURVE",
"877 187 CURVE SMOOTH",
"877 210 OFFCURVE",
"869 227 OFFCURVE",
"856 227 CURVE SMOOTH",
"849 227 OFFCURVE",
"839 222 OFFCURVE",
"829 209 CURVE SMOOTH",
"777 141 OFFCURVE",
"739 114 OFFCURVE",
"695 114 CURVE SMOOTH",
"645 114 OFFCURVE",
"614 147 OFFCURVE",
"583 235 CURVE SMOOTH",
"544 346 OFFCURVE",
"491 390 OFFCURVE",
"325 390 CURVE",
"306 336 LINE",
"375 336 OFFCURVE",
"388 303 OFFCURVE",
"432 174 CURVE SMOOTH",
"462 86 OFFCURVE",
"504 -5 OFFCURVE",
"647 -5 CURVE SMOOTH"
);
},
{
closed = 1;
nodes = (
"807 814 OFFCURVE",
"784 842 OFFCURVE",
"727 842 CURVE SMOOTH",
"678 842 OFFCURVE",
"649 821 OFFCURVE",
"637 784 CURVE SMOOTH",
"573 591 OFFCURVE",
"480 439 OFFCURVE",
"289 439 CURVE SMOOTH",
"243 439 OFFCURVE",
"214 439 OFFCURVE",
"155 439 CURVE SMOOTH",
"130 439 OFFCURVE",
"104 420 OFFCURVE",
"104 387 CURVE SMOOTH",
"104 367 OFFCURVE",
"112 335 OFFCURVE",
"163 335 CURVE",
"306 336 LINE",
"360 367 LINE",
"510 380 OFFCURVE",
"713 492 OFFCURVE",
"794 771 CURVE SMOOTH"
);
}
);
};
layerId = "ECEFE970-1BBB-4E0A-A452-CEB55884B4A3";
paths = (
{
closed = 1;
nodes = (
"726 -5 OFFCURVE",
"813 38 OFFCURVE",
"860 124 CURVE SMOOTH",
"872 146 OFFCURVE",
"877 169 OFFCURVE",
"877 187 CURVE SMOOTH",
"877 210 OFFCURVE",
"869 227 OFFCURVE",
"856 227 CURVE SMOOTH",
"849 227 OFFCURVE",
"839 222 OFFCURVE",
"829 209 CURVE SMOOTH",
"777 141 OFFCURVE",
"739 114 OFFCURVE",
"695 114 CURVE SMOOTH",
"645 114 OFFCURVE",
"614 147 OFFCURVE",
"583 235 CURVE SMOOTH",
"544 346 OFFCURVE",
"491 390 OFFCURVE",
"325 390 CURVE",
"306 336 LINE",
"375 336 OFFCURVE",
"388 303 OFFCURVE",
"432 174 CURVE SMOOTH",
"462 86 OFFCURVE",
"504 -5 OFFCURVE",
"647 -5 CURVE SMOOTH"
);
},
{
closed = 1;
nodes = (
"807 814 OFFCURVE",
"784 842 OFFCURVE",
"727 842 CURVE SMOOTH",
"678 842 OFFCURVE",
"649 821 OFFCURVE",
"637 784 CURVE SMOOTH",
"573 591 OFFCURVE",
"480 439 OFFCURVE",
"289 439 CURVE SMOOTH",
"243 439 OFFCURVE",
"194 439 OFFCURVE",
"135 439 CURVE SMOOTH",
"110 439 OFFCURVE",
"84 420 OFFCURVE",
"84 387 CURVE SMOOTH",
"84 367 OFFCURVE",
"92 335 OFFCURVE",
"143 335 CURVE",
"306 336 LINE",
"360 367 LINE",
"510 380 OFFCURVE",
"713 492 OFFCURVE",
"794 771 CURVE SMOOTH"
);
},
{
closed = 1;
nodes = (
"233 848 OFFCURVE",
"207 829 OFFCURVE",
"203 778 CURVE SMOOTH",
"198 715 OFFCURVE",
"181 576 OFFCURVE",
"165 486 CURVE SMOOTH",
"158 446 OFFCURVE",
"150 403 OFFCURVE",
"142 355 CURVE SMOOTH",
"121 228 OFFCURVE",
"98 105 OFFCURVE",
"98 55 CURVE SMOOTH",
"98 19 OFFCURVE",
"122 -5 OFFCURVE",
"171 -5 CURVE SMOOTH",
"223 -5 OFFCURVE",
"249 14 OFFCURVE",
"253 65 CURVE SMOOTH",
"258 128 OFFCURVE",
"276 267 OFFCURVE",
"291 357 CURVE SMOOTH",
"313 488 LINE SMOOTH",
"334 615 OFFCURVE",
"358 738 OFFCURVE",
"358 788 CURVE SMOOTH",
"358 824 OFFCURVE",
"334 848 OFFCURVE",
"285 848 CURVE SMOOTH"
);
}
);
width = 745;
}
);
note = K;
},
{
color = 9;
glyphname = L.ss01;
lastChange = "2016-07-26 15:13:10 +0000";
layers = (
{
background = {
paths = (
{
closed = 1;
nodes = (
"115 336 OFFCURVE",
"218 341 OFFCURVE",
"263 341 CURVE SMOOTH",
"300 341 OFFCURVE",
"458 340 OFFCURVE",
"503 340 CURVE SMOOTH",
"554 340 OFFCURVE",
"580 369 OFFCURVE",
"580 413 CURVE SMOOTH",
"580 438 OFFCURVE",
"553 461 OFFCURVE",
"518 461 CURVE SMOOTH",
"475 461 OFFCURVE",
"132 454 OFFCURVE",
"98 454 CURVE SMOOTH",
"55 454 OFFCURVE",
"30 425 OFFCURVE",
"30 381 CURVE SMOOTH",
"30 337 OFFCURVE",
"60 333 OFFCURVE",
"81 334 CURVE SMOOTH"
);
},
{
closed = 1;
nodes = (
"215 719 OFFCURVE",
"291 716 OFFCURVE",
"392 716 CURVE SMOOTH",
"470 716 OFFCURVE",
"588 719 OFFCURVE",
"652 731 CURVE SMOOTH",
"696 739 OFFCURVE",
"714 764 OFFCURVE",
"714 796 CURVE SMOOTH",
"714 832 OFFCURVE",
"691 855 OFFCURVE",
"637 851 CURVE SMOOTH",
"533 843 OFFCURVE",
"461 840 OFFCURVE",
"372 840 CURVE SMOOTH",
"291 840 OFFCURVE",
"216 848 OFFCURVE",
"135 848 CURVE SMOOTH",
"82 848 OFFCURVE",
"59 834 OFFCURVE",
"59 796 CURVE SMOOTH",
"59 750 OFFCURVE",
"92 729 OFFCURVE",
"154 724 CURVE SMOOTH"
);
},
{
closed = 1;
nodes = (
"190 620 OFFCURVE",
"168 515 OFFCURVE",
"142 355 CURVE SMOOTH",
"121 228 OFFCURVE",
"98 105 OFFCURVE",
"98 55 CURVE SMOOTH",
"98 19 OFFCURVE",
"122 -5 OFFCURVE",
"171 -5 CURVE SMOOTH",
"213 -5 OFFCURVE",
"249 14 OFFCURVE",
"252 55 CURVE SMOOTH",
"257 128 OFFCURVE",
"276 267 OFFCURVE",
"291 357 CURVE SMOOTH",
"318 521 OFFCURVE",
"339 627 OFFCURVE",
"367 765 CURVE",
"217 754 LINE"
);
}
);
};
layerId = "ECEFE970-1BBB-4E0A-A452-CEB55884B4A3";
paths = (
{
closed = 1;
nodes = (
"362 119 OFFCURVE",
"191 113 OFFCURVE",
"101 104 CURVE SMOOTH",
"47 99 OFFCURVE",
"29 72 OFFCURVE",
"29 38 CURVE SMOOTH",
"29 4 OFFCURVE",
"52 -20 OFFCURVE",
"116 -17 CURVE SMOOTH",
"231 -12 OFFCURVE",
"306 -7 OFFCURVE",
"548 -7 CURVE SMOOTH",
"611 -7 OFFCURVE",
"634 23 OFFCURVE",
"634 63 CURVE SMOOTH",
"634 107 OFFCURVE",
"601 119 OFFCURVE",
"529 119 CURVE SMOOTH"
);
},
{
closed = 1;
nodes = (
"233 848 OFFCURVE",
"207 829 OFFCURVE",
"203 778 CURVE SMOOTH",
"198 715 OFFCURVE",
"181 576 OFFCURVE",
"165 486 CURVE SMOOTH",
"158 446 OFFCURVE",
"150 403 OFFCURVE",
"142 355 CURVE SMOOTH",
"121 228 OFFCURVE",
"100 105 OFFCURVE",
"95 55 CURVE",
"250 65 LINE",
"258 128 OFFCURVE",
"278 267 OFFCURVE",
"293 357 CURVE SMOOTH",
"315 488 LINE SMOOTH",
"336 615 OFFCURVE",
"358 738 OFFCURVE",
"358 788 CURVE SMOOTH",
"358 824 OFFCURVE",
"334 848 OFFCURVE",
"285 848 CURVE SMOOTH"
);
}
);
width = 654;
}
);
note = L;
},
{
color = 9;
glyphname = M.ss01;
lastChange = "2016-07-25 22:12:37 +0000";
layers = (
{
background = {
paths = (
{
closed = 1;
nodes = (
"1288 227 OFFCURVE",
"1278 222 OFFCURVE",
"1268 209 CURVE SMOOTH",
"1216 141 OFFCURVE",
"1178 114 OFFCURVE",
"1134 114 CURVE SMOOTH",
"1091 114 OFFCURVE",
"1061 141 OFFCURVE",
"1061 198 CURVE SMOOTH",
"1061 229 OFFCURVE",
"1065 254 OFFCURVE",
"1071 284 CURVE SMOOTH",
"1132 570 LINE SMOOTH",
"1140 609 OFFCURVE",
"1145 645 OFFCURVE",
"1145 677 CURVE SMOOTH",
"1145 783 OFFCURVE",
"1095 848 OFFCURVE",
"994 848 CURVE SMOOTH",
"883 848 OFFCURVE",
"791 782 OFFCURVE",
"721 590 CURVE",
"729 628 OFFCURVE",
"730 646 OFFCURVE",
"730 669 CURVE SMOOTH",
"730 785 OFFCURVE",
"681 848 OFFCURVE",
"580 848 CURVE SMOOTH",
"463 848 OFFCURVE",
"366 776 OFFCURVE",
"290 553 CURVE",
"306 647 OFFCURVE",
"330 724 OFFCURVE",
"342 782 CURVE SMOOTH",
"352 829 OFFCURVE",
"337 852 OFFCURVE",
"278 852 CURVE SMOOTH",
"243 852 OFFCURVE",
"209 839 OFFCURVE",
"199 794 CURVE SMOOTH",
"154 592 OFFCURVE",
"110 328 OFFCURVE",
"96 103 CURVE SMOOTH",
"91 24 OFFCURVE",
"120 -5 OFFCURVE",
"163 -5 CURVE SMOOTH",
"214 -5 OFFCURVE",
"232 25 OFFCURVE",
"241 86 CURVE SMOOTH",
"313 575 OFFCURVE",
"443 721 OFFCURVE",
"527 721 CURVE SMOOTH",
"558 721 OFFCURVE",
"577 698 OFFCURVE",
"577 647 CURVE SMOOTH",
"577 587 OFFCURVE",
"551 456 OFFCURVE",
"528 335 CURVE SMOOTH",
"516 272 OFFCURVE",
"489 135 OFFCURVE",
"489 81 CURVE SMOOTH",
"489 20 OFFCURVE",
"520 -5 OFFCURVE",
"563 -5 CURVE SMOOTH",
"618 -5 OFFCURVE",
"646 25 OFFCURVE",
"655 86 CURVE SMOOTH",
"727 574 OFFCURVE",
"857 721 OFFCURVE",
"941 721 CURVE SMOOTH",
"972 721 OFFCURVE",
"991 698 OFFCURVE",
"991 651 CURVE SMOOTH",
"991 607 OFFCURVE",
"981 572 OFFCURVE",
"973 535 CURVE SMOOTH",
"932 352 LINE SMOOTH",
"914 273 OFFCURVE",
"908 221 OFFCURVE",
"908 181 CURVE SMOOTH",
"908 69 OFFCURVE",
"975 -5 OFFCURVE",
"1087 -5 CURVE SMOOTH",
"1165 -5 OFFCURVE",
"1252 38 OFFCURVE",
"1299 124 CURVE SMOOTH",
"1311 146 OFFCURVE",
"1316 169 OFFCURVE",
"1316 187 CURVE SMOOTH",
"1316 210 OFFCURVE",
"1308 227 OFFCURVE",
"1295 227 CURVE SMOOTH"
);
}
);
};
layerId = "ECEFE970-1BBB-4E0A-A452-CEB55884B4A3";
paths = (
{
closed = 1;
nodes = (
"1274 227 OFFCURVE",
"1264 222 OFFCURVE",
"1254 209 CURVE SMOOTH",
"1202 141 OFFCURVE",
"1164 114 OFFCURVE",
"1120 114 CURVE SMOOTH",
"1077 114 OFFCURVE",
"1047 141 OFFCURVE",
"1047 198 CURVE SMOOTH",
"1047 229 OFFCURVE",
"1051 254 OFFCURVE",
"1057 284 CURVE SMOOTH",
"1118 570 LINE SMOOTH",
"1126 609 OFFCURVE",
"1131 645 OFFCURVE",
"1131 677 CURVE SMOOTH",
"1131 783 OFFCURVE",
"1081 848 OFFCURVE",
"980 848 CURVE SMOOTH",
"869 848 OFFCURVE",
"777 782 OFFCURVE",
"707 590 CURVE",
"715 628 OFFCURVE",
"716 646 OFFCURVE",
"716 669 CURVE SMOOTH",
"716 785 OFFCURVE",
"663 848 OFFCURVE",
"569 848 CURVE SMOOTH",
"459 848 OFFCURVE",
"366 776 OFFCURVE",
"290 553 CURVE",
"306 647 OFFCURVE",
"330 724 OFFCURVE",
"342 782 CURVE SMOOTH",
"352 829 OFFCURVE",
"337 852 OFFCURVE",
"278 852 CURVE SMOOTH",
"243 852 OFFCURVE",
"209 839 OFFCURVE",
"199 794 CURVE SMOOTH",
"154 592 OFFCURVE",
"110 328 OFFCURVE",
"96 103 CURVE SMOOTH",
"91 24 OFFCURVE",
"120 -5 OFFCURVE",
"163 -5 CURVE SMOOTH",
"214 -5 OFFCURVE",
"232 25 OFFCURVE",
"241 86 CURVE SMOOTH",
"313 575 OFFCURVE",
"443 721 OFFCURVE",
"527 721 CURVE SMOOTH",
"558 721 OFFCURVE",
"577 698 OFFCURVE",
"577 647 CURVE SMOOTH",
"577 587 OFFCURVE",
"551 456 OFFCURVE",
"528 335 CURVE SMOOTH",
"516 272 OFFCURVE",
"489 135 OFFCURVE",
"489 81 CURVE SMOOTH",
"489 20 OFFCURVE",
"520 -5 OFFCURVE",
"563 -5 CURVE SMOOTH",
"606 -5 OFFCURVE",
"637 25 OFFCURVE",
"647 96 CURVE SMOOTH",
"718 574 OFFCURVE",
"843 721 OFFCURVE",
"927 721 CURVE SMOOTH",
"958 721 OFFCURVE",
"977 698 OFFCURVE",
"977 651 CURVE SMOOTH",
"977 607 OFFCURVE",
"967 572 OFFCURVE",
"959 535 CURVE SMOOTH",
"918 352 LINE SMOOTH",
"900 273 OFFCURVE",
"894 221 OFFCURVE",
"894 181 CURVE SMOOTH",
"894 69 OFFCURVE",
"961 -5 OFFCURVE",
"1073 -5 CURVE SMOOTH",
"1151 -5 OFFCURVE",
"1238 38 OFFCURVE",
"1285 124 CURVE SMOOTH",
"1297 146 OFFCURVE",
"1302 169 OFFCURVE",
"1302 187 CURVE SMOOTH",
"1302 210 OFFCURVE",
"1294 227 OFFCURVE",
"1281 227 CURVE SMOOTH"
);
}
);
width = 1182;
}
);
leftMetricsKey = N.ss01;
note = M;
rightMetricsKey = N.ss01;
},
{
color = 9;
glyphname = N.ss01;
lastChange = "2016-07-25 22:12:37 +0000";
layers = (
{
background = {
paths = (
{
closed = 1;
nodes = (
"964 848 OFFCURVE",
"860 741 OFFCURVE",
"789 540 CURVE",
"651 -5 LINE",
"706 -5 OFFCURVE",
"735 26 OFFCURVE",
"743 86 CURVE SMOOTH",
"802 526 OFFCURVE",
"940 721 OFFCURVE",
"1055 721 CURVE SMOOTH",
"1100 721 OFFCURVE",
"1122 692 OFFCURVE",
"1122 647 CURVE SMOOTH",
"1122 619 OFFCURVE",
"1114 572 OFFCURVE",
"1106 535 CURVE SMOOTH",
"1065 352 LINE SMOOTH",
"1047 273 OFFCURVE",
"1041 224 OFFCURVE",
"1041 181 CURVE SMOOTH",
"1041 69 OFFCURVE",
"1108 -5 OFFCURVE",
"1220 -5 CURVE SMOOTH",
"1298 -5 OFFCURVE",
"1386 40 OFFCURVE",
"1432 124 CURVE SMOOTH",
"1444 146 OFFCURVE",
"1449 169 OFFCURVE",
"1449 187 CURVE SMOOTH",
"1449 210 OFFCURVE",
"1441 227 OFFCURVE",
"1428 227 CURVE SMOOTH",
"1421 227 OFFCURVE",
"1411 222 OFFCURVE",
"1401 209 CURVE SMOOTH",
"1349 141 OFFCURVE",
"1311 114 OFFCURVE",
"1267 114 CURVE SMOOTH",
"1224 114 OFFCURVE",
"1194 141 OFFCURVE",
"1194 198 CURVE SMOOTH",
"1194 229 OFFCURVE",
"1198 255 OFFCURVE",
"1204 284 CURVE SMOOTH",
"1265 570 LINE SMOOTH",
"1273 609 OFFCURVE",
"1277 645 OFFCURVE",
"1277 677 CURVE SMOOTH",
"1277 776 OFFCURVE",
"1223 848 OFFCURVE",
"1104 848 CURVE SMOOTH"
);
},
{
closed = 1;
nodes = (
"731 87 LINE",
"789 540 LINE",
"808 647 OFFCURVE",
"824 715 OFFCURVE",
"842 782 CURVE SMOOTH",
"854 827 OFFCURVE",
"837 852 OFFCURVE",
"780 852 CURVE SMOOTH",
"738 852 OFFCURVE",
"703 839 OFFCURVE",
"692 794 CURVE SMOOTH",
"647 612 OFFCURVE",
"601 328 OFFCURVE",
"585 63 CURVE SMOOTH",
"582 14 OFFCURVE",
"604 -5 OFFCURVE",
"650 -5 CURVE"
);
},
{
closed = 1;
nodes = (
"234 848 OFFCURVE",
"198 829 OFFCURVE",
"195 788 CURVE SMOOTH",
"190 715 OFFCURVE",
"172 576 OFFCURVE",
"156 486 CURVE SMOOTH",
"149 446 OFFCURVE",
"141 403 OFFCURVE",
"133 355 CURVE SMOOTH",
"112 228 OFFCURVE",
"89 105 OFFCURVE",
"89 55 CURVE SMOOTH",
"89 19 OFFCURVE",
"113 -5 OFFCURVE",
"162 -5 CURVE SMOOTH",
"204 -5 OFFCURVE",
"240 14 OFFCURVE",
"243 55 CURVE SMOOTH",
"248 128 OFFCURVE",
"267 267 OFFCURVE",
"282 357 CURVE SMOOTH",
"304 488 LINE SMOOTH",
"325 615 OFFCURVE",
"349 738 OFFCURVE",
"349 788 CURVE SMOOTH",
"349 824 OFFCURVE",
"325 848 OFFCURVE",
"276 848 CURVE SMOOTH"
);
}
);
};
layerId = "ECEFE970-1BBB-4E0A-A452-CEB55884B4A3";
paths = (
{
closed = 1;
nodes = (
"921 227 OFFCURVE",
"911 222 OFFCURVE",
"901 209 CURVE SMOOTH",
"848 142 OFFCURVE",
"811 114 OFFCURVE",
"767 114 CURVE SMOOTH",
"724 114 OFFCURVE",
"694 141 OFFCURVE",
"694 198 CURVE SMOOTH",
"694 229 OFFCURVE",
"698 255 OFFCURVE",
"704 284 CURVE SMOOTH",
"765 570 LINE SMOOTH",
"773 609 OFFCURVE",
"777 645 OFFCURVE",
"777 677 CURVE SMOOTH",
"777 776 OFFCURVE",
"723 848 OFFCURVE",
"604 848 CURVE SMOOTH",
"464 848 OFFCURVE",
"364 744 OFFCURVE",
"283 527 CURVE",
"308 647 OFFCURVE",
"330 724 OFFCURVE",
"342 782 CURVE SMOOTH",
"352 829 OFFCURVE",
"337 852 OFFCURVE",
"280 852 CURVE SMOOTH",
"245 852 OFFCURVE",
"209 839 OFFCURVE",
"199 794 CURVE SMOOTH",
"152 592 OFFCURVE",
"110 328 OFFCURVE",
"96 103 CURVE SMOOTH",
"91 24 OFFCURVE",
"120 -5 OFFCURVE",
"163 -5 CURVE SMOOTH",
"211 -5 OFFCURVE",
"236 26 OFFCURVE",
"243 86 CURVE SMOOTH",
"296 513 OFFCURVE",
"440 721 OFFCURVE",
"555 721 CURVE SMOOTH",
"600 721 OFFCURVE",
"622 692 OFFCURVE",
"622 647 CURVE SMOOTH",
"622 619 OFFCURVE",
"614 572 OFFCURVE",
"606 535 CURVE SMOOTH",
"565 352 LINE SMOOTH",
"547 273 OFFCURVE",
"541 224 OFFCURVE",
"541 181 CURVE SMOOTH",
"541 69 OFFCURVE",
"608 -5 OFFCURVE",
"720 -5 CURVE SMOOTH",
"798 -5 OFFCURVE",
"886 40 OFFCURVE",
"932 124 CURVE SMOOTH",
"944 146 OFFCURVE",
"949 169 OFFCURVE",
"949 187 CURVE SMOOTH",
"949 210 OFFCURVE",
"941 227 OFFCURVE",
"928 227 CURVE SMOOTH"
);
}
);
width = 829;
}
);
note = N;
},
{
color = 9;
glyphname = OE.ss01;
lastChange = "2016-07-25 22:12:37 +0000";
layers = (
{
background = {
paths = (
{
closed = 1;
nodes = (
"617 -5 OFFCURVE",
"787 217 OFFCURVE",
"787 505 CURVE SMOOTH",
"787 724 OFFCURVE",
"661 848 OFFCURVE",
"487 848 CURVE SMOOTH",
"212 848 OFFCURVE",
"69 592 OFFCURVE",
"69 338 CURVE SMOOTH",
"69 119 OFFCURVE",
"201 -5 OFFCURVE",
"385 -5 CURVE SMOOTH"
);
},
{
closed = 1;
nodes = (
"296 115 OFFCURVE",
"218 191 OFFCURVE",
"218 356 CURVE SMOOTH",
"218 570 OFFCURVE",
"322 728 OFFCURVE",
"476 728 CURVE SMOOTH",
"576 728 OFFCURVE",
"654 651 OFFCURVE",
"654 487 CURVE SMOOTH",
"654 245 OFFCURVE",
"532 115 OFFCURVE",
"396 115 CURVE SMOOTH"
);
},
{
closed = 1;
nodes = (
"1160 720 OFFCURVE",
"1190 751 OFFCURVE",
"1190 787 CURVE SMOOTH",
"1190 824 OFFCURVE",
"1165 849 OFFCURVE",
"1106 849 CURVE SMOOTH",
"1030 849 OFFCURVE",
"960 845 OFFCURVE",
"906 842 CURVE SMOOTH",
"819 837 OFFCURVE",
"758 801 OFFCURVE",
"728 691 CURVE SMOOTH",
"681 520 LINE",
"648 264 LINE",
"642 121 OFFCURVE",
"724 -5 OFFCURVE",
"949 -5 CURVE SMOOTH",
"1040 -5 OFFCURVE",
"1123 20 OFFCURVE",
"1199 59 CURVE SMOOTH",
"1283 102 OFFCURVE",
"1280 200 OFFCURVE",
"1201 174 CURVE SMOOTH",
"1130 151 OFFCURVE",
"1056 120 OFFCURVE",
"972 120 CURVE SMOOTH",
"805 120 OFFCURVE",
"769 212 OFFCURVE",
"803 361 CURVE",
"912 363 OFFCURVE",
"960 365 OFFCURVE",
"1038 367 CURVE SMOOTH",
"1101 369 OFFCURVE",
"1124 396 OFFCURVE",
"1124 436 CURVE SMOOTH",
"1124 464 OFFCURVE",
"1109 490 OFFCURVE",
"1060 490 CURVE SMOOTH",
"989 490 OFFCURVE",
"916 486 OFFCURVE",
"827 483 CURVE",
"843 556 OFFCURVE",
"865 651 OFFCURVE",
"885 713 CURVE",
"926 716 OFFCURVE",
"1026 720 OFFCURVE",
"1078 720 CURVE SMOOTH"
);
}
);
};
layerId = "ECEFE970-1BBB-4E0A-A452-CEB55884B4A3";
paths = (
{
closed = 1;
nodes = (
"617 -5 OFFCURVE",
"787 217 OFFCURVE",
"787 505 CURVE SMOOTH",
"787 724 OFFCURVE",
"661 848 OFFCURVE",
"487 848 CURVE SMOOTH",
"212 848 OFFCURVE",
"69 592 OFFCURVE",
"69 338 CURVE SMOOTH",
"69 119 OFFCURVE",
"201 -5 OFFCURVE",
"385 -5 CURVE SMOOTH"
);
},
{
closed = 1;
nodes = (
"296 115 OFFCURVE",
"218 191 OFFCURVE",
"218 356 CURVE SMOOTH",
"218 570 OFFCURVE",
"322 728 OFFCURVE",
"476 728 CURVE SMOOTH",
"576 728 OFFCURVE",
"654 651 OFFCURVE",
"654 487 CURVE SMOOTH",
"654 245 OFFCURVE",
"532 115 OFFCURVE",
"396 115 CURVE SMOOTH"
);
},
{
closed = 1;
nodes = (
"1006 -5 OFFCURVE",
"1060 6 OFFCURVE",
"1107 28 CURVE SMOOTH",
"1149 48 OFFCURVE",
"1166 79 OFFCURVE",
"1166 108 CURVE SMOOTH",
"1166 136 OFFCURVE",
"1144 151 OFFCURVE",
"1098 139 CURVE SMOOTH",
"1053 127 OFFCURVE",
"1014 120 OFFCURVE",
"962 120 CURVE SMOOTH",
"805 120 OFFCURVE",
"769 212 OFFCURVE",
"803 361 CURVE",
"912 363 OFFCURVE",
"960 365 OFFCURVE",
"1038 367 CURVE SMOOTH",
"1101 369 OFFCURVE",
"1124 396 OFFCURVE",
"1124 436 CURVE SMOOTH",
"1124 464 OFFCURVE",
"1109 490 OFFCURVE",
"1060 490 CURVE SMOOTH",
"989 490 OFFCURVE",
"916 486 OFFCURVE",
"827 483 CURVE",
"843 556 OFFCURVE",
"865 651 OFFCURVE",
"885 713 CURVE",
"926 716 OFFCURVE",
"1026 720 OFFCURVE",
"1078 720 CURVE SMOOTH",
"1160 720 OFFCURVE",
"1190 751 OFFCURVE",
"1190 787 CURVE SMOOTH",
"1190 824 OFFCURVE",
"1165 849 OFFCURVE",
"1106 849 CURVE SMOOTH",
"1030 849 OFFCURVE",
"960 845 OFFCURVE",
"906 842 CURVE SMOOTH",
"819 837 OFFCURVE",
"759 802 OFFCURVE",
"728 691 CURVE SMOOTH",
"681 520 LINE",
"648 264 LINE",
"642 121 OFFCURVE",
"724 -5 OFFCURVE",
"939 -5 CURVE SMOOTH"
);
}
);
width = 1150;
}
);
note = OE;
},
{
color = 9;
glyphname = P.ss01;
lastChange = "2016-07-26 11:46:27 +0000";
layers = (
{
background = {
paths = (
{
closed = 1;
nodes = (
"316 428 OFFCURVE",
"337 548 CURVE SMOOTH",
"348 612 OFFCURVE",
"342 646 OFFCURVE",
"274 646 CURVE SMOOTH",
"234 646 OFFCURVE",
"198 632 OFFCURVE",
"187 573 CURVE SMOOTH",
"161 434 OFFCURVE",
"131 252 OFFCURVE",
"101 85 CURVE SMOOTH",
"93 41 OFFCURVE",
"73 26 OFFCURVE",
"58 26 CURVE SMOOTH",
"27 26 OFFCURVE",
"0 116 OFFCURVE",
"0 257 CURVE SMOOTH",
"0 550 OFFCURVE",
"102 732 OFFCURVE",
"313 732 CURVE SMOOTH",
"427 732 OFFCURVE",
"484 664 OFFCURVE",
"484 577 CURVE SMOOTH",
"484 474 OFFCURVE",
"424 372 OFFCURVE",
"222 372 CURVE SMOOTH",
"187 372 OFFCURVE",
"148 375 OFFCURVE",
"115 381 CURVE SMOOTH",
"77 388 OFFCURVE",
"45 369 OFFCURVE",
"45 332 CURVE SMOOTH",
"45 310 OFFCURVE",
"57 287 OFFCURVE",
"101 279 CURVE SMOOTH",
"134 273 OFFCURVE",
"184 269 OFFCURVE",
"230 269 CURVE SMOOTH",
"494 269 OFFCURVE",
"638 417 OFFCURVE",
"638 596 CURVE SMOOTH",
"638 735 OFFCURVE",
"536 846 OFFCURVE",
"334 846 CURVE SMOOTH",
"39 846 OFFCURVE",
"-111 608 OFFCURVE",
"-111 252 CURVE SMOOTH",
"-111 4 OFFCURVE",
"-21 -109 OFFCURVE",
"87 -109 CURVE SMOOTH",
"170 -109 OFFCURVE",
"234 -44 OFFCURVE",
"255 70 CURVE SMOOTH",
"289 256 OFFCURVE"
);
}
);
};
layerId = "ECEFE970-1BBB-4E0A-A452-CEB55884B4A3";
paths = (
{
closed = 1;
nodes = (
"54 744 OFFCURVE",
"83 652 OFFCURVE",
"157 696 CURVE SMOOTH",
"201 722 OFFCURVE",
"266 735 OFFCURVE",
"325 735 CURVE SMOOTH",
"451 735 OFFCURVE",
"507 664 OFFCURVE",
"507 577 CURVE SMOOTH",
"507 474 OFFCURVE",
"447 372 OFFCURVE",
"232 372 CURVE SMOOTH",
"187 372 OFFCURVE",
"148 375 OFFCURVE",
"115 381 CURVE SMOOTH",
"77 388 OFFCURVE",
"45 369 OFFCURVE",
"45 332 CURVE SMOOTH",
"45 310 OFFCURVE",
"57 287 OFFCURVE",
"101 279 CURVE SMOOTH",
"134 273 OFFCURVE",
"184 269 OFFCURVE",
"240 269 CURVE SMOOTH",
"514 269 OFFCURVE",
"655 417 OFFCURVE",
"655 593 CURVE SMOOTH",
"655 735 OFFCURVE",
"555 846 OFFCURVE",
"353 846 CURVE SMOOTH",
"270 846 OFFCURVE",
"189 826 OFFCURVE",
"140 796 CURVE SMOOTH"
);
},
{
closed = 1;
nodes = (
"212 778 LINE",
"207 715 OFFCURVE",
"187 576 OFFCURVE",
"171 486 CURVE SMOOTH",
"164 446 OFFCURVE",
"156 403 OFFCURVE",
"148 355 CURVE SMOOTH",
"127 228 OFFCURVE",
"104 105 OFFCURVE",
"104 55 CURVE SMOOTH",
"104 19 OFFCURVE",
"128 -5 OFFCURVE",
"177 -5 CURVE SMOOTH",
"229 -5 OFFCURVE",
"255 14 OFFCURVE",
"259 65 CURVE SMOOTH",
"264 128 OFFCURVE",
"282 267 OFFCURVE",
"297 357 CURVE SMOOTH",
"319 488 LINE SMOOTH",
"340 615 OFFCURVE",
"360 738 OFFCURVE",
"364 788 CURVE"
);
}
);
width = 653;
}
);
note = P;
},
{
color = 9;
glyphname = Thorn.ss01;
lastChange = "2016-07-26 12:10:50 +0000";
layers = (
{
background = {
paths = (
{
closed = 1;
nodes = (
"57 744 OFFCURVE",
"86 652 OFFCURVE",
"160 696 CURVE SMOOTH",
"204 722 OFFCURVE",
"269 735 OFFCURVE",
"328 735 CURVE SMOOTH",
"454 735 OFFCURVE",
"510 664 OFFCURVE",
"510 577 CURVE SMOOTH",
"510 474 OFFCURVE",
"450 372 OFFCURVE",
"235 372 CURVE SMOOTH",
"190 372 OFFCURVE",
"151 375 OFFCURVE",
"118 381 CURVE SMOOTH",
"80 388 OFFCURVE",
"48 369 OFFCURVE",
"48 332 CURVE SMOOTH",
"48 310 OFFCURVE",
"60 287 OFFCURVE",
"104 279 CURVE SMOOTH",
"137 273 OFFCURVE",
"187 269 OFFCURVE",
"243 269 CURVE SMOOTH",
"517 269 OFFCURVE",
"658 417 OFFCURVE",
"658 593 CURVE SMOOTH",
"658 735 OFFCURVE",
"558 846 OFFCURVE",
"356 846 CURVE SMOOTH",
"273 846 OFFCURVE",
"192 826 OFFCURVE",
"143 796 CURVE SMOOTH"
);
},
{
closed = 1;
nodes = (
"215 778 LINE",
"210 715 OFFCURVE",
"190 576 OFFCURVE",
"174 486 CURVE SMOOTH",
"167 446 OFFCURVE",
"159 403 OFFCURVE",
"151 355 CURVE SMOOTH",
"130 228 OFFCURVE",
"107 105 OFFCURVE",
"107 55 CURVE SMOOTH",
"107 19 OFFCURVE",
"131 -5 OFFCURVE",
"180 -5 CURVE SMOOTH",
"232 -5 OFFCURVE",
"258 14 OFFCURVE",
"262 65 CURVE SMOOTH",
"267 128 OFFCURVE",
"285 267 OFFCURVE",
"300 357 CURVE SMOOTH",
"322 488 LINE SMOOTH",
"343 615 OFFCURVE",
"363 738 OFFCURVE",
"367 788 CURVE"
);
}
);
};
layerId = "ECEFE970-1BBB-4E0A-A452-CEB55884B4A3";
paths = (
{
closed = 1;
nodes = (
"57 614 OFFCURVE",
"86 522 OFFCURVE",
"160 566 CURVE SMOOTH",
"204 592 OFFCURVE",
"269 605 OFFCURVE",
"328 605 CURVE SMOOTH",
"466 605 OFFCURVE",
"510 534 OFFCURVE",
"510 466 CURVE SMOOTH",
"510 374 OFFCURVE",
"462 282 OFFCURVE",
"245 282 CURVE SMOOTH",
"190 282 OFFCURVE",
"151 285 OFFCURVE",
"118 291 CURVE SMOOTH",
"80 298 OFFCURVE",
"48 279 OFFCURVE",
"48 242 CURVE SMOOTH",
"48 220 OFFCURVE",
"60 197 OFFCURVE",
"104 189 CURVE SMOOTH",
"137 183 OFFCURVE",
"187 179 OFFCURVE",
"253 179 CURVE SMOOTH",
"527 179 OFFCURVE",
"658 317 OFFCURVE",
"658 483 CURVE SMOOTH",
"658 605 OFFCURVE",
"568 716 OFFCURVE",
"356 716 CURVE SMOOTH",
"273 716 OFFCURVE",
"192 696 OFFCURVE",
"143 666 CURVE SMOOTH"
);
},
{
closed = 1;
nodes = (
"248 888 OFFCURVE",
"221 869 OFFCURVE",
"218 818 CURVE SMOOTH",
"213 745 OFFCURVE",
"190 576 OFFCURVE",
"174 486 CURVE SMOOTH",
"167 446 OFFCURVE",
"159 403 OFFCURVE",
"151 355 CURVE SMOOTH",
"130 228 OFFCURVE",
"107 105 OFFCURVE",
"107 55 CURVE SMOOTH",
"107 19 OFFCURVE",
"131 -5 OFFCURVE",
"180 -5 CURVE SMOOTH",
"232 -5 OFFCURVE",
"258 14 OFFCURVE",
"262 65 CURVE SMOOTH",
"267 128 OFFCURVE",
"285 267 OFFCURVE",
"300 357 CURVE SMOOTH",
"322 488 LINE SMOOTH",
"343 615 OFFCURVE",
"373 778 OFFCURVE",
"373 828 CURVE SMOOTH",
"373 864 OFFCURVE",
"349 888 OFFCURVE",
"300 888 CURVE SMOOTH"
);
}
);
width = 666;
}
);
note = Thorn;
},
{
color = 9;
glyphname = Q.ss01;
lastChange = "2016-07-26 12:58:29 +0000";
layers = (
{
background = {
paths = (
{
closed = 1;
nodes = (
"617 -5 OFFCURVE",
"803 217 OFFCURVE",
"803 505 CURVE SMOOTH",
"803 724 OFFCURVE",
"661 848 OFFCURVE",
"487 848 CURVE SMOOTH",
"212 848 OFFCURVE",
"69 592 OFFCURVE",
"69 338 CURVE SMOOTH",
"69 119 OFFCURVE",
"201 -5 OFFCURVE",
"385 -5 CURVE SMOOTH"
);
},
{
closed = 1;
nodes = (
"296 115 OFFCURVE",
"218 191 OFFCURVE",
"218 356 CURVE SMOOTH",
"218 570 OFFCURVE",
"322 728 OFFCURVE",
"476 728 CURVE SMOOTH",
"576 728 OFFCURVE",
"654 651 OFFCURVE",
"654 487 CURVE SMOOTH",
"654 245 OFFCURVE",
"532 115 OFFCURVE",
"396 115 CURVE SMOOTH"
);
},
{
closed = 1;
nodes = (
"502 -241 OFFCURVE",
"530 -253 OFFCURVE",
"567 -253 CURVE SMOOTH",
"621 -253 OFFCURVE",
"654 -230 OFFCURVE",
"654 -201 CURVE SMOOTH",
"654 -178 OFFCURVE",
"638 -165 OFFCURVE",
"606 -147 CURVE SMOOTH",
"534 -107 OFFCURVE",
"472 -45 OFFCURVE",
"423 66 CURVE",
"294 45 LINE",
"355 -114 OFFCURVE",
"434 -198 OFFCURVE",
"482 -228 CURVE SMOOTH"
);
}
);
};
layerId = "ECEFE970-1BBB-4E0A-A452-CEB55884B4A3";
paths = (
{
closed = 1;
nodes = (
"218 570 OFFCURVE",
"322 728 OFFCURVE",
"476 728 CURVE SMOOTH",
"576 728 OFFCURVE",
"654 651 OFFCURVE",
"654 487 CURVE SMOOTH",
"654 245 OFFCURVE",
"532 115 OFFCURVE",
"396 115 CURVE SMOOTH",
"296 115 OFFCURVE",
"218 191 OFFCURVE",
"218 356 CURVE SMOOTH"
);
},
{
closed = 1;
nodes = (
"515 -248 OFFCURVE",
"547 -260 OFFCURVE",
"587 -260 CURVE SMOOTH",
"644 -260 OFFCURVE",
"695 -226 OFFCURVE",
"659 -175 CURVE SMOOTH",
"577 -58 LINE SMOOTH",
"548 -17 OFFCURVE",
"524 8 OFFCURVE",
"479 22 CURVE",
"480 8 LINE",
"665 59 OFFCURVE",
"803 257 OFFCURVE",
"803 505 CURVE SMOOTH",
"803 724 OFFCURVE",
"661 848 OFFCURVE",
"487 848 CURVE SMOOTH",
"212 848 OFFCURVE",
"69 592 OFFCURVE",
"69 338 CURVE SMOOTH",
"69 148 OFFCURVE",
"169 31 OFFCURVE",
"315 1 CURVE SMOOTH",
"355 -7 OFFCURVE",
"366 -12 OFFCURVE",
"407 -77 CURVE SMOOTH",
"494 -216 LINE SMOOTH"
);
}
);
width = 814;
}
);
leftKerningGroup = O;
leftMetricsKey = O;
widthMetricsKey = O;
note = Q;
rightKerningGroup = O;
},
